%TF.GenerationSoftware,KiCad,Pcbnew,9.0.8+dfsg-1*%
%TF.CreationDate,2026-06-23T21:25:10+05:30*%
%TF.ProjectId,base_node,62617365-5f6e-46f6-9465-2e6b69636164,rev?*%
%TF.SameCoordinates,Original*%
%TF.FileFunction,Soldermask,Top*%
%TF.FilePolarity,Negative*%
%FSLAX46Y46*%
G04 Gerber Fmt 4.6, Leading zero omitted, Abs format (unit mm)*
G04 Created by KiCad (PCBNEW 9.0.8+dfsg-1) date 2026-06-23 21:25:10*
%MOMM*%
%LPD*%
G01*
G04 APERTURE LIST*
G04 Aperture macros list*
%AMRoundRect*
0 Rectangle with rounded corners*
0 $1 Rounding radius*
0 $2 $3 $4 $5 $6 $7 $8 $9 X,Y pos of 4 corners*
0 Add a 4 corners polygon primitive as box body*
4,1,4,$2,$3,$4,$5,$6,$7,$8,$9,$2,$3,0*
0 Add four circle primitives for the rounded corners*
1,1,$1+$1,$2,$3*
1,1,$1+$1,$4,$5*
1,1,$1+$1,$6,$7*
1,1,$1+$1,$8,$9*
0 Add four rect primitives between the rounded corners*
20,1,$1+$1,$2,$3,$4,$5,0*
20,1,$1+$1,$4,$5,$6,$7,0*
20,1,$1+$1,$6,$7,$8,$9,0*
20,1,$1+$1,$8,$9,$2,$3,0*%
%AMRotRect*
0 Rectangle, with rotation*
0 The origin of the aperture is its center*
0 $1 length*
0 $2 width*
0 $3 Rotation angle, in degrees counterclockwise*
0 Add horizontal line*
21,1,$1,$2,0,0,$3*%
G04 Aperture macros list end*
%ADD10RoundRect,0.345000X-0.805000X2.005000X-0.805000X-2.005000X0.805000X-2.005000X0.805000X2.005000X0*%
%ADD11O,1.200000X1.750000*%
%ADD12RoundRect,0.250000X-0.350000X-0.625000X0.350000X-0.625000X0.350000X0.625000X-0.350000X0.625000X0*%
%ADD13RoundRect,0.150000X-0.825000X-0.150000X0.825000X-0.150000X0.825000X0.150000X-0.825000X0.150000X0*%
%ADD14C,2.200000*%
%ADD15RoundRect,0.250000X0.900000X-1.000000X0.900000X1.000000X-0.900000X1.000000X-0.900000X-1.000000X0*%
%ADD16R,1.600000X1.600000*%
%ADD17C,1.600000*%
%ADD18RoundRect,0.250000X0.550000X-0.550000X0.550000X0.550000X-0.550000X0.550000X-0.550000X-0.550000X0*%
%ADD19RotRect,0.450000X0.450000X45.000000*%
%ADD20RoundRect,0.250000X-0.750000X0.600000X-0.750000X-0.600000X0.750000X-0.600000X0.750000X0.600000X0*%
%ADD21O,2.000000X1.700000*%
%ADD22RoundRect,0.150000X0.587500X0.150000X-0.587500X0.150000X-0.587500X-0.150000X0.587500X-0.150000X0*%
%ADD23RoundRect,0.225000X-0.225000X-0.250000X0.225000X-0.250000X0.225000X0.250000X-0.225000X0.250000X0*%
%ADD24RoundRect,0.250000X0.450000X-0.262500X0.450000X0.262500X-0.450000X0.262500X-0.450000X-0.262500X0*%
%ADD25RoundRect,0.225000X0.335876X0.017678X0.017678X0.335876X-0.335876X-0.017678X-0.017678X-0.335876X0*%
%ADD26RoundRect,0.250000X-1.550000X0.650000X-1.550000X-0.650000X1.550000X-0.650000X1.550000X0.650000X0*%
%ADD27O,3.600000X1.800000*%
%ADD28RoundRect,0.250000X-0.262500X-0.450000X0.262500X-0.450000X0.262500X0.450000X-0.262500X0.450000X0*%
%ADD29RoundRect,0.200000X-0.200000X-0.275000X0.200000X-0.275000X0.200000X0.275000X-0.200000X0.275000X0*%
%ADD30RoundRect,0.250000X-0.600000X-0.600000X0.600000X-0.600000X0.600000X0.600000X-0.600000X0.600000X0*%
%ADD31C,1.700000*%
%ADD32RoundRect,0.100000X-0.380070X-0.521491X0.521491X0.380070X0.380070X0.521491X-0.521491X-0.380070X0*%
%ADD33RotRect,2.150000X3.350000X45.000000*%
%ADD34RoundRect,0.200000X0.200000X0.275000X-0.200000X0.275000X-0.200000X-0.275000X0.200000X-0.275000X0*%
%ADD35RoundRect,0.150000X-0.587500X-0.150000X0.587500X-0.150000X0.587500X0.150000X-0.587500X0.150000X0*%
%ADD36RoundRect,0.250000X-0.450000X0.262500X-0.450000X-0.262500X0.450000X-0.262500X0.450000X0.262500X0*%
G04 APERTURE END LIST*
D10*
%TO.C,U4*%
X175700000Y-133100000D03*
X175900000Y-143850000D03*
X157500000Y-133023750D03*
X157500000Y-144000000D03*
%TD*%
D11*
%TO.C,J1*%
X191750000Y-99000000D03*
X189750000Y-99000000D03*
X187750000Y-99000000D03*
X185750000Y-99000000D03*
X183750000Y-99000000D03*
X181750000Y-99000000D03*
X179750000Y-99000000D03*
X177750000Y-99000000D03*
X175750000Y-99000000D03*
D12*
X173750000Y-99000000D03*
%TD*%
D13*
%TO.C,U2*%
X178050000Y-109130000D03*
X178050000Y-110400000D03*
X178050000Y-111670000D03*
X178050000Y-112940000D03*
X178050000Y-114210000D03*
X178050000Y-115480000D03*
X178050000Y-116750000D03*
X183000000Y-116750000D03*
X183000000Y-115480000D03*
X183000000Y-114210000D03*
X183000000Y-112940000D03*
X183000000Y-111670000D03*
X183000000Y-110400000D03*
X183000000Y-109130000D03*
%TD*%
D14*
%TO.C,REF\u002A\u002A*%
X181250000Y-137300000D03*
%TD*%
D15*
%TO.C,D4*%
X165500000Y-153684821D03*
X165500000Y-149384821D03*
%TD*%
D16*
%TO.C,RN2*%
X172470000Y-105000000D03*
D17*
X175010000Y-105000000D03*
X177550000Y-105000000D03*
X180090000Y-105000000D03*
X182630000Y-105000000D03*
X185170000Y-105000000D03*
X187710000Y-105000000D03*
X190250000Y-105000000D03*
X192790000Y-105000000D03*
%TD*%
D12*
%TO.C,J4*%
X205500000Y-135500000D03*
D11*
X207500000Y-135500000D03*
X209500000Y-135500000D03*
X211500000Y-135500000D03*
%TD*%
D18*
%TO.C,SW1*%
X192840000Y-154000000D03*
D17*
X195380000Y-154000000D03*
X197920000Y-154000000D03*
X200460000Y-154000000D03*
X203000000Y-154000000D03*
X205540000Y-154000000D03*
X208080000Y-154000000D03*
X210620000Y-154000000D03*
X210620000Y-146380000D03*
X208080000Y-146380000D03*
X205540000Y-146380000D03*
X203000000Y-146380000D03*
X200460000Y-146380000D03*
X197920000Y-146380000D03*
X195380000Y-146380000D03*
X192840000Y-146380000D03*
%TD*%
D19*
%TO.C,D2*%
X191108959Y-113870000D03*
X191710000Y-113268959D03*
X191710000Y-114471041D03*
X192311041Y-113870000D03*
%TD*%
D16*
%TO.C,RN1*%
X212000000Y-142500000D03*
D17*
X209460000Y-142500000D03*
X206920000Y-142500000D03*
X204380000Y-142500000D03*
X201840000Y-142500000D03*
X199300000Y-142500000D03*
X196760000Y-142500000D03*
X194220000Y-142500000D03*
X191680000Y-142500000D03*
%TD*%
D20*
%TO.C,J5*%
X158865000Y-150220000D03*
D21*
X158865000Y-152720000D03*
%TD*%
D22*
%TO.C,D1*%
X171250000Y-118900000D03*
X171250000Y-117000000D03*
X169375000Y-117950000D03*
%TD*%
D23*
%TO.C,C5*%
X183725000Y-141250000D03*
X185275000Y-141250000D03*
%TD*%
D24*
%TO.C,R6*%
X174000000Y-118912500D03*
X174000000Y-117087500D03*
%TD*%
D25*
%TO.C,C1*%
X184728008Y-131073008D03*
X183631992Y-129976992D03*
%TD*%
D26*
%TO.C,J2*%
X164000000Y-100260000D03*
D27*
X164000000Y-105340000D03*
X164000000Y-110420000D03*
X164000000Y-115500000D03*
X164000000Y-120580000D03*
X164000000Y-125660000D03*
%TD*%
D13*
%TO.C,U3*%
X182000000Y-144230000D03*
X182000000Y-145500000D03*
X182000000Y-146770000D03*
X182000000Y-148040000D03*
X182000000Y-149310000D03*
X182000000Y-150580000D03*
X182000000Y-151850000D03*
X182000000Y-153120000D03*
X186950000Y-153120000D03*
X186950000Y-151850000D03*
X186950000Y-150580000D03*
X186950000Y-149310000D03*
X186950000Y-148040000D03*
X186950000Y-146770000D03*
X186950000Y-145500000D03*
X186950000Y-144230000D03*
%TD*%
D12*
%TO.C,J6*%
X170750000Y-124950000D03*
D11*
X172750000Y-124950000D03*
X174750000Y-124950000D03*
X176750000Y-124950000D03*
%TD*%
D28*
%TO.C,R7*%
X199925000Y-137500000D03*
X201750000Y-137500000D03*
%TD*%
D23*
%TO.C,C3*%
X179475000Y-120000000D03*
X181025000Y-120000000D03*
%TD*%
D29*
%TO.C,R4*%
X180587500Y-124750000D03*
X182237500Y-124750000D03*
%TD*%
D30*
%TO.C,J3*%
X199960000Y-102140000D03*
D31*
X202500000Y-102140000D03*
X199960000Y-104680000D03*
X202500000Y-104680000D03*
X199960000Y-107220000D03*
X202500000Y-107220000D03*
X199960000Y-109760000D03*
X202500000Y-109760000D03*
X199960000Y-112300000D03*
X202500000Y-112300000D03*
X199960000Y-114840000D03*
X202500000Y-114840000D03*
X199960000Y-117380000D03*
X202500000Y-117380000D03*
X199960000Y-119920000D03*
X202500000Y-119920000D03*
X199960000Y-122460000D03*
X202500000Y-122460000D03*
X199960000Y-125000000D03*
X202500000Y-125000000D03*
%TD*%
D32*
%TO.C,U1*%
X184739542Y-123656583D03*
X185199161Y-124116203D03*
X185658781Y-124575822D03*
X186118400Y-125035442D03*
X186578019Y-125495061D03*
X187037639Y-125954681D03*
X187497258Y-126414300D03*
X187956878Y-126873919D03*
X188416497Y-127333539D03*
X188876117Y-127793158D03*
X192959658Y-123709617D03*
X192500039Y-123249997D03*
X192040419Y-122790378D03*
X191580800Y-122330758D03*
X191121181Y-121871139D03*
X190661561Y-121411519D03*
X190201942Y-120951900D03*
X189742322Y-120492281D03*
X189282703Y-120032661D03*
X188823083Y-119573042D03*
D33*
X188849600Y-123683100D03*
%TD*%
D34*
%TO.C,R1*%
X196525000Y-119390000D03*
X194875000Y-119390000D03*
%TD*%
D35*
%TO.C,D3*%
X171625000Y-108800000D03*
X171625000Y-110700000D03*
X173500000Y-109750000D03*
%TD*%
D28*
%TO.C,R8*%
X199925000Y-134500000D03*
X201750000Y-134500000D03*
%TD*%
D12*
%TO.C,J7*%
X188500000Y-135700000D03*
D11*
X190500000Y-135700000D03*
X192500000Y-135700000D03*
X194500000Y-135700000D03*
%TD*%
D36*
%TO.C,R5*%
X169250000Y-108837500D03*
X169250000Y-110662500D03*
%TD*%
D25*
%TO.C,C2*%
X186228008Y-129548008D03*
X185131992Y-128451992D03*
%TD*%
D14*
%TO.C,*%
X197000000Y-98950000D03*
%TD*%
%TO.C,*%
X169350000Y-99000000D03*
%TD*%
M02*
