%TF.GenerationSoftware,KiCad,Pcbnew,9.0.8+dfsg-1*%
%TF.CreationDate,2026-06-23T21:25:08+05:30*%
%TF.ProjectId,base_node,62617365-5f6e-46f6-9465-2e6b69636164,rev?*%
%TF.SameCoordinates,Original*%
%TF.FileFunction,Paste,Top*%
%TF.FilePolarity,Positive*%
%FSLAX46Y46*%
G04 Gerber Fmt 4.6, Leading zero omitted, Abs format (unit mm)*
G04 Created by KiCad (PCBNEW 9.0.8+dfsg-1) date 2026-06-23 21:25:08*
%MOMM*%
%LPD*%
G01*
G04 APERTURE LIST*
G04 Aperture macros list*
%AMRoundRect*
0 Rectangle with rounded corners*
0 $1 Rounding radius*
0 $2 $3 $4 $5 $6 $7 $8 $9 X,Y pos of 4 corners*
0 Add a 4 corners polygon primitive as box body*
4,1,4,$2,$3,$4,$5,$6,$7,$8,$9,$2,$3,0*
0 Add four circle primitives for the rounded corners*
1,1,$1+$1,$2,$3*
1,1,$1+$1,$4,$5*
1,1,$1+$1,$6,$7*
1,1,$1+$1,$8,$9*
0 Add four rect primitives between the rounded corners*
20,1,$1+$1,$2,$3,$4,$5,0*
20,1,$1+$1,$4,$5,$6,$7,0*
20,1,$1+$1,$6,$7,$8,$9,0*
20,1,$1+$1,$8,$9,$2,$3,0*%
%AMRotRect*
0 Rectangle, with rotation*
0 The origin of the aperture is its center*
0 $1 length*
0 $2 width*
0 $3 Rotation angle, in degrees counterclockwise*
0 Add horizontal line*
21,1,$1,$2,0,0,$3*%
G04 Aperture macros list end*
%ADD10RoundRect,0.345000X-0.805000X2.005000X-0.805000X-2.005000X0.805000X-2.005000X0.805000X2.005000X0*%
%ADD11RoundRect,0.150000X-0.825000X-0.150000X0.825000X-0.150000X0.825000X0.150000X-0.825000X0.150000X0*%
%ADD12RoundRect,0.250000X0.900000X-1.000000X0.900000X1.000000X-0.900000X1.000000X-0.900000X-1.000000X0*%
%ADD13RotRect,0.450000X0.450000X45.000000*%
%ADD14RoundRect,0.150000X0.587500X0.150000X-0.587500X0.150000X-0.587500X-0.150000X0.587500X-0.150000X0*%
%ADD15RoundRect,0.225000X-0.225000X-0.250000X0.225000X-0.250000X0.225000X0.250000X-0.225000X0.250000X0*%
%ADD16RoundRect,0.250000X0.450000X-0.262500X0.450000X0.262500X-0.450000X0.262500X-0.450000X-0.262500X0*%
%ADD17RoundRect,0.225000X0.335876X0.017678X0.017678X0.335876X-0.335876X-0.017678X-0.017678X-0.335876X0*%
%ADD18RoundRect,0.250000X-0.262500X-0.450000X0.262500X-0.450000X0.262500X0.450000X-0.262500X0.450000X0*%
%ADD19RoundRect,0.200000X-0.200000X-0.275000X0.200000X-0.275000X0.200000X0.275000X-0.200000X0.275000X0*%
%ADD20RoundRect,0.217500X0.169706X-0.477297X0.477297X-0.169706X-0.169706X0.477297X-0.477297X0.169706X0*%
%ADD21RoundRect,0.100000X-0.380070X-0.521491X0.521491X0.380070X0.380070X0.521491X-0.521491X-0.380070X0*%
%ADD22RoundRect,0.200000X0.200000X0.275000X-0.200000X0.275000X-0.200000X-0.275000X0.200000X-0.275000X0*%
%ADD23RoundRect,0.150000X-0.587500X-0.150000X0.587500X-0.150000X0.587500X0.150000X-0.587500X0.150000X0*%
%ADD24RoundRect,0.250000X-0.450000X0.262500X-0.450000X-0.262500X0.450000X-0.262500X0.450000X0.262500X0*%
G04 APERTURE END LIST*
D10*
%TO.C,U4*%
X175700000Y-133100000D03*
X175900000Y-143850000D03*
X157500000Y-133023750D03*
X157500000Y-144000000D03*
%TD*%
D11*
%TO.C,U2*%
X178050000Y-109130000D03*
X178050000Y-110400000D03*
X178050000Y-111670000D03*
X178050000Y-112940000D03*
X178050000Y-114210000D03*
X178050000Y-115480000D03*
X178050000Y-116750000D03*
X183000000Y-116750000D03*
X183000000Y-115480000D03*
X183000000Y-114210000D03*
X183000000Y-112940000D03*
X183000000Y-111670000D03*
X183000000Y-110400000D03*
X183000000Y-109130000D03*
%TD*%
D12*
%TO.C,D4*%
X165500000Y-153684821D03*
X165500000Y-149384821D03*
%TD*%
D13*
%TO.C,D2*%
X191108959Y-113870000D03*
X191710000Y-113268959D03*
X191710000Y-114471041D03*
X192311041Y-113870000D03*
%TD*%
D14*
%TO.C,D1*%
X171250000Y-118900000D03*
X171250000Y-117000000D03*
X169375000Y-117950000D03*
%TD*%
D15*
%TO.C,C5*%
X183725000Y-141250000D03*
X185275000Y-141250000D03*
%TD*%
D16*
%TO.C,R6*%
X174000000Y-118912500D03*
X174000000Y-117087500D03*
%TD*%
D17*
%TO.C,C1*%
X184728008Y-131073008D03*
X183631992Y-129976992D03*
%TD*%
D11*
%TO.C,U3*%
X182000000Y-144230000D03*
X182000000Y-145500000D03*
X182000000Y-146770000D03*
X182000000Y-148040000D03*
X182000000Y-149310000D03*
X182000000Y-150580000D03*
X182000000Y-151850000D03*
X182000000Y-153120000D03*
X186950000Y-153120000D03*
X186950000Y-151850000D03*
X186950000Y-150580000D03*
X186950000Y-149310000D03*
X186950000Y-148040000D03*
X186950000Y-146770000D03*
X186950000Y-145500000D03*
X186950000Y-144230000D03*
%TD*%
D18*
%TO.C,R7*%
X199925000Y-137500000D03*
X201750000Y-137500000D03*
%TD*%
D15*
%TO.C,C3*%
X179475000Y-120000000D03*
X181025000Y-120000000D03*
%TD*%
D19*
%TO.C,R4*%
X180587500Y-124750000D03*
X182237500Y-124750000D03*
%TD*%
D20*
%TO.C,U1*%
X187873793Y-123470968D03*
X189061732Y-124658907D03*
X188637468Y-122707293D03*
X189825407Y-123895232D03*
D21*
X184739542Y-123656583D03*
X185199161Y-124116203D03*
X185658781Y-124575822D03*
X186118400Y-125035442D03*
X186578019Y-125495061D03*
X187037639Y-125954681D03*
X187497258Y-126414300D03*
X187956878Y-126873919D03*
X188416497Y-127333539D03*
X188876117Y-127793158D03*
X192959658Y-123709617D03*
X192500039Y-123249997D03*
X192040419Y-122790378D03*
X191580800Y-122330758D03*
X191121181Y-121871139D03*
X190661561Y-121411519D03*
X190201942Y-120951900D03*
X189742322Y-120492281D03*
X189282703Y-120032661D03*
X188823083Y-119573042D03*
%TD*%
D22*
%TO.C,R1*%
X196525000Y-119390000D03*
X194875000Y-119390000D03*
%TD*%
D23*
%TO.C,D3*%
X171625000Y-108800000D03*
X171625000Y-110700000D03*
X173500000Y-109750000D03*
%TD*%
D18*
%TO.C,R8*%
X199925000Y-134500000D03*
X201750000Y-134500000D03*
%TD*%
D24*
%TO.C,R5*%
X169250000Y-108837500D03*
X169250000Y-110662500D03*
%TD*%
D17*
%TO.C,C2*%
X186228008Y-129548008D03*
X185131992Y-128451992D03*
%TD*%
M02*
