%TF.GenerationSoftware,KiCad,Pcbnew,9.0.8+dfsg-1*%
%TF.CreationDate,2026-06-23T21:25:11+05:30*%
%TF.ProjectId,base_node,62617365-5f6e-46f6-9465-2e6b69636164,rev?*%
%TF.SameCoordinates,Original*%
%TF.FileFunction,AssemblyDrawing,Bot*%
%FSLAX46Y46*%
G04 Gerber Fmt 4.6, Leading zero omitted, Abs format (unit mm)*
G04 Created by KiCad (PCBNEW 9.0.8+dfsg-1) date 2026-06-23 21:25:11*
%MOMM*%
%LPD*%
G01*
G04 APERTURE LIST*
%ADD10C,0.150000*%
G04 APERTURE END LIST*
D10*
X190369047Y-140904819D02*
X190369047Y-139904819D01*
X190369047Y-139904819D02*
X190035714Y-140619104D01*
X190035714Y-140619104D02*
X189702381Y-139904819D01*
X189702381Y-139904819D02*
X189702381Y-140904819D01*
X189083333Y-140904819D02*
X189178571Y-140857200D01*
X189178571Y-140857200D02*
X189226190Y-140809580D01*
X189226190Y-140809580D02*
X189273809Y-140714342D01*
X189273809Y-140714342D02*
X189273809Y-140428628D01*
X189273809Y-140428628D02*
X189226190Y-140333390D01*
X189226190Y-140333390D02*
X189178571Y-140285771D01*
X189178571Y-140285771D02*
X189083333Y-140238152D01*
X189083333Y-140238152D02*
X188940476Y-140238152D01*
X188940476Y-140238152D02*
X188845238Y-140285771D01*
X188845238Y-140285771D02*
X188797619Y-140333390D01*
X188797619Y-140333390D02*
X188750000Y-140428628D01*
X188750000Y-140428628D02*
X188750000Y-140714342D01*
X188750000Y-140714342D02*
X188797619Y-140809580D01*
X188797619Y-140809580D02*
X188845238Y-140857200D01*
X188845238Y-140857200D02*
X188940476Y-140904819D01*
X188940476Y-140904819D02*
X189083333Y-140904819D01*
X187892857Y-140238152D02*
X187892857Y-140904819D01*
X188321428Y-140238152D02*
X188321428Y-140761961D01*
X188321428Y-140761961D02*
X188273809Y-140857200D01*
X188273809Y-140857200D02*
X188178571Y-140904819D01*
X188178571Y-140904819D02*
X188035714Y-140904819D01*
X188035714Y-140904819D02*
X187940476Y-140857200D01*
X187940476Y-140857200D02*
X187892857Y-140809580D01*
X187416666Y-140238152D02*
X187416666Y-140904819D01*
X187416666Y-140333390D02*
X187369047Y-140285771D01*
X187369047Y-140285771D02*
X187273809Y-140238152D01*
X187273809Y-140238152D02*
X187130952Y-140238152D01*
X187130952Y-140238152D02*
X187035714Y-140285771D01*
X187035714Y-140285771D02*
X186988095Y-140381009D01*
X186988095Y-140381009D02*
X186988095Y-140904819D01*
X186654761Y-140238152D02*
X186273809Y-140238152D01*
X186511904Y-139904819D02*
X186511904Y-140761961D01*
X186511904Y-140761961D02*
X186464285Y-140857200D01*
X186464285Y-140857200D02*
X186369047Y-140904819D01*
X186369047Y-140904819D02*
X186273809Y-140904819D01*
X185940475Y-140904819D02*
X185940475Y-140238152D01*
X185940475Y-139904819D02*
X185988094Y-139952438D01*
X185988094Y-139952438D02*
X185940475Y-140000057D01*
X185940475Y-140000057D02*
X185892856Y-139952438D01*
X185892856Y-139952438D02*
X185940475Y-139904819D01*
X185940475Y-139904819D02*
X185940475Y-140000057D01*
X185464285Y-140238152D02*
X185464285Y-140904819D01*
X185464285Y-140333390D02*
X185416666Y-140285771D01*
X185416666Y-140285771D02*
X185321428Y-140238152D01*
X185321428Y-140238152D02*
X185178571Y-140238152D01*
X185178571Y-140238152D02*
X185083333Y-140285771D01*
X185083333Y-140285771D02*
X185035714Y-140381009D01*
X185035714Y-140381009D02*
X185035714Y-140904819D01*
X184130952Y-140238152D02*
X184130952Y-141047676D01*
X184130952Y-141047676D02*
X184178571Y-141142914D01*
X184178571Y-141142914D02*
X184226190Y-141190533D01*
X184226190Y-141190533D02*
X184321428Y-141238152D01*
X184321428Y-141238152D02*
X184464285Y-141238152D01*
X184464285Y-141238152D02*
X184559523Y-141190533D01*
X184130952Y-140857200D02*
X184226190Y-140904819D01*
X184226190Y-140904819D02*
X184416666Y-140904819D01*
X184416666Y-140904819D02*
X184511904Y-140857200D01*
X184511904Y-140857200D02*
X184559523Y-140809580D01*
X184559523Y-140809580D02*
X184607142Y-140714342D01*
X184607142Y-140714342D02*
X184607142Y-140428628D01*
X184607142Y-140428628D02*
X184559523Y-140333390D01*
X184559523Y-140333390D02*
X184511904Y-140285771D01*
X184511904Y-140285771D02*
X184416666Y-140238152D01*
X184416666Y-140238152D02*
X184226190Y-140238152D01*
X184226190Y-140238152D02*
X184130952Y-140285771D01*
X183654761Y-140904819D02*
X183654761Y-139904819D01*
X183654761Y-140381009D02*
X183083333Y-140381009D01*
X183083333Y-140904819D02*
X183083333Y-139904819D01*
X182464285Y-140904819D02*
X182559523Y-140857200D01*
X182559523Y-140857200D02*
X182607142Y-140809580D01*
X182607142Y-140809580D02*
X182654761Y-140714342D01*
X182654761Y-140714342D02*
X182654761Y-140428628D01*
X182654761Y-140428628D02*
X182607142Y-140333390D01*
X182607142Y-140333390D02*
X182559523Y-140285771D01*
X182559523Y-140285771D02*
X182464285Y-140238152D01*
X182464285Y-140238152D02*
X182321428Y-140238152D01*
X182321428Y-140238152D02*
X182226190Y-140285771D01*
X182226190Y-140285771D02*
X182178571Y-140333390D01*
X182178571Y-140333390D02*
X182130952Y-140428628D01*
X182130952Y-140428628D02*
X182130952Y-140714342D01*
X182130952Y-140714342D02*
X182178571Y-140809580D01*
X182178571Y-140809580D02*
X182226190Y-140857200D01*
X182226190Y-140857200D02*
X182321428Y-140904819D01*
X182321428Y-140904819D02*
X182464285Y-140904819D01*
X181559523Y-140904819D02*
X181654761Y-140857200D01*
X181654761Y-140857200D02*
X181702380Y-140761961D01*
X181702380Y-140761961D02*
X181702380Y-139904819D01*
X180797618Y-140857200D02*
X180892856Y-140904819D01*
X180892856Y-140904819D02*
X181083332Y-140904819D01*
X181083332Y-140904819D02*
X181178570Y-140857200D01*
X181178570Y-140857200D02*
X181226189Y-140761961D01*
X181226189Y-140761961D02*
X181226189Y-140381009D01*
X181226189Y-140381009D02*
X181178570Y-140285771D01*
X181178570Y-140285771D02*
X181083332Y-140238152D01*
X181083332Y-140238152D02*
X180892856Y-140238152D01*
X180892856Y-140238152D02*
X180797618Y-140285771D01*
X180797618Y-140285771D02*
X180749999Y-140381009D01*
X180749999Y-140381009D02*
X180749999Y-140476247D01*
X180749999Y-140476247D02*
X181226189Y-140571485D01*
X180559523Y-141000057D02*
X179797618Y-141000057D01*
X179607141Y-140000057D02*
X179559522Y-139952438D01*
X179559522Y-139952438D02*
X179464284Y-139904819D01*
X179464284Y-139904819D02*
X179226189Y-139904819D01*
X179226189Y-139904819D02*
X179130951Y-139952438D01*
X179130951Y-139952438D02*
X179083332Y-140000057D01*
X179083332Y-140000057D02*
X179035713Y-140095295D01*
X179035713Y-140095295D02*
X179035713Y-140190533D01*
X179035713Y-140190533D02*
X179083332Y-140333390D01*
X179083332Y-140333390D02*
X179654760Y-140904819D01*
X179654760Y-140904819D02*
X179035713Y-140904819D01*
X178607141Y-140809580D02*
X178559522Y-140857200D01*
X178559522Y-140857200D02*
X178607141Y-140904819D01*
X178607141Y-140904819D02*
X178654760Y-140857200D01*
X178654760Y-140857200D02*
X178607141Y-140809580D01*
X178607141Y-140809580D02*
X178607141Y-140904819D01*
X178178570Y-140000057D02*
X178130951Y-139952438D01*
X178130951Y-139952438D02*
X178035713Y-139904819D01*
X178035713Y-139904819D02*
X177797618Y-139904819D01*
X177797618Y-139904819D02*
X177702380Y-139952438D01*
X177702380Y-139952438D02*
X177654761Y-140000057D01*
X177654761Y-140000057D02*
X177607142Y-140095295D01*
X177607142Y-140095295D02*
X177607142Y-140190533D01*
X177607142Y-140190533D02*
X177654761Y-140333390D01*
X177654761Y-140333390D02*
X178226189Y-140904819D01*
X178226189Y-140904819D02*
X177607142Y-140904819D01*
X177178570Y-140904819D02*
X177178570Y-140238152D01*
X177178570Y-140333390D02*
X177130951Y-140285771D01*
X177130951Y-140285771D02*
X177035713Y-140238152D01*
X177035713Y-140238152D02*
X176892856Y-140238152D01*
X176892856Y-140238152D02*
X176797618Y-140285771D01*
X176797618Y-140285771D02*
X176749999Y-140381009D01*
X176749999Y-140381009D02*
X176749999Y-140904819D01*
X176749999Y-140381009D02*
X176702380Y-140285771D01*
X176702380Y-140285771D02*
X176607142Y-140238152D01*
X176607142Y-140238152D02*
X176464285Y-140238152D01*
X176464285Y-140238152D02*
X176369046Y-140285771D01*
X176369046Y-140285771D02*
X176321427Y-140381009D01*
X176321427Y-140381009D02*
X176321427Y-140904819D01*
X175845237Y-140904819D02*
X175845237Y-140238152D01*
X175845237Y-140333390D02*
X175797618Y-140285771D01*
X175797618Y-140285771D02*
X175702380Y-140238152D01*
X175702380Y-140238152D02*
X175559523Y-140238152D01*
X175559523Y-140238152D02*
X175464285Y-140285771D01*
X175464285Y-140285771D02*
X175416666Y-140381009D01*
X175416666Y-140381009D02*
X175416666Y-140904819D01*
X175416666Y-140381009D02*
X175369047Y-140285771D01*
X175369047Y-140285771D02*
X175273809Y-140238152D01*
X175273809Y-140238152D02*
X175130952Y-140238152D01*
X175130952Y-140238152D02*
X175035713Y-140285771D01*
X175035713Y-140285771D02*
X174988094Y-140381009D01*
X174988094Y-140381009D02*
X174988094Y-140904819D01*
X174750000Y-141000057D02*
X173988095Y-141000057D01*
X173749999Y-140904819D02*
X173749999Y-139904819D01*
X173749999Y-139904819D02*
X173416666Y-140619104D01*
X173416666Y-140619104D02*
X173083333Y-139904819D01*
X173083333Y-139904819D02*
X173083333Y-140904819D01*
X172654761Y-140000057D02*
X172607142Y-139952438D01*
X172607142Y-139952438D02*
X172511904Y-139904819D01*
X172511904Y-139904819D02*
X172273809Y-139904819D01*
X172273809Y-139904819D02*
X172178571Y-139952438D01*
X172178571Y-139952438D02*
X172130952Y-140000057D01*
X172130952Y-140000057D02*
X172083333Y-140095295D01*
X172083333Y-140095295D02*
X172083333Y-140190533D01*
X172083333Y-140190533D02*
X172130952Y-140333390D01*
X172130952Y-140333390D02*
X172702380Y-140904819D01*
X172702380Y-140904819D02*
X172083333Y-140904819D01*
X182583333Y-137754819D02*
X182916666Y-137278628D01*
X183154761Y-137754819D02*
X183154761Y-136754819D01*
X183154761Y-136754819D02*
X182773809Y-136754819D01*
X182773809Y-136754819D02*
X182678571Y-136802438D01*
X182678571Y-136802438D02*
X182630952Y-136850057D01*
X182630952Y-136850057D02*
X182583333Y-136945295D01*
X182583333Y-136945295D02*
X182583333Y-137088152D01*
X182583333Y-137088152D02*
X182630952Y-137183390D01*
X182630952Y-137183390D02*
X182678571Y-137231009D01*
X182678571Y-137231009D02*
X182773809Y-137278628D01*
X182773809Y-137278628D02*
X183154761Y-137278628D01*
X182154761Y-137231009D02*
X181821428Y-137231009D01*
X181678571Y-137754819D02*
X182154761Y-137754819D01*
X182154761Y-137754819D02*
X182154761Y-136754819D01*
X182154761Y-136754819D02*
X181678571Y-136754819D01*
X180916666Y-137231009D02*
X181249999Y-137231009D01*
X181249999Y-137754819D02*
X181249999Y-136754819D01*
X181249999Y-136754819D02*
X180773809Y-136754819D01*
X180249999Y-136754819D02*
X180249999Y-136992914D01*
X180488094Y-136897676D02*
X180249999Y-136992914D01*
X180249999Y-136992914D02*
X180011904Y-136897676D01*
X180392856Y-137183390D02*
X180249999Y-136992914D01*
X180249999Y-136992914D02*
X180107142Y-137183390D01*
X179488094Y-136754819D02*
X179488094Y-136992914D01*
X179726189Y-136897676D02*
X179488094Y-136992914D01*
X179488094Y-136992914D02*
X179249999Y-136897676D01*
X179630951Y-137183390D02*
X179488094Y-136992914D01*
X179488094Y-136992914D02*
X179345237Y-137183390D01*
M02*
