%TF.GenerationSoftware,KiCad,Pcbnew,9.0.8+dfsg-1*%
%TF.CreationDate,2026-06-23T21:25:09+05:30*%
%TF.ProjectId,base_node,62617365-5f6e-46f6-9465-2e6b69636164,rev?*%
%TF.SameCoordinates,Original*%
%TF.FileFunction,Legend,Bot*%
%TF.FilePolarity,Positive*%
%FSLAX46Y46*%
G04 Gerber Fmt 4.6, Leading zero omitted, Abs format (unit mm)*
G04 Created by KiCad (PCBNEW 9.0.8+dfsg-1) date 2026-06-23 21:25:09*
%MOMM*%
%LPD*%
G01*
G04 APERTURE LIST*
%ADD10C,0.187500*%
%ADD11C,0.150000*%
%ADD12C,0.250000*%
%ADD13C,0.300000*%
%ADD14C,0.010000*%
G04 APERTURE END LIST*
D10*
X173603487Y-133184782D02*
X173603487Y-131684782D01*
X173603487Y-132399068D02*
X172746344Y-132399068D01*
X172746344Y-133184782D02*
X172746344Y-131684782D01*
X171817772Y-133184782D02*
X171960629Y-133113354D01*
X171960629Y-133113354D02*
X172032058Y-133041925D01*
X172032058Y-133041925D02*
X172103486Y-132899068D01*
X172103486Y-132899068D02*
X172103486Y-132470496D01*
X172103486Y-132470496D02*
X172032058Y-132327639D01*
X172032058Y-132327639D02*
X171960629Y-132256211D01*
X171960629Y-132256211D02*
X171817772Y-132184782D01*
X171817772Y-132184782D02*
X171603486Y-132184782D01*
X171603486Y-132184782D02*
X171460629Y-132256211D01*
X171460629Y-132256211D02*
X171389201Y-132327639D01*
X171389201Y-132327639D02*
X171317772Y-132470496D01*
X171317772Y-132470496D02*
X171317772Y-132899068D01*
X171317772Y-132899068D02*
X171389201Y-133041925D01*
X171389201Y-133041925D02*
X171460629Y-133113354D01*
X171460629Y-133113354D02*
X171603486Y-133184782D01*
X171603486Y-133184782D02*
X171817772Y-133184782D01*
X170674915Y-133184782D02*
X170674915Y-132184782D01*
X170674915Y-132327639D02*
X170603486Y-132256211D01*
X170603486Y-132256211D02*
X170460629Y-132184782D01*
X170460629Y-132184782D02*
X170246343Y-132184782D01*
X170246343Y-132184782D02*
X170103486Y-132256211D01*
X170103486Y-132256211D02*
X170032058Y-132399068D01*
X170032058Y-132399068D02*
X170032058Y-133184782D01*
X170032058Y-132399068D02*
X169960629Y-132256211D01*
X169960629Y-132256211D02*
X169817772Y-132184782D01*
X169817772Y-132184782D02*
X169603486Y-132184782D01*
X169603486Y-132184782D02*
X169460629Y-132256211D01*
X169460629Y-132256211D02*
X169389200Y-132399068D01*
X169389200Y-132399068D02*
X169389200Y-133184782D01*
X168103486Y-133113354D02*
X168246343Y-133184782D01*
X168246343Y-133184782D02*
X168532058Y-133184782D01*
X168532058Y-133184782D02*
X168674915Y-133113354D01*
X168674915Y-133113354D02*
X168746343Y-132970496D01*
X168746343Y-132970496D02*
X168746343Y-132399068D01*
X168746343Y-132399068D02*
X168674915Y-132256211D01*
X168674915Y-132256211D02*
X168532058Y-132184782D01*
X168532058Y-132184782D02*
X168246343Y-132184782D01*
X168246343Y-132184782D02*
X168103486Y-132256211D01*
X168103486Y-132256211D02*
X168032058Y-132399068D01*
X168032058Y-132399068D02*
X168032058Y-132541925D01*
X168032058Y-132541925D02*
X168746343Y-132684782D01*
X166889201Y-132399068D02*
X166674915Y-132470496D01*
X166674915Y-132470496D02*
X166603486Y-132541925D01*
X166603486Y-132541925D02*
X166532058Y-132684782D01*
X166532058Y-132684782D02*
X166532058Y-132899068D01*
X166532058Y-132899068D02*
X166603486Y-133041925D01*
X166603486Y-133041925D02*
X166674915Y-133113354D01*
X166674915Y-133113354D02*
X166817772Y-133184782D01*
X166817772Y-133184782D02*
X167389201Y-133184782D01*
X167389201Y-133184782D02*
X167389201Y-131684782D01*
X167389201Y-131684782D02*
X166889201Y-131684782D01*
X166889201Y-131684782D02*
X166746344Y-131756211D01*
X166746344Y-131756211D02*
X166674915Y-131827639D01*
X166674915Y-131827639D02*
X166603486Y-131970496D01*
X166603486Y-131970496D02*
X166603486Y-132113354D01*
X166603486Y-132113354D02*
X166674915Y-132256211D01*
X166674915Y-132256211D02*
X166746344Y-132327639D01*
X166746344Y-132327639D02*
X166889201Y-132399068D01*
X166889201Y-132399068D02*
X167389201Y-132399068D01*
X165246344Y-132184782D02*
X165246344Y-133184782D01*
X165889201Y-132184782D02*
X165889201Y-132970496D01*
X165889201Y-132970496D02*
X165817772Y-133113354D01*
X165817772Y-133113354D02*
X165674915Y-133184782D01*
X165674915Y-133184782D02*
X165460629Y-133184782D01*
X165460629Y-133184782D02*
X165317772Y-133113354D01*
X165317772Y-133113354D02*
X165246344Y-133041925D01*
X164603486Y-133113354D02*
X164460629Y-133184782D01*
X164460629Y-133184782D02*
X164174915Y-133184782D01*
X164174915Y-133184782D02*
X164032058Y-133113354D01*
X164032058Y-133113354D02*
X163960629Y-132970496D01*
X163960629Y-132970496D02*
X163960629Y-132899068D01*
X163960629Y-132899068D02*
X164032058Y-132756211D01*
X164032058Y-132756211D02*
X164174915Y-132684782D01*
X164174915Y-132684782D02*
X164389201Y-132684782D01*
X164389201Y-132684782D02*
X164532058Y-132613354D01*
X164532058Y-132613354D02*
X164603486Y-132470496D01*
X164603486Y-132470496D02*
X164603486Y-132399068D01*
X164603486Y-132399068D02*
X164532058Y-132256211D01*
X164532058Y-132256211D02*
X164389201Y-132184782D01*
X164389201Y-132184782D02*
X164174915Y-132184782D01*
X164174915Y-132184782D02*
X164032058Y-132256211D01*
X173996344Y-134813984D02*
X173782058Y-134885412D01*
X173782058Y-134885412D02*
X173710629Y-134956841D01*
X173710629Y-134956841D02*
X173639201Y-135099698D01*
X173639201Y-135099698D02*
X173639201Y-135313984D01*
X173639201Y-135313984D02*
X173710629Y-135456841D01*
X173710629Y-135456841D02*
X173782058Y-135528270D01*
X173782058Y-135528270D02*
X173924915Y-135599698D01*
X173924915Y-135599698D02*
X174496344Y-135599698D01*
X174496344Y-135599698D02*
X174496344Y-134099698D01*
X174496344Y-134099698D02*
X173996344Y-134099698D01*
X173996344Y-134099698D02*
X173853487Y-134171127D01*
X173853487Y-134171127D02*
X173782058Y-134242555D01*
X173782058Y-134242555D02*
X173710629Y-134385412D01*
X173710629Y-134385412D02*
X173710629Y-134528270D01*
X173710629Y-134528270D02*
X173782058Y-134671127D01*
X173782058Y-134671127D02*
X173853487Y-134742555D01*
X173853487Y-134742555D02*
X173996344Y-134813984D01*
X173996344Y-134813984D02*
X174496344Y-134813984D01*
X172353487Y-135599698D02*
X172353487Y-134813984D01*
X172353487Y-134813984D02*
X172424915Y-134671127D01*
X172424915Y-134671127D02*
X172567772Y-134599698D01*
X172567772Y-134599698D02*
X172853487Y-134599698D01*
X172853487Y-134599698D02*
X172996344Y-134671127D01*
X172353487Y-135528270D02*
X172496344Y-135599698D01*
X172496344Y-135599698D02*
X172853487Y-135599698D01*
X172853487Y-135599698D02*
X172996344Y-135528270D01*
X172996344Y-135528270D02*
X173067772Y-135385412D01*
X173067772Y-135385412D02*
X173067772Y-135242555D01*
X173067772Y-135242555D02*
X172996344Y-135099698D01*
X172996344Y-135099698D02*
X172853487Y-135028270D01*
X172853487Y-135028270D02*
X172496344Y-135028270D01*
X172496344Y-135028270D02*
X172353487Y-134956841D01*
X171710629Y-135528270D02*
X171567772Y-135599698D01*
X171567772Y-135599698D02*
X171282058Y-135599698D01*
X171282058Y-135599698D02*
X171139201Y-135528270D01*
X171139201Y-135528270D02*
X171067772Y-135385412D01*
X171067772Y-135385412D02*
X171067772Y-135313984D01*
X171067772Y-135313984D02*
X171139201Y-135171127D01*
X171139201Y-135171127D02*
X171282058Y-135099698D01*
X171282058Y-135099698D02*
X171496344Y-135099698D01*
X171496344Y-135099698D02*
X171639201Y-135028270D01*
X171639201Y-135028270D02*
X171710629Y-134885412D01*
X171710629Y-134885412D02*
X171710629Y-134813984D01*
X171710629Y-134813984D02*
X171639201Y-134671127D01*
X171639201Y-134671127D02*
X171496344Y-134599698D01*
X171496344Y-134599698D02*
X171282058Y-134599698D01*
X171282058Y-134599698D02*
X171139201Y-134671127D01*
X169853486Y-135528270D02*
X169996343Y-135599698D01*
X169996343Y-135599698D02*
X170282058Y-135599698D01*
X170282058Y-135599698D02*
X170424915Y-135528270D01*
X170424915Y-135528270D02*
X170496343Y-135385412D01*
X170496343Y-135385412D02*
X170496343Y-134813984D01*
X170496343Y-134813984D02*
X170424915Y-134671127D01*
X170424915Y-134671127D02*
X170282058Y-134599698D01*
X170282058Y-134599698D02*
X169996343Y-134599698D01*
X169996343Y-134599698D02*
X169853486Y-134671127D01*
X169853486Y-134671127D02*
X169782058Y-134813984D01*
X169782058Y-134813984D02*
X169782058Y-134956841D01*
X169782058Y-134956841D02*
X170496343Y-135099698D01*
X167996344Y-135599698D02*
X167996344Y-134099698D01*
X167996344Y-134099698D02*
X167139201Y-135599698D01*
X167139201Y-135599698D02*
X167139201Y-134099698D01*
X166210629Y-135599698D02*
X166353486Y-135528270D01*
X166353486Y-135528270D02*
X166424915Y-135456841D01*
X166424915Y-135456841D02*
X166496343Y-135313984D01*
X166496343Y-135313984D02*
X166496343Y-134885412D01*
X166496343Y-134885412D02*
X166424915Y-134742555D01*
X166424915Y-134742555D02*
X166353486Y-134671127D01*
X166353486Y-134671127D02*
X166210629Y-134599698D01*
X166210629Y-134599698D02*
X165996343Y-134599698D01*
X165996343Y-134599698D02*
X165853486Y-134671127D01*
X165853486Y-134671127D02*
X165782058Y-134742555D01*
X165782058Y-134742555D02*
X165710629Y-134885412D01*
X165710629Y-134885412D02*
X165710629Y-135313984D01*
X165710629Y-135313984D02*
X165782058Y-135456841D01*
X165782058Y-135456841D02*
X165853486Y-135528270D01*
X165853486Y-135528270D02*
X165996343Y-135599698D01*
X165996343Y-135599698D02*
X166210629Y-135599698D01*
X164424915Y-135599698D02*
X164424915Y-134099698D01*
X164424915Y-135528270D02*
X164567772Y-135599698D01*
X164567772Y-135599698D02*
X164853486Y-135599698D01*
X164853486Y-135599698D02*
X164996343Y-135528270D01*
X164996343Y-135528270D02*
X165067772Y-135456841D01*
X165067772Y-135456841D02*
X165139200Y-135313984D01*
X165139200Y-135313984D02*
X165139200Y-134885412D01*
X165139200Y-134885412D02*
X165067772Y-134742555D01*
X165067772Y-134742555D02*
X164996343Y-134671127D01*
X164996343Y-134671127D02*
X164853486Y-134599698D01*
X164853486Y-134599698D02*
X164567772Y-134599698D01*
X164567772Y-134599698D02*
X164424915Y-134671127D01*
X163139200Y-135528270D02*
X163282057Y-135599698D01*
X163282057Y-135599698D02*
X163567772Y-135599698D01*
X163567772Y-135599698D02*
X163710629Y-135528270D01*
X163710629Y-135528270D02*
X163782057Y-135385412D01*
X163782057Y-135385412D02*
X163782057Y-134813984D01*
X163782057Y-134813984D02*
X163710629Y-134671127D01*
X163710629Y-134671127D02*
X163567772Y-134599698D01*
X163567772Y-134599698D02*
X163282057Y-134599698D01*
X163282057Y-134599698D02*
X163139200Y-134671127D01*
X163139200Y-134671127D02*
X163067772Y-134813984D01*
X163067772Y-134813984D02*
X163067772Y-134956841D01*
X163067772Y-134956841D02*
X163782057Y-135099698D01*
X171103486Y-136514614D02*
X170603486Y-138014614D01*
X170603486Y-138014614D02*
X170103486Y-136514614D01*
X168817772Y-138014614D02*
X169674915Y-138014614D01*
X169246344Y-138014614D02*
X169246344Y-136514614D01*
X169246344Y-136514614D02*
X169389201Y-136728900D01*
X169389201Y-136728900D02*
X169532058Y-136871757D01*
X169532058Y-136871757D02*
X169674915Y-136943186D01*
X168174916Y-137871757D02*
X168103487Y-137943186D01*
X168103487Y-137943186D02*
X168174916Y-138014614D01*
X168174916Y-138014614D02*
X168246344Y-137943186D01*
X168246344Y-137943186D02*
X168174916Y-137871757D01*
X168174916Y-137871757D02*
X168174916Y-138014614D01*
X167174915Y-136514614D02*
X167032058Y-136514614D01*
X167032058Y-136514614D02*
X166889201Y-136586043D01*
X166889201Y-136586043D02*
X166817773Y-136657471D01*
X166817773Y-136657471D02*
X166746344Y-136800328D01*
X166746344Y-136800328D02*
X166674915Y-137086043D01*
X166674915Y-137086043D02*
X166674915Y-137443186D01*
X166674915Y-137443186D02*
X166746344Y-137728900D01*
X166746344Y-137728900D02*
X166817773Y-137871757D01*
X166817773Y-137871757D02*
X166889201Y-137943186D01*
X166889201Y-137943186D02*
X167032058Y-138014614D01*
X167032058Y-138014614D02*
X167174915Y-138014614D01*
X167174915Y-138014614D02*
X167317773Y-137943186D01*
X167317773Y-137943186D02*
X167389201Y-137871757D01*
X167389201Y-137871757D02*
X167460630Y-137728900D01*
X167460630Y-137728900D02*
X167532058Y-137443186D01*
X167532058Y-137443186D02*
X167532058Y-137086043D01*
X167532058Y-137086043D02*
X167460630Y-136800328D01*
X167460630Y-136800328D02*
X167389201Y-136657471D01*
X167389201Y-136657471D02*
X167317773Y-136586043D01*
X167317773Y-136586043D02*
X167174915Y-136514614D01*
X170210630Y-139643816D02*
X169996344Y-139715244D01*
X169996344Y-139715244D02*
X169924915Y-139786673D01*
X169924915Y-139786673D02*
X169853487Y-139929530D01*
X169853487Y-139929530D02*
X169853487Y-140143816D01*
X169853487Y-140143816D02*
X169924915Y-140286673D01*
X169924915Y-140286673D02*
X169996344Y-140358102D01*
X169996344Y-140358102D02*
X170139201Y-140429530D01*
X170139201Y-140429530D02*
X170710630Y-140429530D01*
X170710630Y-140429530D02*
X170710630Y-138929530D01*
X170710630Y-138929530D02*
X170210630Y-138929530D01*
X170210630Y-138929530D02*
X170067773Y-139000959D01*
X170067773Y-139000959D02*
X169996344Y-139072387D01*
X169996344Y-139072387D02*
X169924915Y-139215244D01*
X169924915Y-139215244D02*
X169924915Y-139358102D01*
X169924915Y-139358102D02*
X169996344Y-139500959D01*
X169996344Y-139500959D02*
X170067773Y-139572387D01*
X170067773Y-139572387D02*
X170210630Y-139643816D01*
X170210630Y-139643816D02*
X170710630Y-139643816D01*
X169353487Y-139429530D02*
X168996344Y-140429530D01*
X168639201Y-139429530D02*
X168996344Y-140429530D01*
X168996344Y-140429530D02*
X169139201Y-140786673D01*
X169139201Y-140786673D02*
X169210630Y-140858102D01*
X169210630Y-140858102D02*
X169353487Y-140929530D01*
X168067773Y-140286673D02*
X167996344Y-140358102D01*
X167996344Y-140358102D02*
X168067773Y-140429530D01*
X168067773Y-140429530D02*
X168139201Y-140358102D01*
X168139201Y-140358102D02*
X168067773Y-140286673D01*
X168067773Y-140286673D02*
X168067773Y-140429530D01*
X168067773Y-139500959D02*
X167996344Y-139572387D01*
X167996344Y-139572387D02*
X168067773Y-139643816D01*
X168067773Y-139643816D02*
X168139201Y-139572387D01*
X168139201Y-139572387D02*
X168067773Y-139500959D01*
X168067773Y-139500959D02*
X168067773Y-139643816D01*
X174317773Y-142844446D02*
X174317773Y-141344446D01*
X173460630Y-142844446D02*
X174103487Y-141987303D01*
X173460630Y-141344446D02*
X174317773Y-142201589D01*
X172174916Y-142844446D02*
X172174916Y-142058732D01*
X172174916Y-142058732D02*
X172246344Y-141915875D01*
X172246344Y-141915875D02*
X172389201Y-141844446D01*
X172389201Y-141844446D02*
X172674916Y-141844446D01*
X172674916Y-141844446D02*
X172817773Y-141915875D01*
X172174916Y-142773018D02*
X172317773Y-142844446D01*
X172317773Y-142844446D02*
X172674916Y-142844446D01*
X172674916Y-142844446D02*
X172817773Y-142773018D01*
X172817773Y-142773018D02*
X172889201Y-142630160D01*
X172889201Y-142630160D02*
X172889201Y-142487303D01*
X172889201Y-142487303D02*
X172817773Y-142344446D01*
X172817773Y-142344446D02*
X172674916Y-142273018D01*
X172674916Y-142273018D02*
X172317773Y-142273018D01*
X172317773Y-142273018D02*
X172174916Y-142201589D01*
X170817773Y-141844446D02*
X170817773Y-142844446D01*
X171460630Y-141844446D02*
X171460630Y-142630160D01*
X171460630Y-142630160D02*
X171389201Y-142773018D01*
X171389201Y-142773018D02*
X171246344Y-142844446D01*
X171246344Y-142844446D02*
X171032058Y-142844446D01*
X171032058Y-142844446D02*
X170889201Y-142773018D01*
X170889201Y-142773018D02*
X170817773Y-142701589D01*
X170174915Y-142773018D02*
X170032058Y-142844446D01*
X170032058Y-142844446D02*
X169746344Y-142844446D01*
X169746344Y-142844446D02*
X169603487Y-142773018D01*
X169603487Y-142773018D02*
X169532058Y-142630160D01*
X169532058Y-142630160D02*
X169532058Y-142558732D01*
X169532058Y-142558732D02*
X169603487Y-142415875D01*
X169603487Y-142415875D02*
X169746344Y-142344446D01*
X169746344Y-142344446D02*
X169960630Y-142344446D01*
X169960630Y-142344446D02*
X170103487Y-142273018D01*
X170103487Y-142273018D02*
X170174915Y-142130160D01*
X170174915Y-142130160D02*
X170174915Y-142058732D01*
X170174915Y-142058732D02*
X170103487Y-141915875D01*
X170103487Y-141915875D02*
X169960630Y-141844446D01*
X169960630Y-141844446D02*
X169746344Y-141844446D01*
X169746344Y-141844446D02*
X169603487Y-141915875D01*
X169103486Y-141844446D02*
X168532058Y-141844446D01*
X168889201Y-141344446D02*
X168889201Y-142630160D01*
X168889201Y-142630160D02*
X168817772Y-142773018D01*
X168817772Y-142773018D02*
X168674915Y-142844446D01*
X168674915Y-142844446D02*
X168532058Y-142844446D01*
X168032058Y-142844446D02*
X168032058Y-141344446D01*
X167389201Y-142844446D02*
X167389201Y-142058732D01*
X167389201Y-142058732D02*
X167460629Y-141915875D01*
X167460629Y-141915875D02*
X167603486Y-141844446D01*
X167603486Y-141844446D02*
X167817772Y-141844446D01*
X167817772Y-141844446D02*
X167960629Y-141915875D01*
X167960629Y-141915875D02*
X168032058Y-141987303D01*
X166032058Y-141844446D02*
X166032058Y-142844446D01*
X166674915Y-141844446D02*
X166674915Y-142630160D01*
X166674915Y-142630160D02*
X166603486Y-142773018D01*
X166603486Y-142773018D02*
X166460629Y-142844446D01*
X166460629Y-142844446D02*
X166246343Y-142844446D01*
X166246343Y-142844446D02*
X166103486Y-142773018D01*
X166103486Y-142773018D02*
X166032058Y-142701589D01*
X165317772Y-142844446D02*
X165317772Y-141344446D01*
X165317772Y-141915875D02*
X165174915Y-141844446D01*
X165174915Y-141844446D02*
X164889200Y-141844446D01*
X164889200Y-141844446D02*
X164746343Y-141915875D01*
X164746343Y-141915875D02*
X164674915Y-141987303D01*
X164674915Y-141987303D02*
X164603486Y-142130160D01*
X164603486Y-142130160D02*
X164603486Y-142558732D01*
X164603486Y-142558732D02*
X164674915Y-142701589D01*
X164674915Y-142701589D02*
X164746343Y-142773018D01*
X164746343Y-142773018D02*
X164889200Y-142844446D01*
X164889200Y-142844446D02*
X165174915Y-142844446D01*
X165174915Y-142844446D02*
X165317772Y-142773018D01*
X163960629Y-142844446D02*
X163960629Y-141344446D01*
X163317772Y-142844446D02*
X163317772Y-142058732D01*
X163317772Y-142058732D02*
X163389200Y-141915875D01*
X163389200Y-141915875D02*
X163532057Y-141844446D01*
X163532057Y-141844446D02*
X163746343Y-141844446D01*
X163746343Y-141844446D02*
X163889200Y-141915875D01*
X163889200Y-141915875D02*
X163960629Y-141987303D01*
X174210630Y-143759362D02*
X173710630Y-145259362D01*
X173710630Y-145259362D02*
X173210630Y-143759362D01*
X172710631Y-145259362D02*
X172710631Y-144259362D01*
X172710631Y-143759362D02*
X172782059Y-143830791D01*
X172782059Y-143830791D02*
X172710631Y-143902219D01*
X172710631Y-143902219D02*
X172639202Y-143830791D01*
X172639202Y-143830791D02*
X172710631Y-143759362D01*
X172710631Y-143759362D02*
X172710631Y-143902219D01*
X172067773Y-145187934D02*
X171924916Y-145259362D01*
X171924916Y-145259362D02*
X171639202Y-145259362D01*
X171639202Y-145259362D02*
X171496345Y-145187934D01*
X171496345Y-145187934D02*
X171424916Y-145045076D01*
X171424916Y-145045076D02*
X171424916Y-144973648D01*
X171424916Y-144973648D02*
X171496345Y-144830791D01*
X171496345Y-144830791D02*
X171639202Y-144759362D01*
X171639202Y-144759362D02*
X171853488Y-144759362D01*
X171853488Y-144759362D02*
X171996345Y-144687934D01*
X171996345Y-144687934D02*
X172067773Y-144545076D01*
X172067773Y-144545076D02*
X172067773Y-144473648D01*
X172067773Y-144473648D02*
X171996345Y-144330791D01*
X171996345Y-144330791D02*
X171853488Y-144259362D01*
X171853488Y-144259362D02*
X171639202Y-144259362D01*
X171639202Y-144259362D02*
X171496345Y-144330791D01*
X170924916Y-144259362D02*
X170639202Y-145259362D01*
X170639202Y-145259362D02*
X170353487Y-144545076D01*
X170353487Y-144545076D02*
X170067773Y-145259362D01*
X170067773Y-145259362D02*
X169782059Y-144259362D01*
X168567773Y-145259362D02*
X168567773Y-144473648D01*
X168567773Y-144473648D02*
X168639201Y-144330791D01*
X168639201Y-144330791D02*
X168782058Y-144259362D01*
X168782058Y-144259362D02*
X169067773Y-144259362D01*
X169067773Y-144259362D02*
X169210630Y-144330791D01*
X168567773Y-145187934D02*
X168710630Y-145259362D01*
X168710630Y-145259362D02*
X169067773Y-145259362D01*
X169067773Y-145259362D02*
X169210630Y-145187934D01*
X169210630Y-145187934D02*
X169282058Y-145045076D01*
X169282058Y-145045076D02*
X169282058Y-144902219D01*
X169282058Y-144902219D02*
X169210630Y-144759362D01*
X169210630Y-144759362D02*
X169067773Y-144687934D01*
X169067773Y-144687934D02*
X168710630Y-144687934D01*
X168710630Y-144687934D02*
X168567773Y-144616505D01*
X167853487Y-144259362D02*
X167853487Y-145259362D01*
X167853487Y-144402219D02*
X167782058Y-144330791D01*
X167782058Y-144330791D02*
X167639201Y-144259362D01*
X167639201Y-144259362D02*
X167424915Y-144259362D01*
X167424915Y-144259362D02*
X167282058Y-144330791D01*
X167282058Y-144330791D02*
X167210630Y-144473648D01*
X167210630Y-144473648D02*
X167210630Y-145259362D01*
X165853487Y-145259362D02*
X165853487Y-144473648D01*
X165853487Y-144473648D02*
X165924915Y-144330791D01*
X165924915Y-144330791D02*
X166067772Y-144259362D01*
X166067772Y-144259362D02*
X166353487Y-144259362D01*
X166353487Y-144259362D02*
X166496344Y-144330791D01*
X165853487Y-145187934D02*
X165996344Y-145259362D01*
X165996344Y-145259362D02*
X166353487Y-145259362D01*
X166353487Y-145259362D02*
X166496344Y-145187934D01*
X166496344Y-145187934D02*
X166567772Y-145045076D01*
X166567772Y-145045076D02*
X166567772Y-144902219D01*
X166567772Y-144902219D02*
X166496344Y-144759362D01*
X166496344Y-144759362D02*
X166353487Y-144687934D01*
X166353487Y-144687934D02*
X165996344Y-144687934D01*
X165996344Y-144687934D02*
X165853487Y-144616505D01*
X165353486Y-144259362D02*
X164782058Y-144259362D01*
X165139201Y-143759362D02*
X165139201Y-145045076D01*
X165139201Y-145045076D02*
X165067772Y-145187934D01*
X165067772Y-145187934D02*
X164924915Y-145259362D01*
X164924915Y-145259362D02*
X164782058Y-145259362D01*
X164282058Y-145259362D02*
X164282058Y-143759362D01*
X163639201Y-145259362D02*
X163639201Y-144473648D01*
X163639201Y-144473648D02*
X163710629Y-144330791D01*
X163710629Y-144330791D02*
X163853486Y-144259362D01*
X163853486Y-144259362D02*
X164067772Y-144259362D01*
X164067772Y-144259362D02*
X164210629Y-144330791D01*
X164210629Y-144330791D02*
X164282058Y-144402219D01*
D11*
X186864285Y-100604819D02*
X186864285Y-99604819D01*
X186197619Y-99604819D02*
X186007143Y-99604819D01*
X186007143Y-99604819D02*
X185911905Y-99652438D01*
X185911905Y-99652438D02*
X185816667Y-99747676D01*
X185816667Y-99747676D02*
X185769048Y-99938152D01*
X185769048Y-99938152D02*
X185769048Y-100271485D01*
X185769048Y-100271485D02*
X185816667Y-100461961D01*
X185816667Y-100461961D02*
X185911905Y-100557200D01*
X185911905Y-100557200D02*
X186007143Y-100604819D01*
X186007143Y-100604819D02*
X186197619Y-100604819D01*
X186197619Y-100604819D02*
X186292857Y-100557200D01*
X186292857Y-100557200D02*
X186388095Y-100461961D01*
X186388095Y-100461961D02*
X186435714Y-100271485D01*
X186435714Y-100271485D02*
X186435714Y-99938152D01*
X186435714Y-99938152D02*
X186388095Y-99747676D01*
X186388095Y-99747676D02*
X186292857Y-99652438D01*
X186292857Y-99652438D02*
X186197619Y-99604819D01*
X184578571Y-100604819D02*
X184578571Y-99604819D01*
X184102381Y-99938152D02*
X184102381Y-100604819D01*
X184102381Y-100033390D02*
X184054762Y-99985771D01*
X184054762Y-99985771D02*
X183959524Y-99938152D01*
X183959524Y-99938152D02*
X183816667Y-99938152D01*
X183816667Y-99938152D02*
X183721429Y-99985771D01*
X183721429Y-99985771D02*
X183673810Y-100081009D01*
X183673810Y-100081009D02*
X183673810Y-100604819D01*
X183340476Y-99938152D02*
X182959524Y-99938152D01*
X183197619Y-99604819D02*
X183197619Y-100461961D01*
X183197619Y-100461961D02*
X183150000Y-100557200D01*
X183150000Y-100557200D02*
X183054762Y-100604819D01*
X183054762Y-100604819D02*
X182959524Y-100604819D01*
X182245238Y-100557200D02*
X182340476Y-100604819D01*
X182340476Y-100604819D02*
X182530952Y-100604819D01*
X182530952Y-100604819D02*
X182626190Y-100557200D01*
X182626190Y-100557200D02*
X182673809Y-100461961D01*
X182673809Y-100461961D02*
X182673809Y-100081009D01*
X182673809Y-100081009D02*
X182626190Y-99985771D01*
X182626190Y-99985771D02*
X182530952Y-99938152D01*
X182530952Y-99938152D02*
X182340476Y-99938152D01*
X182340476Y-99938152D02*
X182245238Y-99985771D01*
X182245238Y-99985771D02*
X182197619Y-100081009D01*
X182197619Y-100081009D02*
X182197619Y-100176247D01*
X182197619Y-100176247D02*
X182673809Y-100271485D01*
X181769047Y-100604819D02*
X181769047Y-99938152D01*
X181769047Y-100128628D02*
X181721428Y-100033390D01*
X181721428Y-100033390D02*
X181673809Y-99985771D01*
X181673809Y-99985771D02*
X181578571Y-99938152D01*
X181578571Y-99938152D02*
X181483333Y-99938152D01*
X181292856Y-99938152D02*
X180911904Y-99938152D01*
X181149999Y-100604819D02*
X181149999Y-99747676D01*
X181149999Y-99747676D02*
X181102380Y-99652438D01*
X181102380Y-99652438D02*
X181007142Y-99604819D01*
X181007142Y-99604819D02*
X180911904Y-99604819D01*
X180149999Y-100604819D02*
X180149999Y-100081009D01*
X180149999Y-100081009D02*
X180197618Y-99985771D01*
X180197618Y-99985771D02*
X180292856Y-99938152D01*
X180292856Y-99938152D02*
X180483332Y-99938152D01*
X180483332Y-99938152D02*
X180578570Y-99985771D01*
X180149999Y-100557200D02*
X180245237Y-100604819D01*
X180245237Y-100604819D02*
X180483332Y-100604819D01*
X180483332Y-100604819D02*
X180578570Y-100557200D01*
X180578570Y-100557200D02*
X180626189Y-100461961D01*
X180626189Y-100461961D02*
X180626189Y-100366723D01*
X180626189Y-100366723D02*
X180578570Y-100271485D01*
X180578570Y-100271485D02*
X180483332Y-100223866D01*
X180483332Y-100223866D02*
X180245237Y-100223866D01*
X180245237Y-100223866D02*
X180149999Y-100176247D01*
X179245237Y-100557200D02*
X179340475Y-100604819D01*
X179340475Y-100604819D02*
X179530951Y-100604819D01*
X179530951Y-100604819D02*
X179626189Y-100557200D01*
X179626189Y-100557200D02*
X179673808Y-100509580D01*
X179673808Y-100509580D02*
X179721427Y-100414342D01*
X179721427Y-100414342D02*
X179721427Y-100128628D01*
X179721427Y-100128628D02*
X179673808Y-100033390D01*
X179673808Y-100033390D02*
X179626189Y-99985771D01*
X179626189Y-99985771D02*
X179530951Y-99938152D01*
X179530951Y-99938152D02*
X179340475Y-99938152D01*
X179340475Y-99938152D02*
X179245237Y-99985771D01*
X178435713Y-100557200D02*
X178530951Y-100604819D01*
X178530951Y-100604819D02*
X178721427Y-100604819D01*
X178721427Y-100604819D02*
X178816665Y-100557200D01*
X178816665Y-100557200D02*
X178864284Y-100461961D01*
X178864284Y-100461961D02*
X178864284Y-100081009D01*
X178864284Y-100081009D02*
X178816665Y-99985771D01*
X178816665Y-99985771D02*
X178721427Y-99938152D01*
X178721427Y-99938152D02*
X178530951Y-99938152D01*
X178530951Y-99938152D02*
X178435713Y-99985771D01*
X178435713Y-99985771D02*
X178388094Y-100081009D01*
X178388094Y-100081009D02*
X178388094Y-100176247D01*
X178388094Y-100176247D02*
X178864284Y-100271485D01*
D12*
X159880928Y-103424286D02*
X159166642Y-102924286D01*
X159880928Y-102567143D02*
X158380928Y-102567143D01*
X158380928Y-102567143D02*
X158380928Y-103138572D01*
X158380928Y-103138572D02*
X158452357Y-103281429D01*
X158452357Y-103281429D02*
X158523785Y-103352858D01*
X158523785Y-103352858D02*
X158666642Y-103424286D01*
X158666642Y-103424286D02*
X158880928Y-103424286D01*
X158880928Y-103424286D02*
X159023785Y-103352858D01*
X159023785Y-103352858D02*
X159095214Y-103281429D01*
X159095214Y-103281429D02*
X159166642Y-103138572D01*
X159166642Y-103138572D02*
X159166642Y-102567143D01*
X159809500Y-103995715D02*
X159880928Y-104210001D01*
X159880928Y-104210001D02*
X159880928Y-104567143D01*
X159880928Y-104567143D02*
X159809500Y-104710001D01*
X159809500Y-104710001D02*
X159738071Y-104781429D01*
X159738071Y-104781429D02*
X159595214Y-104852858D01*
X159595214Y-104852858D02*
X159452357Y-104852858D01*
X159452357Y-104852858D02*
X159309500Y-104781429D01*
X159309500Y-104781429D02*
X159238071Y-104710001D01*
X159238071Y-104710001D02*
X159166642Y-104567143D01*
X159166642Y-104567143D02*
X159095214Y-104281429D01*
X159095214Y-104281429D02*
X159023785Y-104138572D01*
X159023785Y-104138572D02*
X158952357Y-104067143D01*
X158952357Y-104067143D02*
X158809500Y-103995715D01*
X158809500Y-103995715D02*
X158666642Y-103995715D01*
X158666642Y-103995715D02*
X158523785Y-104067143D01*
X158523785Y-104067143D02*
X158452357Y-104138572D01*
X158452357Y-104138572D02*
X158380928Y-104281429D01*
X158380928Y-104281429D02*
X158380928Y-104638572D01*
X158380928Y-104638572D02*
X158452357Y-104852858D01*
X159309500Y-105495714D02*
X159309500Y-106638572D01*
X158880928Y-107995715D02*
X159880928Y-107995715D01*
X158309500Y-107638572D02*
X159380928Y-107281429D01*
X159380928Y-107281429D02*
X159380928Y-108210000D01*
X158523785Y-108710000D02*
X158452357Y-108781428D01*
X158452357Y-108781428D02*
X158380928Y-108924286D01*
X158380928Y-108924286D02*
X158380928Y-109281428D01*
X158380928Y-109281428D02*
X158452357Y-109424286D01*
X158452357Y-109424286D02*
X158523785Y-109495714D01*
X158523785Y-109495714D02*
X158666642Y-109567143D01*
X158666642Y-109567143D02*
X158809500Y-109567143D01*
X158809500Y-109567143D02*
X159023785Y-109495714D01*
X159023785Y-109495714D02*
X159880928Y-108638571D01*
X159880928Y-108638571D02*
X159880928Y-109567143D01*
X158523785Y-110138571D02*
X158452357Y-110209999D01*
X158452357Y-110209999D02*
X158380928Y-110352857D01*
X158380928Y-110352857D02*
X158380928Y-110709999D01*
X158380928Y-110709999D02*
X158452357Y-110852857D01*
X158452357Y-110852857D02*
X158523785Y-110924285D01*
X158523785Y-110924285D02*
X158666642Y-110995714D01*
X158666642Y-110995714D02*
X158809500Y-110995714D01*
X158809500Y-110995714D02*
X159023785Y-110924285D01*
X159023785Y-110924285D02*
X159880928Y-110067142D01*
X159880928Y-110067142D02*
X159880928Y-110995714D01*
X159738071Y-113638570D02*
X159809500Y-113567142D01*
X159809500Y-113567142D02*
X159880928Y-113352856D01*
X159880928Y-113352856D02*
X159880928Y-113209999D01*
X159880928Y-113209999D02*
X159809500Y-112995713D01*
X159809500Y-112995713D02*
X159666642Y-112852856D01*
X159666642Y-112852856D02*
X159523785Y-112781427D01*
X159523785Y-112781427D02*
X159238071Y-112709999D01*
X159238071Y-112709999D02*
X159023785Y-112709999D01*
X159023785Y-112709999D02*
X158738071Y-112781427D01*
X158738071Y-112781427D02*
X158595214Y-112852856D01*
X158595214Y-112852856D02*
X158452357Y-112995713D01*
X158452357Y-112995713D02*
X158380928Y-113209999D01*
X158380928Y-113209999D02*
X158380928Y-113352856D01*
X158380928Y-113352856D02*
X158452357Y-113567142D01*
X158452357Y-113567142D02*
X158523785Y-113638570D01*
X159880928Y-114495713D02*
X159809500Y-114352856D01*
X159809500Y-114352856D02*
X159738071Y-114281427D01*
X159738071Y-114281427D02*
X159595214Y-114209999D01*
X159595214Y-114209999D02*
X159166642Y-114209999D01*
X159166642Y-114209999D02*
X159023785Y-114281427D01*
X159023785Y-114281427D02*
X158952357Y-114352856D01*
X158952357Y-114352856D02*
X158880928Y-114495713D01*
X158880928Y-114495713D02*
X158880928Y-114709999D01*
X158880928Y-114709999D02*
X158952357Y-114852856D01*
X158952357Y-114852856D02*
X159023785Y-114924285D01*
X159023785Y-114924285D02*
X159166642Y-114995713D01*
X159166642Y-114995713D02*
X159595214Y-114995713D01*
X159595214Y-114995713D02*
X159738071Y-114924285D01*
X159738071Y-114924285D02*
X159809500Y-114852856D01*
X159809500Y-114852856D02*
X159880928Y-114709999D01*
X159880928Y-114709999D02*
X159880928Y-114495713D01*
X158880928Y-115638570D02*
X159880928Y-115638570D01*
X159023785Y-115638570D02*
X158952357Y-115709999D01*
X158952357Y-115709999D02*
X158880928Y-115852856D01*
X158880928Y-115852856D02*
X158880928Y-116067142D01*
X158880928Y-116067142D02*
X158952357Y-116209999D01*
X158952357Y-116209999D02*
X159095214Y-116281428D01*
X159095214Y-116281428D02*
X159880928Y-116281428D01*
X158880928Y-116995713D02*
X159880928Y-116995713D01*
X159023785Y-116995713D02*
X158952357Y-117067142D01*
X158952357Y-117067142D02*
X158880928Y-117209999D01*
X158880928Y-117209999D02*
X158880928Y-117424285D01*
X158880928Y-117424285D02*
X158952357Y-117567142D01*
X158952357Y-117567142D02*
X159095214Y-117638571D01*
X159095214Y-117638571D02*
X159880928Y-117638571D01*
X159809500Y-118924285D02*
X159880928Y-118781428D01*
X159880928Y-118781428D02*
X159880928Y-118495714D01*
X159880928Y-118495714D02*
X159809500Y-118352856D01*
X159809500Y-118352856D02*
X159666642Y-118281428D01*
X159666642Y-118281428D02*
X159095214Y-118281428D01*
X159095214Y-118281428D02*
X158952357Y-118352856D01*
X158952357Y-118352856D02*
X158880928Y-118495714D01*
X158880928Y-118495714D02*
X158880928Y-118781428D01*
X158880928Y-118781428D02*
X158952357Y-118924285D01*
X158952357Y-118924285D02*
X159095214Y-118995714D01*
X159095214Y-118995714D02*
X159238071Y-118995714D01*
X159238071Y-118995714D02*
X159380928Y-118281428D01*
X159809500Y-120281428D02*
X159880928Y-120138570D01*
X159880928Y-120138570D02*
X159880928Y-119852856D01*
X159880928Y-119852856D02*
X159809500Y-119709999D01*
X159809500Y-119709999D02*
X159738071Y-119638570D01*
X159738071Y-119638570D02*
X159595214Y-119567142D01*
X159595214Y-119567142D02*
X159166642Y-119567142D01*
X159166642Y-119567142D02*
X159023785Y-119638570D01*
X159023785Y-119638570D02*
X158952357Y-119709999D01*
X158952357Y-119709999D02*
X158880928Y-119852856D01*
X158880928Y-119852856D02*
X158880928Y-120138570D01*
X158880928Y-120138570D02*
X158952357Y-120281428D01*
X158880928Y-120709999D02*
X158880928Y-121281427D01*
X158380928Y-120924284D02*
X159666642Y-120924284D01*
X159666642Y-120924284D02*
X159809500Y-120995713D01*
X159809500Y-120995713D02*
X159880928Y-121138570D01*
X159880928Y-121138570D02*
X159880928Y-121281427D01*
X159880928Y-121995713D02*
X159809500Y-121852856D01*
X159809500Y-121852856D02*
X159738071Y-121781427D01*
X159738071Y-121781427D02*
X159595214Y-121709999D01*
X159595214Y-121709999D02*
X159166642Y-121709999D01*
X159166642Y-121709999D02*
X159023785Y-121781427D01*
X159023785Y-121781427D02*
X158952357Y-121852856D01*
X158952357Y-121852856D02*
X158880928Y-121995713D01*
X158880928Y-121995713D02*
X158880928Y-122209999D01*
X158880928Y-122209999D02*
X158952357Y-122352856D01*
X158952357Y-122352856D02*
X159023785Y-122424285D01*
X159023785Y-122424285D02*
X159166642Y-122495713D01*
X159166642Y-122495713D02*
X159595214Y-122495713D01*
X159595214Y-122495713D02*
X159738071Y-122424285D01*
X159738071Y-122424285D02*
X159809500Y-122352856D01*
X159809500Y-122352856D02*
X159880928Y-122209999D01*
X159880928Y-122209999D02*
X159880928Y-121995713D01*
X159880928Y-123138570D02*
X158880928Y-123138570D01*
X159166642Y-123138570D02*
X159023785Y-123209999D01*
X159023785Y-123209999D02*
X158952357Y-123281428D01*
X158952357Y-123281428D02*
X158880928Y-123424285D01*
X158880928Y-123424285D02*
X158880928Y-123567142D01*
D13*
X208762019Y-98154760D02*
X208762019Y-98821427D01*
X209809638Y-99107141D02*
X209809638Y-98154760D01*
X209809638Y-98154760D02*
X207809638Y-98154760D01*
X207809638Y-98154760D02*
X207809638Y-99107141D01*
X209809638Y-99773808D02*
X208476304Y-100821427D01*
X208476304Y-99773808D02*
X209809638Y-100821427D01*
X208476304Y-101583332D02*
X210476304Y-101583332D01*
X208571542Y-101583332D02*
X208476304Y-101773808D01*
X208476304Y-101773808D02*
X208476304Y-102154761D01*
X208476304Y-102154761D02*
X208571542Y-102345237D01*
X208571542Y-102345237D02*
X208666780Y-102440475D01*
X208666780Y-102440475D02*
X208857257Y-102535713D01*
X208857257Y-102535713D02*
X209428685Y-102535713D01*
X209428685Y-102535713D02*
X209619161Y-102440475D01*
X209619161Y-102440475D02*
X209714400Y-102345237D01*
X209714400Y-102345237D02*
X209809638Y-102154761D01*
X209809638Y-102154761D02*
X209809638Y-101773808D01*
X209809638Y-101773808D02*
X209714400Y-101583332D01*
X209809638Y-104249999D02*
X208762019Y-104249999D01*
X208762019Y-104249999D02*
X208571542Y-104154761D01*
X208571542Y-104154761D02*
X208476304Y-103964285D01*
X208476304Y-103964285D02*
X208476304Y-103583332D01*
X208476304Y-103583332D02*
X208571542Y-103392856D01*
X209714400Y-104249999D02*
X209809638Y-104059523D01*
X209809638Y-104059523D02*
X209809638Y-103583332D01*
X209809638Y-103583332D02*
X209714400Y-103392856D01*
X209714400Y-103392856D02*
X209523923Y-103297618D01*
X209523923Y-103297618D02*
X209333447Y-103297618D01*
X209333447Y-103297618D02*
X209142971Y-103392856D01*
X209142971Y-103392856D02*
X209047733Y-103583332D01*
X209047733Y-103583332D02*
X209047733Y-104059523D01*
X209047733Y-104059523D02*
X208952495Y-104249999D01*
X208476304Y-105202380D02*
X209809638Y-105202380D01*
X208666780Y-105202380D02*
X208571542Y-105297618D01*
X208571542Y-105297618D02*
X208476304Y-105488094D01*
X208476304Y-105488094D02*
X208476304Y-105773809D01*
X208476304Y-105773809D02*
X208571542Y-105964285D01*
X208571542Y-105964285D02*
X208762019Y-106059523D01*
X208762019Y-106059523D02*
X209809638Y-106059523D01*
X208476304Y-106726190D02*
X208476304Y-107488094D01*
X207809638Y-107011904D02*
X209523923Y-107011904D01*
X209523923Y-107011904D02*
X209714400Y-107107142D01*
X209714400Y-107107142D02*
X209809638Y-107297618D01*
X209809638Y-107297618D02*
X209809638Y-107488094D01*
X209809638Y-108154761D02*
X208476304Y-108154761D01*
X207809638Y-108154761D02*
X207904876Y-108059523D01*
X207904876Y-108059523D02*
X208000114Y-108154761D01*
X208000114Y-108154761D02*
X207904876Y-108249999D01*
X207904876Y-108249999D02*
X207809638Y-108154761D01*
X207809638Y-108154761D02*
X208000114Y-108154761D01*
X209809638Y-109392856D02*
X209714400Y-109202380D01*
X209714400Y-109202380D02*
X209619161Y-109107142D01*
X209619161Y-109107142D02*
X209428685Y-109011904D01*
X209428685Y-109011904D02*
X208857257Y-109011904D01*
X208857257Y-109011904D02*
X208666780Y-109107142D01*
X208666780Y-109107142D02*
X208571542Y-109202380D01*
X208571542Y-109202380D02*
X208476304Y-109392856D01*
X208476304Y-109392856D02*
X208476304Y-109678571D01*
X208476304Y-109678571D02*
X208571542Y-109869047D01*
X208571542Y-109869047D02*
X208666780Y-109964285D01*
X208666780Y-109964285D02*
X208857257Y-110059523D01*
X208857257Y-110059523D02*
X209428685Y-110059523D01*
X209428685Y-110059523D02*
X209619161Y-109964285D01*
X209619161Y-109964285D02*
X209714400Y-109869047D01*
X209714400Y-109869047D02*
X209809638Y-109678571D01*
X209809638Y-109678571D02*
X209809638Y-109392856D01*
X208476304Y-110916666D02*
X209809638Y-110916666D01*
X208666780Y-110916666D02*
X208571542Y-111011904D01*
X208571542Y-111011904D02*
X208476304Y-111202380D01*
X208476304Y-111202380D02*
X208476304Y-111488095D01*
X208476304Y-111488095D02*
X208571542Y-111678571D01*
X208571542Y-111678571D02*
X208762019Y-111773809D01*
X208762019Y-111773809D02*
X209809638Y-111773809D01*
X209619161Y-115392857D02*
X209714400Y-115297619D01*
X209714400Y-115297619D02*
X209809638Y-115011905D01*
X209809638Y-115011905D02*
X209809638Y-114821429D01*
X209809638Y-114821429D02*
X209714400Y-114535714D01*
X209714400Y-114535714D02*
X209523923Y-114345238D01*
X209523923Y-114345238D02*
X209333447Y-114250000D01*
X209333447Y-114250000D02*
X208952495Y-114154762D01*
X208952495Y-114154762D02*
X208666780Y-114154762D01*
X208666780Y-114154762D02*
X208285828Y-114250000D01*
X208285828Y-114250000D02*
X208095352Y-114345238D01*
X208095352Y-114345238D02*
X207904876Y-114535714D01*
X207904876Y-114535714D02*
X207809638Y-114821429D01*
X207809638Y-114821429D02*
X207809638Y-115011905D01*
X207809638Y-115011905D02*
X207904876Y-115297619D01*
X207904876Y-115297619D02*
X208000114Y-115392857D01*
X209809638Y-116535714D02*
X209714400Y-116345238D01*
X209714400Y-116345238D02*
X209619161Y-116250000D01*
X209619161Y-116250000D02*
X209428685Y-116154762D01*
X209428685Y-116154762D02*
X208857257Y-116154762D01*
X208857257Y-116154762D02*
X208666780Y-116250000D01*
X208666780Y-116250000D02*
X208571542Y-116345238D01*
X208571542Y-116345238D02*
X208476304Y-116535714D01*
X208476304Y-116535714D02*
X208476304Y-116821429D01*
X208476304Y-116821429D02*
X208571542Y-117011905D01*
X208571542Y-117011905D02*
X208666780Y-117107143D01*
X208666780Y-117107143D02*
X208857257Y-117202381D01*
X208857257Y-117202381D02*
X209428685Y-117202381D01*
X209428685Y-117202381D02*
X209619161Y-117107143D01*
X209619161Y-117107143D02*
X209714400Y-117011905D01*
X209714400Y-117011905D02*
X209809638Y-116821429D01*
X209809638Y-116821429D02*
X209809638Y-116535714D01*
X208476304Y-118059524D02*
X209809638Y-118059524D01*
X208666780Y-118059524D02*
X208571542Y-118154762D01*
X208571542Y-118154762D02*
X208476304Y-118345238D01*
X208476304Y-118345238D02*
X208476304Y-118630953D01*
X208476304Y-118630953D02*
X208571542Y-118821429D01*
X208571542Y-118821429D02*
X208762019Y-118916667D01*
X208762019Y-118916667D02*
X209809638Y-118916667D01*
X208476304Y-119869048D02*
X209809638Y-119869048D01*
X208666780Y-119869048D02*
X208571542Y-119964286D01*
X208571542Y-119964286D02*
X208476304Y-120154762D01*
X208476304Y-120154762D02*
X208476304Y-120440477D01*
X208476304Y-120440477D02*
X208571542Y-120630953D01*
X208571542Y-120630953D02*
X208762019Y-120726191D01*
X208762019Y-120726191D02*
X209809638Y-120726191D01*
X209714400Y-122440477D02*
X209809638Y-122250001D01*
X209809638Y-122250001D02*
X209809638Y-121869048D01*
X209809638Y-121869048D02*
X209714400Y-121678572D01*
X209714400Y-121678572D02*
X209523923Y-121583334D01*
X209523923Y-121583334D02*
X208762019Y-121583334D01*
X208762019Y-121583334D02*
X208571542Y-121678572D01*
X208571542Y-121678572D02*
X208476304Y-121869048D01*
X208476304Y-121869048D02*
X208476304Y-122250001D01*
X208476304Y-122250001D02*
X208571542Y-122440477D01*
X208571542Y-122440477D02*
X208762019Y-122535715D01*
X208762019Y-122535715D02*
X208952495Y-122535715D01*
X208952495Y-122535715D02*
X209142971Y-121583334D01*
X209714400Y-124250001D02*
X209809638Y-124059525D01*
X209809638Y-124059525D02*
X209809638Y-123678572D01*
X209809638Y-123678572D02*
X209714400Y-123488096D01*
X209714400Y-123488096D02*
X209619161Y-123392858D01*
X209619161Y-123392858D02*
X209428685Y-123297620D01*
X209428685Y-123297620D02*
X208857257Y-123297620D01*
X208857257Y-123297620D02*
X208666780Y-123392858D01*
X208666780Y-123392858D02*
X208571542Y-123488096D01*
X208571542Y-123488096D02*
X208476304Y-123678572D01*
X208476304Y-123678572D02*
X208476304Y-124059525D01*
X208476304Y-124059525D02*
X208571542Y-124250001D01*
X208476304Y-124821430D02*
X208476304Y-125583334D01*
X207809638Y-125107144D02*
X209523923Y-125107144D01*
X209523923Y-125107144D02*
X209714400Y-125202382D01*
X209714400Y-125202382D02*
X209809638Y-125392858D01*
X209809638Y-125392858D02*
X209809638Y-125583334D01*
X209809638Y-126535715D02*
X209714400Y-126345239D01*
X209714400Y-126345239D02*
X209619161Y-126250001D01*
X209619161Y-126250001D02*
X209428685Y-126154763D01*
X209428685Y-126154763D02*
X208857257Y-126154763D01*
X208857257Y-126154763D02*
X208666780Y-126250001D01*
X208666780Y-126250001D02*
X208571542Y-126345239D01*
X208571542Y-126345239D02*
X208476304Y-126535715D01*
X208476304Y-126535715D02*
X208476304Y-126821430D01*
X208476304Y-126821430D02*
X208571542Y-127011906D01*
X208571542Y-127011906D02*
X208666780Y-127107144D01*
X208666780Y-127107144D02*
X208857257Y-127202382D01*
X208857257Y-127202382D02*
X209428685Y-127202382D01*
X209428685Y-127202382D02*
X209619161Y-127107144D01*
X209619161Y-127107144D02*
X209714400Y-127011906D01*
X209714400Y-127011906D02*
X209809638Y-126821430D01*
X209809638Y-126821430D02*
X209809638Y-126535715D01*
X209809638Y-128059525D02*
X208476304Y-128059525D01*
X208857257Y-128059525D02*
X208666780Y-128154763D01*
X208666780Y-128154763D02*
X208571542Y-128250001D01*
X208571542Y-128250001D02*
X208476304Y-128440477D01*
X208476304Y-128440477D02*
X208476304Y-128630954D01*
D14*
%TO.C,Lg2*%
X167134901Y-152571839D02*
X167165727Y-152581462D01*
X167203689Y-152597457D01*
X167222069Y-152606053D01*
X167235334Y-152607607D01*
X167238268Y-152595692D01*
X167238271Y-152595355D01*
X167244482Y-152583981D01*
X167265904Y-152578150D01*
X167307426Y-152576508D01*
X167376585Y-152576508D01*
X167376585Y-153180073D01*
X167238268Y-153180073D01*
X167238268Y-152763921D01*
X167203883Y-152732055D01*
X167193141Y-152722998D01*
X167161143Y-152707524D01*
X167121738Y-152706904D01*
X167068085Y-152720558D01*
X167049998Y-152721423D01*
X167028781Y-152708177D01*
X167000541Y-152676694D01*
X166986842Y-152659279D01*
X166970641Y-152634691D01*
X166968144Y-152619039D01*
X166977215Y-152605835D01*
X167005062Y-152589139D01*
X167048313Y-152575924D01*
X167095237Y-152569372D01*
X167134901Y-152571839D01*
G36*
X167134901Y-152571839D02*
G01*
X167165727Y-152581462D01*
X167203689Y-152597457D01*
X167222069Y-152606053D01*
X167235334Y-152607607D01*
X167238268Y-152595692D01*
X167238271Y-152595355D01*
X167244482Y-152583981D01*
X167265904Y-152578150D01*
X167307426Y-152576508D01*
X167376585Y-152576508D01*
X167376585Y-153180073D01*
X167238268Y-153180073D01*
X167238268Y-152763921D01*
X167203883Y-152732055D01*
X167193141Y-152722998D01*
X167161143Y-152707524D01*
X167121738Y-152706904D01*
X167068085Y-152720558D01*
X167049998Y-152721423D01*
X167028781Y-152708177D01*
X167000541Y-152676694D01*
X166986842Y-152659279D01*
X166970641Y-152634691D01*
X166968144Y-152619039D01*
X166977215Y-152605835D01*
X167005062Y-152589139D01*
X167048313Y-152575924D01*
X167095237Y-152569372D01*
X167134901Y-152571839D01*
G37*
X167318038Y-153527859D02*
X167356028Y-153545639D01*
X167389159Y-153571700D01*
X167389159Y-153545639D01*
X167389984Y-153535743D01*
X167397666Y-153525252D01*
X167418440Y-153520619D01*
X167458317Y-153519577D01*
X167527476Y-153519577D01*
X167527476Y-154135716D01*
X167389159Y-154135716D01*
X167389159Y-153935120D01*
X167389142Y-153923604D01*
X167387962Y-153842652D01*
X167385067Y-153776711D01*
X167380661Y-153729152D01*
X167374954Y-153703346D01*
X167369713Y-153693604D01*
X167337449Y-153663050D01*
X167293503Y-153649525D01*
X167245516Y-153655835D01*
X167233746Y-153660111D01*
X167208671Y-153667670D01*
X167191535Y-153665322D01*
X167174291Y-153649958D01*
X167148897Y-153618465D01*
X167107709Y-153566462D01*
X167136659Y-153543019D01*
X167164178Y-153528909D01*
X167212518Y-153519380D01*
X167267003Y-153519068D01*
X167318038Y-153527859D01*
G36*
X167318038Y-153527859D02*
G01*
X167356028Y-153545639D01*
X167389159Y-153571700D01*
X167389159Y-153545639D01*
X167389984Y-153535743D01*
X167397666Y-153525252D01*
X167418440Y-153520619D01*
X167458317Y-153519577D01*
X167527476Y-153519577D01*
X167527476Y-154135716D01*
X167389159Y-154135716D01*
X167389159Y-153935120D01*
X167389142Y-153923604D01*
X167387962Y-153842652D01*
X167385067Y-153776711D01*
X167380661Y-153729152D01*
X167374954Y-153703346D01*
X167369713Y-153693604D01*
X167337449Y-153663050D01*
X167293503Y-153649525D01*
X167245516Y-153655835D01*
X167233746Y-153660111D01*
X167208671Y-153667670D01*
X167191535Y-153665322D01*
X167174291Y-153649958D01*
X167148897Y-153618465D01*
X167107709Y-153566462D01*
X167136659Y-153543019D01*
X167164178Y-153528909D01*
X167212518Y-153519380D01*
X167267003Y-153519068D01*
X167318038Y-153527859D01*
G37*
X169941733Y-154135716D02*
X169815991Y-154135716D01*
X169815991Y-153941634D01*
X169815851Y-153896488D01*
X169814422Y-153821717D01*
X169810802Y-153766361D01*
X169804207Y-153726596D01*
X169793852Y-153698594D01*
X169778951Y-153678529D01*
X169758719Y-153662575D01*
X169736632Y-153650686D01*
X169710478Y-153647315D01*
X169673281Y-153654811D01*
X169661328Y-153657932D01*
X169631491Y-153662629D01*
X169610156Y-153655899D01*
X169585428Y-153635071D01*
X169580736Y-153630541D01*
X169554793Y-153602520D01*
X169538064Y-153579737D01*
X169535769Y-153574249D01*
X169540316Y-153553982D01*
X169563375Y-153537778D01*
X169599768Y-153526407D01*
X169644317Y-153520634D01*
X169691845Y-153521228D01*
X169737173Y-153528957D01*
X169775124Y-153544588D01*
X169787154Y-153551887D01*
X169807405Y-153562570D01*
X169814902Y-153560124D01*
X169815991Y-153544541D01*
X169816246Y-153538947D01*
X169822312Y-153526554D01*
X169841129Y-153520914D01*
X169878862Y-153519577D01*
X169941733Y-153519577D01*
X169941733Y-154135716D01*
G36*
X169941733Y-154135716D02*
G01*
X169815991Y-154135716D01*
X169815991Y-153941634D01*
X169815851Y-153896488D01*
X169814422Y-153821717D01*
X169810802Y-153766361D01*
X169804207Y-153726596D01*
X169793852Y-153698594D01*
X169778951Y-153678529D01*
X169758719Y-153662575D01*
X169736632Y-153650686D01*
X169710478Y-153647315D01*
X169673281Y-153654811D01*
X169661328Y-153657932D01*
X169631491Y-153662629D01*
X169610156Y-153655899D01*
X169585428Y-153635071D01*
X169580736Y-153630541D01*
X169554793Y-153602520D01*
X169538064Y-153579737D01*
X169535769Y-153574249D01*
X169540316Y-153553982D01*
X169563375Y-153537778D01*
X169599768Y-153526407D01*
X169644317Y-153520634D01*
X169691845Y-153521228D01*
X169737173Y-153528957D01*
X169775124Y-153544588D01*
X169787154Y-153551887D01*
X169807405Y-153562570D01*
X169814902Y-153560124D01*
X169815991Y-153544541D01*
X169816246Y-153538947D01*
X169822312Y-153526554D01*
X169841129Y-153520914D01*
X169878862Y-153519577D01*
X169941733Y-153519577D01*
X169941733Y-154135716D01*
G37*
X167628070Y-152772236D02*
X167629130Y-152860288D01*
X167633282Y-152931404D01*
X167641694Y-152983093D01*
X167655530Y-153018254D01*
X167675955Y-153039783D01*
X167704137Y-153050576D01*
X167741238Y-153053530D01*
X167776663Y-153050894D01*
X167805273Y-153040573D01*
X167826069Y-153019666D01*
X167840215Y-152985275D01*
X167848876Y-152934504D01*
X167853218Y-152864457D01*
X167854406Y-152772236D01*
X167854406Y-152576508D01*
X167980149Y-152576508D01*
X167980149Y-152812472D01*
X167979933Y-152875455D01*
X167978257Y-152956901D01*
X167974050Y-153019015D01*
X167966294Y-153065352D01*
X167953969Y-153099467D01*
X167936058Y-153124916D01*
X167911540Y-153145256D01*
X167879396Y-153164041D01*
X167811898Y-153187822D01*
X167741454Y-153189374D01*
X167675037Y-153167474D01*
X167646059Y-153153277D01*
X167631682Y-153151155D01*
X167628070Y-153161187D01*
X167622072Y-153172450D01*
X167600603Y-153178383D01*
X167558911Y-153180073D01*
X167489753Y-153180073D01*
X167489753Y-152576508D01*
X167628070Y-152576508D01*
X167628070Y-152772236D01*
G36*
X167628070Y-152772236D02*
G01*
X167629130Y-152860288D01*
X167633282Y-152931404D01*
X167641694Y-152983093D01*
X167655530Y-153018254D01*
X167675955Y-153039783D01*
X167704137Y-153050576D01*
X167741238Y-153053530D01*
X167776663Y-153050894D01*
X167805273Y-153040573D01*
X167826069Y-153019666D01*
X167840215Y-152985275D01*
X167848876Y-152934504D01*
X167853218Y-152864457D01*
X167854406Y-152772236D01*
X167854406Y-152576508D01*
X167980149Y-152576508D01*
X167980149Y-152812472D01*
X167979933Y-152875455D01*
X167978257Y-152956901D01*
X167974050Y-153019015D01*
X167966294Y-153065352D01*
X167953969Y-153099467D01*
X167936058Y-153124916D01*
X167911540Y-153145256D01*
X167879396Y-153164041D01*
X167811898Y-153187822D01*
X167741454Y-153189374D01*
X167675037Y-153167474D01*
X167646059Y-153153277D01*
X167631682Y-153151155D01*
X167628070Y-153161187D01*
X167622072Y-153172450D01*
X167600603Y-153178383D01*
X167558911Y-153180073D01*
X167489753Y-153180073D01*
X167489753Y-152576508D01*
X167628070Y-152576508D01*
X167628070Y-152772236D01*
G37*
X169730378Y-152575318D02*
X169787699Y-152593328D01*
X169812972Y-152605568D01*
X169825683Y-152606832D01*
X169828565Y-152595692D01*
X169828568Y-152595355D01*
X169834779Y-152583981D01*
X169856201Y-152578150D01*
X169897723Y-152576508D01*
X169966882Y-152576508D01*
X169966882Y-153180073D01*
X169828565Y-153180073D01*
X169828565Y-152972026D01*
X169828470Y-152901773D01*
X169827824Y-152844064D01*
X169826093Y-152803681D01*
X169822747Y-152776509D01*
X169817254Y-152758434D01*
X169809083Y-152745341D01*
X169797701Y-152733115D01*
X169782197Y-152720111D01*
X169737616Y-152702639D01*
X169690820Y-152707767D01*
X169647953Y-152735401D01*
X169635700Y-152748262D01*
X169626905Y-152761278D01*
X169621006Y-152778600D01*
X169617424Y-152804395D01*
X169615582Y-152842833D01*
X169614901Y-152898083D01*
X169614803Y-152974312D01*
X169614803Y-153180073D01*
X169476486Y-153180073D01*
X169476762Y-152956879D01*
X169476781Y-152946938D01*
X169477980Y-152852000D01*
X169481664Y-152778252D01*
X169488779Y-152722108D01*
X169500273Y-152679981D01*
X169517091Y-152648285D01*
X169540182Y-152623435D01*
X169570490Y-152601844D01*
X169601785Y-152586896D01*
X169664810Y-152573315D01*
X169730378Y-152575318D01*
G36*
X169730378Y-152575318D02*
G01*
X169787699Y-152593328D01*
X169812972Y-152605568D01*
X169825683Y-152606832D01*
X169828565Y-152595692D01*
X169828568Y-152595355D01*
X169834779Y-152583981D01*
X169856201Y-152578150D01*
X169897723Y-152576508D01*
X169966882Y-152576508D01*
X169966882Y-153180073D01*
X169828565Y-153180073D01*
X169828565Y-152972026D01*
X169828470Y-152901773D01*
X169827824Y-152844064D01*
X169826093Y-152803681D01*
X169822747Y-152776509D01*
X169817254Y-152758434D01*
X169809083Y-152745341D01*
X169797701Y-152733115D01*
X169782197Y-152720111D01*
X169737616Y-152702639D01*
X169690820Y-152707767D01*
X169647953Y-152735401D01*
X169635700Y-152748262D01*
X169626905Y-152761278D01*
X169621006Y-152778600D01*
X169617424Y-152804395D01*
X169615582Y-152842833D01*
X169614901Y-152898083D01*
X169614803Y-152974312D01*
X169614803Y-153180073D01*
X169476486Y-153180073D01*
X169476762Y-152956879D01*
X169476781Y-152946938D01*
X169477980Y-152852000D01*
X169481664Y-152778252D01*
X169488779Y-152722108D01*
X169500273Y-152679981D01*
X169517091Y-152648285D01*
X169540182Y-152623435D01*
X169570490Y-152601844D01*
X169601785Y-152586896D01*
X169664810Y-152573315D01*
X169730378Y-152575318D01*
G37*
X166781182Y-152579387D02*
X166849794Y-152606118D01*
X166907821Y-152650245D01*
X166950680Y-152710852D01*
X166953574Y-152717031D01*
X166971949Y-152777303D01*
X166981130Y-152849301D01*
X166981058Y-152924263D01*
X166971674Y-152993430D01*
X166952922Y-153048043D01*
X166929768Y-153086106D01*
X166878803Y-153140029D01*
X166815079Y-153174305D01*
X166760558Y-153188166D01*
X166677540Y-153189679D01*
X166598099Y-153168776D01*
X166527652Y-153126358D01*
X166482057Y-153088774D01*
X166523124Y-153046404D01*
X166549069Y-153021303D01*
X166572537Y-153007328D01*
X166594297Y-153010405D01*
X166622129Y-153029181D01*
X166633227Y-153036532D01*
X166680110Y-153051577D01*
X166733997Y-153051567D01*
X166784448Y-153036062D01*
X166803445Y-153023610D01*
X166831310Y-152986840D01*
X166845279Y-152932833D01*
X166846178Y-152859225D01*
X166846176Y-152859183D01*
X166835782Y-152793327D01*
X166812887Y-152747666D01*
X166775212Y-152719422D01*
X166720481Y-152705814D01*
X166686014Y-152703984D01*
X166655899Y-152711478D01*
X166625013Y-152733189D01*
X166585045Y-152766820D01*
X166534429Y-152726144D01*
X166515936Y-152710561D01*
X166492838Y-152688234D01*
X166483812Y-152675077D01*
X166487009Y-152669147D01*
X166505419Y-152650942D01*
X166534746Y-152627789D01*
X166557693Y-152612724D01*
X166630547Y-152581774D01*
X166706572Y-152570967D01*
X166781182Y-152579387D01*
G36*
X166781182Y-152579387D02*
G01*
X166849794Y-152606118D01*
X166907821Y-152650245D01*
X166950680Y-152710852D01*
X166953574Y-152717031D01*
X166971949Y-152777303D01*
X166981130Y-152849301D01*
X166981058Y-152924263D01*
X166971674Y-152993430D01*
X166952922Y-153048043D01*
X166929768Y-153086106D01*
X166878803Y-153140029D01*
X166815079Y-153174305D01*
X166760558Y-153188166D01*
X166677540Y-153189679D01*
X166598099Y-153168776D01*
X166527652Y-153126358D01*
X166482057Y-153088774D01*
X166523124Y-153046404D01*
X166549069Y-153021303D01*
X166572537Y-153007328D01*
X166594297Y-153010405D01*
X166622129Y-153029181D01*
X166633227Y-153036532D01*
X166680110Y-153051577D01*
X166733997Y-153051567D01*
X166784448Y-153036062D01*
X166803445Y-153023610D01*
X166831310Y-152986840D01*
X166845279Y-152932833D01*
X166846178Y-152859225D01*
X166846176Y-152859183D01*
X166835782Y-152793327D01*
X166812887Y-152747666D01*
X166775212Y-152719422D01*
X166720481Y-152705814D01*
X166686014Y-152703984D01*
X166655899Y-152711478D01*
X166625013Y-152733189D01*
X166585045Y-152766820D01*
X166534429Y-152726144D01*
X166515936Y-152710561D01*
X166492838Y-152688234D01*
X166483812Y-152675077D01*
X166487009Y-152669147D01*
X166505419Y-152650942D01*
X166534746Y-152627789D01*
X166557693Y-152612724D01*
X166630547Y-152581774D01*
X166706572Y-152570967D01*
X166781182Y-152579387D01*
G37*
X168580630Y-152921665D02*
X168577122Y-152961459D01*
X168561617Y-153037432D01*
X168533883Y-153095405D01*
X168491671Y-153139194D01*
X168432733Y-153172616D01*
X168409849Y-153180570D01*
X168350585Y-153190495D01*
X168288220Y-153190225D01*
X168235596Y-153179324D01*
X168234562Y-153178928D01*
X168192154Y-153153981D01*
X168149310Y-153115362D01*
X168113759Y-153071200D01*
X168093232Y-153029621D01*
X168087147Y-152999228D01*
X168081937Y-152942323D01*
X168081064Y-152891599D01*
X168207749Y-152891599D01*
X168215322Y-152952439D01*
X168233114Y-153002432D01*
X168260069Y-153035098D01*
X168270286Y-153040706D01*
X168309246Y-153050901D01*
X168354309Y-153052998D01*
X168392221Y-153045914D01*
X168407017Y-153035755D01*
X168427787Y-153000228D01*
X168440856Y-152944626D01*
X168445397Y-152871660D01*
X168445324Y-152850656D01*
X168443747Y-152808097D01*
X168438501Y-152780333D01*
X168427496Y-152759819D01*
X168408641Y-152739006D01*
X168372762Y-152713781D01*
X168326053Y-152703467D01*
X168280924Y-152713290D01*
X168243453Y-152741699D01*
X168219716Y-152787147D01*
X168211448Y-152826391D01*
X168207749Y-152891599D01*
X168081064Y-152891599D01*
X168080822Y-152877515D01*
X168083617Y-152813010D01*
X168090139Y-152757015D01*
X168100205Y-152717736D01*
X168123650Y-152673266D01*
X168173410Y-152618586D01*
X168237011Y-152583949D01*
X168312563Y-152570239D01*
X168398172Y-152578342D01*
X168412417Y-152581793D01*
X168478755Y-152611558D01*
X168528744Y-152660424D01*
X168562385Y-152728395D01*
X168579679Y-152815474D01*
X168580183Y-152871660D01*
X168580630Y-152921665D01*
G36*
X168580630Y-152921665D02*
G01*
X168577122Y-152961459D01*
X168561617Y-153037432D01*
X168533883Y-153095405D01*
X168491671Y-153139194D01*
X168432733Y-153172616D01*
X168409849Y-153180570D01*
X168350585Y-153190495D01*
X168288220Y-153190225D01*
X168235596Y-153179324D01*
X168234562Y-153178928D01*
X168192154Y-153153981D01*
X168149310Y-153115362D01*
X168113759Y-153071200D01*
X168093232Y-153029621D01*
X168087147Y-152999228D01*
X168081937Y-152942323D01*
X168081064Y-152891599D01*
X168207749Y-152891599D01*
X168215322Y-152952439D01*
X168233114Y-153002432D01*
X168260069Y-153035098D01*
X168270286Y-153040706D01*
X168309246Y-153050901D01*
X168354309Y-153052998D01*
X168392221Y-153045914D01*
X168407017Y-153035755D01*
X168427787Y-153000228D01*
X168440856Y-152944626D01*
X168445397Y-152871660D01*
X168445324Y-152850656D01*
X168443747Y-152808097D01*
X168438501Y-152780333D01*
X168427496Y-152759819D01*
X168408641Y-152739006D01*
X168372762Y-152713781D01*
X168326053Y-152703467D01*
X168280924Y-152713290D01*
X168243453Y-152741699D01*
X168219716Y-152787147D01*
X168211448Y-152826391D01*
X168207749Y-152891599D01*
X168081064Y-152891599D01*
X168080822Y-152877515D01*
X168083617Y-152813010D01*
X168090139Y-152757015D01*
X168100205Y-152717736D01*
X168123650Y-152673266D01*
X168173410Y-152618586D01*
X168237011Y-152583949D01*
X168312563Y-152570239D01*
X168398172Y-152578342D01*
X168412417Y-152581793D01*
X168478755Y-152611558D01*
X168528744Y-152660424D01*
X168562385Y-152728395D01*
X168579679Y-152815474D01*
X168580183Y-152871660D01*
X168580630Y-152921665D01*
G37*
X168680770Y-153717024D02*
X168697770Y-153767744D01*
X168717880Y-153823891D01*
X168734672Y-153866426D01*
X168746759Y-153891884D01*
X168752753Y-153896797D01*
X168754199Y-153892524D01*
X168762027Y-153866316D01*
X168774496Y-153822543D01*
X168790220Y-153766105D01*
X168807816Y-153701904D01*
X168855687Y-153525865D01*
X168928780Y-153522046D01*
X168934950Y-153521740D01*
X168974365Y-153521335D01*
X168993306Y-153525381D01*
X168995718Y-153534620D01*
X168992671Y-153543643D01*
X168982647Y-153574526D01*
X168966953Y-153623438D01*
X168946707Y-153686881D01*
X168923029Y-153761356D01*
X168897036Y-153843365D01*
X168804509Y-154135716D01*
X168688766Y-154135716D01*
X168634230Y-153950246D01*
X168624159Y-153916188D01*
X168605548Y-153854272D01*
X168589645Y-153802681D01*
X168577882Y-153766024D01*
X168571691Y-153748912D01*
X168569927Y-153747635D01*
X168561344Y-153758673D01*
X168549089Y-153787863D01*
X168535199Y-153830644D01*
X168534465Y-153833157D01*
X168515869Y-153896294D01*
X168494591Y-153967783D01*
X168475094Y-154032628D01*
X168443478Y-154137016D01*
X168385175Y-154133222D01*
X168326871Y-154129429D01*
X168272871Y-153959676D01*
X168249163Y-153885087D01*
X168222606Y-153801433D01*
X168197177Y-153721236D01*
X168176127Y-153654751D01*
X168133382Y-153519577D01*
X168276385Y-153519577D01*
X168311047Y-153648464D01*
X168320261Y-153682519D01*
X168337688Y-153746009D01*
X168353827Y-153803768D01*
X168366095Y-153846508D01*
X168386482Y-153915667D01*
X168516518Y-153525865D01*
X168566249Y-153522131D01*
X168615979Y-153518398D01*
X168680770Y-153717024D01*
G36*
X168680770Y-153717024D02*
G01*
X168697770Y-153767744D01*
X168717880Y-153823891D01*
X168734672Y-153866426D01*
X168746759Y-153891884D01*
X168752753Y-153896797D01*
X168754199Y-153892524D01*
X168762027Y-153866316D01*
X168774496Y-153822543D01*
X168790220Y-153766105D01*
X168807816Y-153701904D01*
X168855687Y-153525865D01*
X168928780Y-153522046D01*
X168934950Y-153521740D01*
X168974365Y-153521335D01*
X168993306Y-153525381D01*
X168995718Y-153534620D01*
X168992671Y-153543643D01*
X168982647Y-153574526D01*
X168966953Y-153623438D01*
X168946707Y-153686881D01*
X168923029Y-153761356D01*
X168897036Y-153843365D01*
X168804509Y-154135716D01*
X168688766Y-154135716D01*
X168634230Y-153950246D01*
X168624159Y-153916188D01*
X168605548Y-153854272D01*
X168589645Y-153802681D01*
X168577882Y-153766024D01*
X168571691Y-153748912D01*
X168569927Y-153747635D01*
X168561344Y-153758673D01*
X168549089Y-153787863D01*
X168535199Y-153830644D01*
X168534465Y-153833157D01*
X168515869Y-153896294D01*
X168494591Y-153967783D01*
X168475094Y-154032628D01*
X168443478Y-154137016D01*
X168385175Y-154133222D01*
X168326871Y-154129429D01*
X168272871Y-153959676D01*
X168249163Y-153885087D01*
X168222606Y-153801433D01*
X168197177Y-153721236D01*
X168176127Y-153654751D01*
X168133382Y-153519577D01*
X168276385Y-153519577D01*
X168311047Y-153648464D01*
X168320261Y-153682519D01*
X168337688Y-153746009D01*
X168353827Y-153803768D01*
X168366095Y-153846508D01*
X168386482Y-153915667D01*
X168516518Y-153525865D01*
X168566249Y-153522131D01*
X168615979Y-153518398D01*
X168680770Y-153717024D01*
G37*
X171712770Y-152912825D02*
X171711146Y-152952204D01*
X171707461Y-153000226D01*
X171701183Y-153034262D01*
X171690817Y-153061232D01*
X171674865Y-153088052D01*
X171674185Y-153089069D01*
X171634905Y-153132523D01*
X171586845Y-153165666D01*
X171530958Y-153185333D01*
X171457439Y-153191718D01*
X171385382Y-153179162D01*
X171320974Y-153148905D01*
X171270400Y-153102188D01*
X171255881Y-153080115D01*
X171228766Y-153011496D01*
X171215319Y-152926833D01*
X171215549Y-152905417D01*
X171350693Y-152905417D01*
X171350947Y-152945468D01*
X171355194Y-152972207D01*
X171364869Y-152992753D01*
X171381411Y-153014225D01*
X171404366Y-153035533D01*
X171450278Y-153054547D01*
X171499575Y-153051016D01*
X171546690Y-153024588D01*
X171559980Y-153011966D01*
X171574170Y-152990359D01*
X171582039Y-152959988D01*
X171586499Y-152912664D01*
X171587728Y-152877113D01*
X171580997Y-152804514D01*
X171560340Y-152752536D01*
X171525667Y-152720893D01*
X171485022Y-152705741D01*
X171436550Y-152707017D01*
X171391618Y-152732597D01*
X171380876Y-152742336D01*
X171367321Y-152759374D01*
X171359278Y-152781666D01*
X171354816Y-152815841D01*
X171352001Y-152868532D01*
X171350693Y-152905417D01*
X171215549Y-152905417D01*
X171216356Y-152830245D01*
X171217680Y-152816545D01*
X171236147Y-152728802D01*
X171270313Y-152660687D01*
X171320252Y-152612125D01*
X171386034Y-152583042D01*
X171467734Y-152573365D01*
X171498601Y-152574273D01*
X171561901Y-152585387D01*
X171613662Y-152611915D01*
X171661920Y-152657330D01*
X171669638Y-152666445D01*
X171690454Y-152697142D01*
X171704135Y-152731901D01*
X171711721Y-152775950D01*
X171714252Y-152834515D01*
X171713445Y-152877113D01*
X171712770Y-152912825D01*
G36*
X171712770Y-152912825D02*
G01*
X171711146Y-152952204D01*
X171707461Y-153000226D01*
X171701183Y-153034262D01*
X171690817Y-153061232D01*
X171674865Y-153088052D01*
X171674185Y-153089069D01*
X171634905Y-153132523D01*
X171586845Y-153165666D01*
X171530958Y-153185333D01*
X171457439Y-153191718D01*
X171385382Y-153179162D01*
X171320974Y-153148905D01*
X171270400Y-153102188D01*
X171255881Y-153080115D01*
X171228766Y-153011496D01*
X171215319Y-152926833D01*
X171215549Y-152905417D01*
X171350693Y-152905417D01*
X171350947Y-152945468D01*
X171355194Y-152972207D01*
X171364869Y-152992753D01*
X171381411Y-153014225D01*
X171404366Y-153035533D01*
X171450278Y-153054547D01*
X171499575Y-153051016D01*
X171546690Y-153024588D01*
X171559980Y-153011966D01*
X171574170Y-152990359D01*
X171582039Y-152959988D01*
X171586499Y-152912664D01*
X171587728Y-152877113D01*
X171580997Y-152804514D01*
X171560340Y-152752536D01*
X171525667Y-152720893D01*
X171485022Y-152705741D01*
X171436550Y-152707017D01*
X171391618Y-152732597D01*
X171380876Y-152742336D01*
X171367321Y-152759374D01*
X171359278Y-152781666D01*
X171354816Y-152815841D01*
X171352001Y-152868532D01*
X171350693Y-152905417D01*
X171215549Y-152905417D01*
X171216356Y-152830245D01*
X171217680Y-152816545D01*
X171236147Y-152728802D01*
X171270313Y-152660687D01*
X171320252Y-152612125D01*
X171386034Y-152583042D01*
X171467734Y-152573365D01*
X171498601Y-152574273D01*
X171561901Y-152585387D01*
X171613662Y-152611915D01*
X171661920Y-152657330D01*
X171669638Y-152666445D01*
X171690454Y-152697142D01*
X171704135Y-152731901D01*
X171711721Y-152775950D01*
X171714252Y-152834515D01*
X171713445Y-152877113D01*
X171712770Y-152912825D01*
G37*
X169538534Y-153874707D02*
X169536940Y-153928465D01*
X169533735Y-153965912D01*
X169533186Y-153969344D01*
X169511611Y-154030729D01*
X169472211Y-154082771D01*
X169420525Y-154118029D01*
X169365021Y-154132623D01*
X169296750Y-154131491D01*
X169233946Y-154111923D01*
X169217588Y-154103665D01*
X169196552Y-154094817D01*
X169188547Y-154097570D01*
X169187278Y-154111923D01*
X169186695Y-154119080D01*
X169179167Y-154129666D01*
X169158261Y-154134539D01*
X169118119Y-154135716D01*
X169048961Y-154135716D01*
X169048961Y-153833824D01*
X169187278Y-153833824D01*
X169188269Y-153886124D01*
X169192292Y-153920944D01*
X169200881Y-153944799D01*
X169215570Y-153964789D01*
X169254357Y-153994512D01*
X169299747Y-154004476D01*
X169343762Y-153992154D01*
X169380833Y-153957782D01*
X169390632Y-153932629D01*
X169397870Y-153888088D01*
X169401052Y-153834049D01*
X169400050Y-153778622D01*
X169394734Y-153729916D01*
X169384977Y-153696042D01*
X169381860Y-153690487D01*
X169351811Y-153662568D01*
X169311088Y-153650200D01*
X169267352Y-153653077D01*
X169228264Y-153670894D01*
X169201483Y-153703346D01*
X169200376Y-153706075D01*
X169193736Y-153736528D01*
X169189051Y-153782033D01*
X169187278Y-153833824D01*
X169048961Y-153833824D01*
X169048961Y-153280667D01*
X169187278Y-153280667D01*
X169187278Y-153573772D01*
X169212897Y-153550587D01*
X169237565Y-153536176D01*
X169284253Y-153524130D01*
X169338829Y-153520248D01*
X169392127Y-153525014D01*
X169434980Y-153538908D01*
X169465651Y-153558673D01*
X169497244Y-153592343D01*
X169518506Y-153637624D01*
X169531287Y-153698875D01*
X169537437Y-153780457D01*
X169538341Y-153813434D01*
X169538406Y-153834049D01*
X169538534Y-153874707D01*
G36*
X169538534Y-153874707D02*
G01*
X169536940Y-153928465D01*
X169533735Y-153965912D01*
X169533186Y-153969344D01*
X169511611Y-154030729D01*
X169472211Y-154082771D01*
X169420525Y-154118029D01*
X169365021Y-154132623D01*
X169296750Y-154131491D01*
X169233946Y-154111923D01*
X169217588Y-154103665D01*
X169196552Y-154094817D01*
X169188547Y-154097570D01*
X169187278Y-154111923D01*
X169186695Y-154119080D01*
X169179167Y-154129666D01*
X169158261Y-154134539D01*
X169118119Y-154135716D01*
X169048961Y-154135716D01*
X169048961Y-153833824D01*
X169187278Y-153833824D01*
X169188269Y-153886124D01*
X169192292Y-153920944D01*
X169200881Y-153944799D01*
X169215570Y-153964789D01*
X169254357Y-153994512D01*
X169299747Y-154004476D01*
X169343762Y-153992154D01*
X169380833Y-153957782D01*
X169390632Y-153932629D01*
X169397870Y-153888088D01*
X169401052Y-153834049D01*
X169400050Y-153778622D01*
X169394734Y-153729916D01*
X169384977Y-153696042D01*
X169381860Y-153690487D01*
X169351811Y-153662568D01*
X169311088Y-153650200D01*
X169267352Y-153653077D01*
X169228264Y-153670894D01*
X169201483Y-153703346D01*
X169200376Y-153706075D01*
X169193736Y-153736528D01*
X169189051Y-153782033D01*
X169187278Y-153833824D01*
X169048961Y-153833824D01*
X169048961Y-153280667D01*
X169187278Y-153280667D01*
X169187278Y-153573772D01*
X169212897Y-153550587D01*
X169237565Y-153536176D01*
X169284253Y-153524130D01*
X169338829Y-153520248D01*
X169392127Y-153525014D01*
X169434980Y-153538908D01*
X169465651Y-153558673D01*
X169497244Y-153592343D01*
X169518506Y-153637624D01*
X169531287Y-153698875D01*
X169537437Y-153780457D01*
X169538341Y-153813434D01*
X169538406Y-153834049D01*
X169538534Y-153874707D01*
G37*
X166467217Y-152837772D02*
X166465598Y-152934015D01*
X166465388Y-152935908D01*
X166447308Y-153024219D01*
X166414643Y-153092880D01*
X166366374Y-153143400D01*
X166301486Y-153177287D01*
X166289574Y-153181162D01*
X166215744Y-153192582D01*
X166139387Y-153186214D01*
X166068399Y-153163457D01*
X166010677Y-153125713D01*
X165967440Y-153085766D01*
X166013398Y-153049426D01*
X166059356Y-153013087D01*
X166114742Y-153039995D01*
X166178829Y-153061799D01*
X166235405Y-153062452D01*
X166281693Y-153042419D01*
X166315003Y-153002209D01*
X166326944Y-152978116D01*
X166333610Y-152957524D01*
X166329753Y-152943614D01*
X166312448Y-152935075D01*
X166278770Y-152930598D01*
X166225794Y-152928872D01*
X166150595Y-152928587D01*
X165968268Y-152928587D01*
X165968268Y-152841386D01*
X165969630Y-152803104D01*
X166098007Y-152803104D01*
X166104172Y-152810145D01*
X166122427Y-152813810D01*
X166157125Y-152815200D01*
X166212619Y-152815419D01*
X166242376Y-152815070D01*
X166289335Y-152812761D01*
X166321189Y-152808716D01*
X166332921Y-152803436D01*
X166329919Y-152783956D01*
X166308761Y-152746680D01*
X166273504Y-152716058D01*
X166231472Y-152697562D01*
X166189993Y-152696667D01*
X166158770Y-152711498D01*
X166123391Y-152745249D01*
X166100895Y-152787127D01*
X166099578Y-152791584D01*
X166098007Y-152803104D01*
X165969630Y-152803104D01*
X165969909Y-152795265D01*
X165974728Y-152749634D01*
X165981613Y-152718787D01*
X165986632Y-152707011D01*
X166023163Y-152654561D01*
X166075948Y-152610815D01*
X166137677Y-152582173D01*
X166169875Y-152574351D01*
X166246593Y-152570790D01*
X166314952Y-152588903D01*
X166373072Y-152626673D01*
X166419075Y-152682085D01*
X166451083Y-152753123D01*
X166460673Y-152803436D01*
X166467217Y-152837772D01*
G36*
X166467217Y-152837772D02*
G01*
X166465598Y-152934015D01*
X166465388Y-152935908D01*
X166447308Y-153024219D01*
X166414643Y-153092880D01*
X166366374Y-153143400D01*
X166301486Y-153177287D01*
X166289574Y-153181162D01*
X166215744Y-153192582D01*
X166139387Y-153186214D01*
X166068399Y-153163457D01*
X166010677Y-153125713D01*
X165967440Y-153085766D01*
X166013398Y-153049426D01*
X166059356Y-153013087D01*
X166114742Y-153039995D01*
X166178829Y-153061799D01*
X166235405Y-153062452D01*
X166281693Y-153042419D01*
X166315003Y-153002209D01*
X166326944Y-152978116D01*
X166333610Y-152957524D01*
X166329753Y-152943614D01*
X166312448Y-152935075D01*
X166278770Y-152930598D01*
X166225794Y-152928872D01*
X166150595Y-152928587D01*
X165968268Y-152928587D01*
X165968268Y-152841386D01*
X165969630Y-152803104D01*
X166098007Y-152803104D01*
X166104172Y-152810145D01*
X166122427Y-152813810D01*
X166157125Y-152815200D01*
X166212619Y-152815419D01*
X166242376Y-152815070D01*
X166289335Y-152812761D01*
X166321189Y-152808716D01*
X166332921Y-152803436D01*
X166329919Y-152783956D01*
X166308761Y-152746680D01*
X166273504Y-152716058D01*
X166231472Y-152697562D01*
X166189993Y-152696667D01*
X166158770Y-152711498D01*
X166123391Y-152745249D01*
X166100895Y-152787127D01*
X166099578Y-152791584D01*
X166098007Y-152803104D01*
X165969630Y-152803104D01*
X165969909Y-152795265D01*
X165974728Y-152749634D01*
X165981613Y-152718787D01*
X165986632Y-152707011D01*
X166023163Y-152654561D01*
X166075948Y-152610815D01*
X166137677Y-152582173D01*
X166169875Y-152574351D01*
X166246593Y-152570790D01*
X166314952Y-152588903D01*
X166373072Y-152626673D01*
X166419075Y-152682085D01*
X166451083Y-152753123D01*
X166460673Y-152803436D01*
X166467217Y-152837772D01*
G37*
X168946647Y-152576101D02*
X169019268Y-152594302D01*
X169072319Y-152628038D01*
X169106102Y-152677536D01*
X169120920Y-152743020D01*
X169117920Y-152805714D01*
X169096266Y-152858593D01*
X169054740Y-152897690D01*
X168992509Y-152923767D01*
X168908742Y-152937589D01*
X168854313Y-152944834D01*
X168804633Y-152960509D01*
X168778984Y-152983208D01*
X168777435Y-153012892D01*
X168787757Y-153031401D01*
X168819724Y-153053337D01*
X168865168Y-153063712D01*
X168918422Y-153062293D01*
X168973821Y-153048846D01*
X169025701Y-153023137D01*
X169077426Y-152988907D01*
X169122921Y-153034943D01*
X169168416Y-153080978D01*
X169130694Y-153111770D01*
X169116026Y-153122468D01*
X169074756Y-153146774D01*
X169030100Y-153167719D01*
X168994757Y-153179739D01*
X168943007Y-153188446D01*
X168879208Y-153188561D01*
X168800973Y-153178975D01*
X168730495Y-153154677D01*
X168680609Y-153116082D01*
X168651196Y-153063092D01*
X168642138Y-152995612D01*
X168648694Y-152936248D01*
X168669743Y-152887646D01*
X168707637Y-152852840D01*
X168764777Y-152829692D01*
X168843558Y-152816064D01*
X168852607Y-152815077D01*
X168901658Y-152808786D01*
X168941448Y-152802203D01*
X168964085Y-152796602D01*
X168971639Y-152792091D01*
X168984410Y-152768835D01*
X168982336Y-152739065D01*
X168965268Y-152713221D01*
X168956306Y-152707585D01*
X168918961Y-152698554D01*
X168870723Y-152699161D01*
X168820423Y-152708772D01*
X168776888Y-152726752D01*
X168731145Y-152753741D01*
X168695663Y-152712278D01*
X168687053Y-152701744D01*
X168667656Y-152673526D01*
X168659670Y-152654402D01*
X168668056Y-152642675D01*
X168693999Y-152624370D01*
X168731461Y-152604671D01*
X168736739Y-152602264D01*
X168786139Y-152583376D01*
X168833756Y-152574346D01*
X168892845Y-152572533D01*
X168946647Y-152576101D01*
G36*
X168946647Y-152576101D02*
G01*
X169019268Y-152594302D01*
X169072319Y-152628038D01*
X169106102Y-152677536D01*
X169120920Y-152743020D01*
X169117920Y-152805714D01*
X169096266Y-152858593D01*
X169054740Y-152897690D01*
X168992509Y-152923767D01*
X168908742Y-152937589D01*
X168854313Y-152944834D01*
X168804633Y-152960509D01*
X168778984Y-152983208D01*
X168777435Y-153012892D01*
X168787757Y-153031401D01*
X168819724Y-153053337D01*
X168865168Y-153063712D01*
X168918422Y-153062293D01*
X168973821Y-153048846D01*
X169025701Y-153023137D01*
X169077426Y-152988907D01*
X169122921Y-153034943D01*
X169168416Y-153080978D01*
X169130694Y-153111770D01*
X169116026Y-153122468D01*
X169074756Y-153146774D01*
X169030100Y-153167719D01*
X168994757Y-153179739D01*
X168943007Y-153188446D01*
X168879208Y-153188561D01*
X168800973Y-153178975D01*
X168730495Y-153154677D01*
X168680609Y-153116082D01*
X168651196Y-153063092D01*
X168642138Y-152995612D01*
X168648694Y-152936248D01*
X168669743Y-152887646D01*
X168707637Y-152852840D01*
X168764777Y-152829692D01*
X168843558Y-152816064D01*
X168852607Y-152815077D01*
X168901658Y-152808786D01*
X168941448Y-152802203D01*
X168964085Y-152796602D01*
X168971639Y-152792091D01*
X168984410Y-152768835D01*
X168982336Y-152739065D01*
X168965268Y-152713221D01*
X168956306Y-152707585D01*
X168918961Y-152698554D01*
X168870723Y-152699161D01*
X168820423Y-152708772D01*
X168776888Y-152726752D01*
X168731145Y-152753741D01*
X168695663Y-152712278D01*
X168687053Y-152701744D01*
X168667656Y-152673526D01*
X168659670Y-152654402D01*
X168668056Y-152642675D01*
X168693999Y-152624370D01*
X168731461Y-152604671D01*
X168736739Y-152602264D01*
X168786139Y-152583376D01*
X168833756Y-152574346D01*
X168892845Y-152572533D01*
X168946647Y-152576101D01*
G37*
X167112126Y-153827647D02*
X167110491Y-153874586D01*
X167095600Y-153964353D01*
X167064958Y-154034939D01*
X167018297Y-154086846D01*
X166955347Y-154120580D01*
X166935008Y-154126541D01*
X166862385Y-154134865D01*
X166785701Y-154127840D01*
X166716436Y-154106159D01*
X166692035Y-154093853D01*
X166657048Y-154072773D01*
X166635845Y-154055428D01*
X166632715Y-154051465D01*
X166626858Y-154036971D01*
X166635297Y-154021215D01*
X166660994Y-153997354D01*
X166673395Y-153986966D01*
X166697825Y-153967957D01*
X166710634Y-153960187D01*
X166714303Y-153960988D01*
X166735334Y-153969639D01*
X166766733Y-153984825D01*
X166776970Y-153989820D01*
X166837363Y-154008369D01*
X166889830Y-154003588D01*
X166935838Y-153975394D01*
X166941192Y-153970185D01*
X166966786Y-153937553D01*
X166981410Y-153906236D01*
X166989509Y-153871657D01*
X166609555Y-153871657D01*
X166609625Y-153805642D01*
X166609665Y-153799076D01*
X166614795Y-153746112D01*
X166747872Y-153746112D01*
X166749443Y-153757097D01*
X166757511Y-153764667D01*
X166776740Y-153768869D01*
X166811792Y-153770677D01*
X166867327Y-153771063D01*
X166898202Y-153770662D01*
X166943775Y-153768323D01*
X166975121Y-153764359D01*
X166986783Y-153759307D01*
X166976837Y-153717721D01*
X166947720Y-153678907D01*
X166905725Y-153651980D01*
X166857213Y-153642666D01*
X166821496Y-153653166D01*
X166785793Y-153678834D01*
X166758652Y-153712275D01*
X166747872Y-153746112D01*
X166614795Y-153746112D01*
X166617531Y-153717859D01*
X166640428Y-153651789D01*
X166680380Y-153594834D01*
X166704752Y-153570742D01*
X166755088Y-153538491D01*
X166815192Y-153522864D01*
X166891111Y-153521765D01*
X166927783Y-153526073D01*
X166995476Y-153548443D01*
X167047303Y-153589157D01*
X167083718Y-153648843D01*
X167105174Y-153728130D01*
X167107352Y-153759307D01*
X167112126Y-153827647D01*
G36*
X167112126Y-153827647D02*
G01*
X167110491Y-153874586D01*
X167095600Y-153964353D01*
X167064958Y-154034939D01*
X167018297Y-154086846D01*
X166955347Y-154120580D01*
X166935008Y-154126541D01*
X166862385Y-154134865D01*
X166785701Y-154127840D01*
X166716436Y-154106159D01*
X166692035Y-154093853D01*
X166657048Y-154072773D01*
X166635845Y-154055428D01*
X166632715Y-154051465D01*
X166626858Y-154036971D01*
X166635297Y-154021215D01*
X166660994Y-153997354D01*
X166673395Y-153986966D01*
X166697825Y-153967957D01*
X166710634Y-153960187D01*
X166714303Y-153960988D01*
X166735334Y-153969639D01*
X166766733Y-153984825D01*
X166776970Y-153989820D01*
X166837363Y-154008369D01*
X166889830Y-154003588D01*
X166935838Y-153975394D01*
X166941192Y-153970185D01*
X166966786Y-153937553D01*
X166981410Y-153906236D01*
X166989509Y-153871657D01*
X166609555Y-153871657D01*
X166609625Y-153805642D01*
X166609665Y-153799076D01*
X166614795Y-153746112D01*
X166747872Y-153746112D01*
X166749443Y-153757097D01*
X166757511Y-153764667D01*
X166776740Y-153768869D01*
X166811792Y-153770677D01*
X166867327Y-153771063D01*
X166898202Y-153770662D01*
X166943775Y-153768323D01*
X166975121Y-153764359D01*
X166986783Y-153759307D01*
X166976837Y-153717721D01*
X166947720Y-153678907D01*
X166905725Y-153651980D01*
X166857213Y-153642666D01*
X166821496Y-153653166D01*
X166785793Y-153678834D01*
X166758652Y-153712275D01*
X166747872Y-153746112D01*
X166614795Y-153746112D01*
X166617531Y-153717859D01*
X166640428Y-153651789D01*
X166680380Y-153594834D01*
X166704752Y-153570742D01*
X166755088Y-153538491D01*
X166815192Y-153522864D01*
X166891111Y-153521765D01*
X166927783Y-153526073D01*
X166995476Y-153548443D01*
X167047303Y-153589157D01*
X167083718Y-153648843D01*
X167105174Y-153728130D01*
X167107352Y-153759307D01*
X167112126Y-153827647D01*
G37*
X170554795Y-152802755D02*
X170559194Y-152890830D01*
X170558095Y-152929265D01*
X170545699Y-153013261D01*
X170518381Y-153079489D01*
X170474714Y-153130678D01*
X170413268Y-153169557D01*
X170353661Y-153187706D01*
X170278883Y-153191178D01*
X170203437Y-153177824D01*
X170136139Y-153148319D01*
X170111201Y-153131906D01*
X170083724Y-153110867D01*
X170071187Y-153097023D01*
X170071897Y-153091311D01*
X170085931Y-153071849D01*
X170112306Y-153048270D01*
X170158013Y-153013407D01*
X170211572Y-153040156D01*
X170226055Y-153046776D01*
X170268689Y-153061167D01*
X170304422Y-153066904D01*
X170330771Y-153062176D01*
X170372120Y-153039408D01*
X170406877Y-153004064D01*
X170426756Y-152963167D01*
X170434856Y-152928587D01*
X170054902Y-152928587D01*
X170054972Y-152862573D01*
X170055547Y-152841651D01*
X170059745Y-152796756D01*
X170193218Y-152796756D01*
X170193463Y-152799328D01*
X170200377Y-152807337D01*
X170219914Y-152812258D01*
X170256240Y-152814737D01*
X170313521Y-152815419D01*
X170332348Y-152815411D01*
X170381243Y-152814959D01*
X170410636Y-152813007D01*
X170424888Y-152808452D01*
X170428355Y-152800193D01*
X170425398Y-152787127D01*
X170424946Y-152785646D01*
X170399472Y-152740179D01*
X170359312Y-152708875D01*
X170311424Y-152697221D01*
X170293722Y-152698153D01*
X170260867Y-152709302D01*
X170229348Y-152737657D01*
X170220858Y-152747683D01*
X170201109Y-152776317D01*
X170193218Y-152796756D01*
X170059745Y-152796756D01*
X170060285Y-152790985D01*
X170068232Y-152749060D01*
X170076941Y-152725590D01*
X170107563Y-152674540D01*
X170148572Y-152628177D01*
X170191941Y-152596408D01*
X170204472Y-152590508D01*
X170277434Y-152570940D01*
X170351941Y-152573003D01*
X170421990Y-152595825D01*
X170481580Y-152638533D01*
X170513811Y-152677919D01*
X170540165Y-152733404D01*
X170554255Y-152800193D01*
X170554795Y-152802755D01*
G36*
X170554795Y-152802755D02*
G01*
X170559194Y-152890830D01*
X170558095Y-152929265D01*
X170545699Y-153013261D01*
X170518381Y-153079489D01*
X170474714Y-153130678D01*
X170413268Y-153169557D01*
X170353661Y-153187706D01*
X170278883Y-153191178D01*
X170203437Y-153177824D01*
X170136139Y-153148319D01*
X170111201Y-153131906D01*
X170083724Y-153110867D01*
X170071187Y-153097023D01*
X170071897Y-153091311D01*
X170085931Y-153071849D01*
X170112306Y-153048270D01*
X170158013Y-153013407D01*
X170211572Y-153040156D01*
X170226055Y-153046776D01*
X170268689Y-153061167D01*
X170304422Y-153066904D01*
X170330771Y-153062176D01*
X170372120Y-153039408D01*
X170406877Y-153004064D01*
X170426756Y-152963167D01*
X170434856Y-152928587D01*
X170054902Y-152928587D01*
X170054972Y-152862573D01*
X170055547Y-152841651D01*
X170059745Y-152796756D01*
X170193218Y-152796756D01*
X170193463Y-152799328D01*
X170200377Y-152807337D01*
X170219914Y-152812258D01*
X170256240Y-152814737D01*
X170313521Y-152815419D01*
X170332348Y-152815411D01*
X170381243Y-152814959D01*
X170410636Y-152813007D01*
X170424888Y-152808452D01*
X170428355Y-152800193D01*
X170425398Y-152787127D01*
X170424946Y-152785646D01*
X170399472Y-152740179D01*
X170359312Y-152708875D01*
X170311424Y-152697221D01*
X170293722Y-152698153D01*
X170260867Y-152709302D01*
X170229348Y-152737657D01*
X170220858Y-152747683D01*
X170201109Y-152776317D01*
X170193218Y-152796756D01*
X170059745Y-152796756D01*
X170060285Y-152790985D01*
X170068232Y-152749060D01*
X170076941Y-152725590D01*
X170107563Y-152674540D01*
X170148572Y-152628177D01*
X170191941Y-152596408D01*
X170204472Y-152590508D01*
X170277434Y-152570940D01*
X170351941Y-152573003D01*
X170421990Y-152595825D01*
X170481580Y-152638533D01*
X170513811Y-152677919D01*
X170540165Y-152733404D01*
X170554255Y-152800193D01*
X170554795Y-152802755D01*
G37*
X168137186Y-153970227D02*
X168122017Y-154027313D01*
X168089050Y-154076149D01*
X168039043Y-154111280D01*
X168034135Y-154113415D01*
X167979419Y-154128797D01*
X167917766Y-154134793D01*
X167859149Y-154131127D01*
X167813540Y-154117523D01*
X167795322Y-154108648D01*
X167781952Y-154106531D01*
X167778961Y-154117600D01*
X167773297Y-154127836D01*
X167751380Y-154133932D01*
X167708841Y-154135716D01*
X167638721Y-154135716D01*
X167642826Y-153893662D01*
X167643265Y-153871657D01*
X167778961Y-153871657D01*
X167778961Y-153915667D01*
X167783697Y-153948560D01*
X167804109Y-153984825D01*
X167811644Y-153991491D01*
X167842526Y-154005514D01*
X167888986Y-154009122D01*
X167916863Y-154007713D01*
X167969028Y-153997098D01*
X168001360Y-153977319D01*
X168012265Y-153949718D01*
X168000147Y-153915637D01*
X167993077Y-153906718D01*
X167961497Y-153886712D01*
X167911517Y-153875289D01*
X167840260Y-153871657D01*
X167778961Y-153871657D01*
X167643265Y-153871657D01*
X167643942Y-153837688D01*
X167646879Y-153753890D01*
X167651831Y-153689814D01*
X167659775Y-153641967D01*
X167671690Y-153606856D01*
X167688553Y-153580987D01*
X167711345Y-153560868D01*
X167741042Y-153543004D01*
X167756362Y-153536184D01*
X167809362Y-153523311D01*
X167873286Y-153517989D01*
X167939375Y-153520121D01*
X167998872Y-153529608D01*
X168043020Y-153546355D01*
X168058377Y-153556079D01*
X168093733Y-153584899D01*
X168105699Y-153609031D01*
X168102793Y-153613694D01*
X168084682Y-153629982D01*
X168055445Y-153651711D01*
X168040498Y-153661881D01*
X168015043Y-153676291D01*
X167998501Y-153677667D01*
X167983143Y-153667721D01*
X167944867Y-153647578D01*
X167893363Y-153639294D01*
X167840730Y-153645636D01*
X167839734Y-153645924D01*
X167802611Y-153662052D01*
X167784236Y-153687299D01*
X167779153Y-153729052D01*
X167778961Y-153768773D01*
X167910196Y-153773062D01*
X167931104Y-153773767D01*
X167983816Y-153776220D01*
X168019154Y-153780074D01*
X168043040Y-153786772D01*
X168061397Y-153797758D01*
X168080149Y-153814474D01*
X168111110Y-153853138D01*
X168133802Y-153910350D01*
X168136027Y-153949718D01*
X168137186Y-153970227D01*
G36*
X168137186Y-153970227D02*
G01*
X168122017Y-154027313D01*
X168089050Y-154076149D01*
X168039043Y-154111280D01*
X168034135Y-154113415D01*
X167979419Y-154128797D01*
X167917766Y-154134793D01*
X167859149Y-154131127D01*
X167813540Y-154117523D01*
X167795322Y-154108648D01*
X167781952Y-154106531D01*
X167778961Y-154117600D01*
X167773297Y-154127836D01*
X167751380Y-154133932D01*
X167708841Y-154135716D01*
X167638721Y-154135716D01*
X167642826Y-153893662D01*
X167643265Y-153871657D01*
X167778961Y-153871657D01*
X167778961Y-153915667D01*
X167783697Y-153948560D01*
X167804109Y-153984825D01*
X167811644Y-153991491D01*
X167842526Y-154005514D01*
X167888986Y-154009122D01*
X167916863Y-154007713D01*
X167969028Y-153997098D01*
X168001360Y-153977319D01*
X168012265Y-153949718D01*
X168000147Y-153915637D01*
X167993077Y-153906718D01*
X167961497Y-153886712D01*
X167911517Y-153875289D01*
X167840260Y-153871657D01*
X167778961Y-153871657D01*
X167643265Y-153871657D01*
X167643942Y-153837688D01*
X167646879Y-153753890D01*
X167651831Y-153689814D01*
X167659775Y-153641967D01*
X167671690Y-153606856D01*
X167688553Y-153580987D01*
X167711345Y-153560868D01*
X167741042Y-153543004D01*
X167756362Y-153536184D01*
X167809362Y-153523311D01*
X167873286Y-153517989D01*
X167939375Y-153520121D01*
X167998872Y-153529608D01*
X168043020Y-153546355D01*
X168058377Y-153556079D01*
X168093733Y-153584899D01*
X168105699Y-153609031D01*
X168102793Y-153613694D01*
X168084682Y-153629982D01*
X168055445Y-153651711D01*
X168040498Y-153661881D01*
X168015043Y-153676291D01*
X167998501Y-153677667D01*
X167983143Y-153667721D01*
X167944867Y-153647578D01*
X167893363Y-153639294D01*
X167840730Y-153645636D01*
X167839734Y-153645924D01*
X167802611Y-153662052D01*
X167784236Y-153687299D01*
X167779153Y-153729052D01*
X167778961Y-153768773D01*
X167910196Y-153773062D01*
X167931104Y-153773767D01*
X167983816Y-153776220D01*
X168019154Y-153780074D01*
X168043040Y-153786772D01*
X168061397Y-153797758D01*
X168080149Y-153814474D01*
X168111110Y-153853138D01*
X168133802Y-153910350D01*
X168136027Y-153949718D01*
X168137186Y-153970227D01*
G37*
X170555072Y-153968117D02*
X170554930Y-153969776D01*
X170539608Y-154034373D01*
X170505526Y-154082957D01*
X170450991Y-154117966D01*
X170422809Y-154126483D01*
X170374537Y-154133122D01*
X170321751Y-154134707D01*
X170274126Y-154131054D01*
X170241339Y-154121977D01*
X170221425Y-154114707D01*
X170201928Y-154121977D01*
X170194796Y-154126189D01*
X170166330Y-154133020D01*
X170127832Y-154135716D01*
X170067476Y-154135716D01*
X170067476Y-153892378D01*
X170067480Y-153871657D01*
X170205793Y-153871657D01*
X170205793Y-153920005D01*
X170210441Y-153956798D01*
X170228788Y-153989163D01*
X170239287Y-153996168D01*
X170276761Y-154007085D01*
X170323546Y-154009811D01*
X170369425Y-154004273D01*
X170404183Y-153990399D01*
X170421499Y-153972055D01*
X170432129Y-153939460D01*
X170422702Y-153913623D01*
X170391537Y-153891157D01*
X170341440Y-153876744D01*
X170275355Y-153871657D01*
X170205793Y-153871657D01*
X170067480Y-153871657D01*
X170067480Y-153871334D01*
X170067710Y-153792016D01*
X170068570Y-153733048D01*
X170070452Y-153690510D01*
X170073747Y-153660486D01*
X170078846Y-153639057D01*
X170086139Y-153622305D01*
X170096019Y-153606313D01*
X170127796Y-153568842D01*
X170172828Y-153540233D01*
X170231983Y-153524449D01*
X170309934Y-153519597D01*
X170312468Y-153519602D01*
X170366653Y-153522049D01*
X170415153Y-153528150D01*
X170448251Y-153536703D01*
X170457325Y-153540990D01*
X170486206Y-153559142D01*
X170512341Y-153580716D01*
X170529537Y-153600130D01*
X170531598Y-153611803D01*
X170527576Y-153614957D01*
X170483749Y-153648633D01*
X170454444Y-153668494D01*
X170435067Y-153676507D01*
X170421026Y-153674640D01*
X170407730Y-153664859D01*
X170383191Y-153652650D01*
X170341837Y-153644509D01*
X170295099Y-153642397D01*
X170252807Y-153646694D01*
X170224790Y-153657781D01*
X170223316Y-153659130D01*
X170210726Y-153684475D01*
X170205793Y-153722305D01*
X170205793Y-153771063D01*
X170322104Y-153771110D01*
X170375533Y-153771955D01*
X170420508Y-153775634D01*
X170452680Y-153783203D01*
X170478672Y-153795702D01*
X170484721Y-153799541D01*
X170528483Y-153841739D01*
X170551760Y-153897541D01*
X170553728Y-153939460D01*
X170555072Y-153968117D01*
G36*
X170555072Y-153968117D02*
G01*
X170554930Y-153969776D01*
X170539608Y-154034373D01*
X170505526Y-154082957D01*
X170450991Y-154117966D01*
X170422809Y-154126483D01*
X170374537Y-154133122D01*
X170321751Y-154134707D01*
X170274126Y-154131054D01*
X170241339Y-154121977D01*
X170221425Y-154114707D01*
X170201928Y-154121977D01*
X170194796Y-154126189D01*
X170166330Y-154133020D01*
X170127832Y-154135716D01*
X170067476Y-154135716D01*
X170067476Y-153892378D01*
X170067480Y-153871657D01*
X170205793Y-153871657D01*
X170205793Y-153920005D01*
X170210441Y-153956798D01*
X170228788Y-153989163D01*
X170239287Y-153996168D01*
X170276761Y-154007085D01*
X170323546Y-154009811D01*
X170369425Y-154004273D01*
X170404183Y-153990399D01*
X170421499Y-153972055D01*
X170432129Y-153939460D01*
X170422702Y-153913623D01*
X170391537Y-153891157D01*
X170341440Y-153876744D01*
X170275355Y-153871657D01*
X170205793Y-153871657D01*
X170067480Y-153871657D01*
X170067480Y-153871334D01*
X170067710Y-153792016D01*
X170068570Y-153733048D01*
X170070452Y-153690510D01*
X170073747Y-153660486D01*
X170078846Y-153639057D01*
X170086139Y-153622305D01*
X170096019Y-153606313D01*
X170127796Y-153568842D01*
X170172828Y-153540233D01*
X170231983Y-153524449D01*
X170309934Y-153519597D01*
X170312468Y-153519602D01*
X170366653Y-153522049D01*
X170415153Y-153528150D01*
X170448251Y-153536703D01*
X170457325Y-153540990D01*
X170486206Y-153559142D01*
X170512341Y-153580716D01*
X170529537Y-153600130D01*
X170531598Y-153611803D01*
X170527576Y-153614957D01*
X170483749Y-153648633D01*
X170454444Y-153668494D01*
X170435067Y-153676507D01*
X170421026Y-153674640D01*
X170407730Y-153664859D01*
X170383191Y-153652650D01*
X170341837Y-153644509D01*
X170295099Y-153642397D01*
X170252807Y-153646694D01*
X170224790Y-153657781D01*
X170223316Y-153659130D01*
X170210726Y-153684475D01*
X170205793Y-153722305D01*
X170205793Y-153771063D01*
X170322104Y-153771110D01*
X170375533Y-153771955D01*
X170420508Y-153775634D01*
X170452680Y-153783203D01*
X170478672Y-153795702D01*
X170484721Y-153799541D01*
X170528483Y-153841739D01*
X170551760Y-153897541D01*
X170553728Y-153939460D01*
X170555072Y-153968117D01*
G37*
X171123713Y-154137030D02*
X171057699Y-154133230D01*
X170991684Y-154129429D01*
X170988545Y-153928241D01*
X170987617Y-153879319D01*
X170984981Y-153805820D01*
X170980456Y-153751885D01*
X170973211Y-153713889D01*
X170962415Y-153688207D01*
X170947235Y-153671214D01*
X170926839Y-153659283D01*
X170888570Y-153647099D01*
X170850511Y-153651834D01*
X170810322Y-153677873D01*
X170771634Y-153710427D01*
X170771634Y-154135716D01*
X170633317Y-154135716D01*
X170633317Y-153905070D01*
X170633450Y-153832776D01*
X170634186Y-153768535D01*
X170635954Y-153721512D01*
X170639184Y-153687442D01*
X170644303Y-153662064D01*
X170651740Y-153641115D01*
X170661923Y-153620330D01*
X170664337Y-153615918D01*
X170696448Y-153572941D01*
X170734029Y-153542907D01*
X170779337Y-153527137D01*
X170839334Y-153520116D01*
X170899416Y-153523919D01*
X170948298Y-153538762D01*
X170985397Y-153557946D01*
X170985397Y-153142753D01*
X170934565Y-153169248D01*
X170913331Y-153178874D01*
X170846309Y-153192486D01*
X170779703Y-153183078D01*
X170717960Y-153151799D01*
X170665530Y-153099796D01*
X170657316Y-153087574D01*
X170649422Y-153069657D01*
X170644273Y-153045298D01*
X170641300Y-153009821D01*
X170639934Y-152958550D01*
X170639688Y-152905130D01*
X170772522Y-152905130D01*
X170772634Y-152949743D01*
X170776045Y-152979495D01*
X170783710Y-153000729D01*
X170796587Y-153019790D01*
X170812944Y-153037511D01*
X170839102Y-153050922D01*
X170878515Y-153054330D01*
X170913332Y-153051365D01*
X170947793Y-153036525D01*
X170969988Y-153006463D01*
X170981870Y-152958148D01*
X170985397Y-152888544D01*
X170984485Y-152851518D01*
X170975382Y-152781622D01*
X170956601Y-152734358D01*
X170928249Y-152710062D01*
X170899613Y-152703226D01*
X170849743Y-152706431D01*
X170807606Y-152726274D01*
X170797522Y-152735374D01*
X170786836Y-152751117D01*
X170780229Y-152774552D01*
X170776305Y-152811498D01*
X170773670Y-152867774D01*
X170772522Y-152905130D01*
X170639688Y-152905130D01*
X170639604Y-152886811D01*
X170639717Y-152854078D01*
X170641645Y-152777938D01*
X170647013Y-152721060D01*
X170657179Y-152679143D01*
X170673498Y-152647890D01*
X170697326Y-152623000D01*
X170730020Y-152600176D01*
X170756532Y-152587078D01*
X170819388Y-152572633D01*
X170885642Y-152574601D01*
X170944530Y-152593327D01*
X170969803Y-152605567D01*
X170982515Y-152606832D01*
X170985397Y-152595692D01*
X170985399Y-152595355D01*
X170991611Y-152583981D01*
X171013033Y-152578150D01*
X171054555Y-152576508D01*
X171123713Y-152576508D01*
X171123713Y-152888544D01*
X171123713Y-154137030D01*
G36*
X171123713Y-154137030D02*
G01*
X171057699Y-154133230D01*
X170991684Y-154129429D01*
X170988545Y-153928241D01*
X170987617Y-153879319D01*
X170984981Y-153805820D01*
X170980456Y-153751885D01*
X170973211Y-153713889D01*
X170962415Y-153688207D01*
X170947235Y-153671214D01*
X170926839Y-153659283D01*
X170888570Y-153647099D01*
X170850511Y-153651834D01*
X170810322Y-153677873D01*
X170771634Y-153710427D01*
X170771634Y-154135716D01*
X170633317Y-154135716D01*
X170633317Y-153905070D01*
X170633450Y-153832776D01*
X170634186Y-153768535D01*
X170635954Y-153721512D01*
X170639184Y-153687442D01*
X170644303Y-153662064D01*
X170651740Y-153641115D01*
X170661923Y-153620330D01*
X170664337Y-153615918D01*
X170696448Y-153572941D01*
X170734029Y-153542907D01*
X170779337Y-153527137D01*
X170839334Y-153520116D01*
X170899416Y-153523919D01*
X170948298Y-153538762D01*
X170985397Y-153557946D01*
X170985397Y-153142753D01*
X170934565Y-153169248D01*
X170913331Y-153178874D01*
X170846309Y-153192486D01*
X170779703Y-153183078D01*
X170717960Y-153151799D01*
X170665530Y-153099796D01*
X170657316Y-153087574D01*
X170649422Y-153069657D01*
X170644273Y-153045298D01*
X170641300Y-153009821D01*
X170639934Y-152958550D01*
X170639688Y-152905130D01*
X170772522Y-152905130D01*
X170772634Y-152949743D01*
X170776045Y-152979495D01*
X170783710Y-153000729D01*
X170796587Y-153019790D01*
X170812944Y-153037511D01*
X170839102Y-153050922D01*
X170878515Y-153054330D01*
X170913332Y-153051365D01*
X170947793Y-153036525D01*
X170969988Y-153006463D01*
X170981870Y-152958148D01*
X170985397Y-152888544D01*
X170984485Y-152851518D01*
X170975382Y-152781622D01*
X170956601Y-152734358D01*
X170928249Y-152710062D01*
X170899613Y-152703226D01*
X170849743Y-152706431D01*
X170807606Y-152726274D01*
X170797522Y-152735374D01*
X170786836Y-152751117D01*
X170780229Y-152774552D01*
X170776305Y-152811498D01*
X170773670Y-152867774D01*
X170772522Y-152905130D01*
X170639688Y-152905130D01*
X170639604Y-152886811D01*
X170639717Y-152854078D01*
X170641645Y-152777938D01*
X170647013Y-152721060D01*
X170657179Y-152679143D01*
X170673498Y-152647890D01*
X170697326Y-152623000D01*
X170730020Y-152600176D01*
X170756532Y-152587078D01*
X170819388Y-152572633D01*
X170885642Y-152574601D01*
X170944530Y-152593327D01*
X170969803Y-152605567D01*
X170982515Y-152606832D01*
X170985397Y-152595692D01*
X170985399Y-152595355D01*
X170991611Y-152583981D01*
X171013033Y-152578150D01*
X171054555Y-152576508D01*
X171123713Y-152576508D01*
X171123713Y-152888544D01*
X171123713Y-154137030D01*
G37*
X169212162Y-148407912D02*
X169269010Y-148709464D01*
X169478774Y-148795935D01*
X169688537Y-148882406D01*
X169940183Y-148711289D01*
X169989989Y-148677555D01*
X170056017Y-148633275D01*
X170113183Y-148595455D01*
X170158517Y-148566036D01*
X170189053Y-148546961D01*
X170201819Y-148540172D01*
X170209660Y-148545000D01*
X170233098Y-148565233D01*
X170268567Y-148598437D01*
X170313062Y-148641564D01*
X170363578Y-148691564D01*
X170417109Y-148745389D01*
X170470650Y-148799989D01*
X170521196Y-148852317D01*
X170565741Y-148899322D01*
X170601280Y-148937957D01*
X170624807Y-148965172D01*
X170633317Y-148977918D01*
X170631338Y-148983394D01*
X170617630Y-149007821D01*
X170592598Y-149048023D01*
X170558272Y-149100846D01*
X170516680Y-149163141D01*
X170469852Y-149231756D01*
X170444153Y-149269177D01*
X170399946Y-149334326D01*
X170362045Y-149391183D01*
X170332471Y-149436664D01*
X170313245Y-149467687D01*
X170306387Y-149481168D01*
X170306499Y-149481915D01*
X170312549Y-149499004D01*
X170326427Y-149533900D01*
X170346200Y-149582045D01*
X170369933Y-149638880D01*
X170395691Y-149699847D01*
X170421539Y-149760386D01*
X170445544Y-149815941D01*
X170465771Y-149861951D01*
X170480284Y-149893859D01*
X170487150Y-149907106D01*
X170491212Y-149908281D01*
X170515894Y-149913581D01*
X170559884Y-149922361D01*
X170619660Y-149933934D01*
X170691702Y-149947615D01*
X170772489Y-149962717D01*
X170815067Y-149970724D01*
X170893218Y-149986001D01*
X170961548Y-150000109D01*
X171016324Y-150012239D01*
X171053810Y-150021580D01*
X171070273Y-150027321D01*
X171073230Y-150033013D01*
X171078135Y-150060824D01*
X171081989Y-150107144D01*
X171084794Y-150167614D01*
X171086554Y-150237877D01*
X171087272Y-150313574D01*
X171086950Y-150390347D01*
X171085592Y-150463838D01*
X171083201Y-150529688D01*
X171079779Y-150583539D01*
X171075329Y-150621032D01*
X171069855Y-150637810D01*
X171066533Y-150639703D01*
X171041760Y-150647820D01*
X170998784Y-150658560D01*
X170942575Y-150670747D01*
X170878098Y-150683204D01*
X170856343Y-150687171D01*
X170755866Y-150705623D01*
X170676899Y-150720453D01*
X170616707Y-150732274D01*
X170572551Y-150741703D01*
X170541693Y-150749354D01*
X170521398Y-150755842D01*
X170508927Y-150761782D01*
X170501544Y-150767788D01*
X170500686Y-150768796D01*
X170488611Y-150789813D01*
X170470744Y-150828270D01*
X170448815Y-150879655D01*
X170424557Y-150939457D01*
X170399700Y-151003164D01*
X170375978Y-151066265D01*
X170355120Y-151124249D01*
X170338860Y-151172603D01*
X170328929Y-151206816D01*
X170327058Y-151222377D01*
X170328309Y-151224396D01*
X170341259Y-151243922D01*
X170365613Y-151279936D01*
X170399113Y-151329122D01*
X170439500Y-151388161D01*
X170484518Y-151453736D01*
X170496873Y-151471778D01*
X170540318Y-151536493D01*
X170577864Y-151594370D01*
X170607367Y-151641976D01*
X170626687Y-151675879D01*
X170633678Y-151692646D01*
X170632171Y-151697055D01*
X170616468Y-151718776D01*
X170585487Y-151754248D01*
X170541446Y-151801082D01*
X170486563Y-151856890D01*
X170423059Y-151919286D01*
X170386761Y-151954211D01*
X170329368Y-152008605D01*
X170279134Y-152055196D01*
X170238757Y-152091530D01*
X170210934Y-152115155D01*
X170198363Y-152123618D01*
X170189725Y-152120481D01*
X170163133Y-152105641D01*
X170124514Y-152081371D01*
X170078907Y-152050746D01*
X170046480Y-152028397D01*
X169981743Y-151984016D01*
X169912659Y-151936881D01*
X169849560Y-151894049D01*
X169725951Y-151810441D01*
X169622190Y-151866544D01*
X169597757Y-151879493D01*
X169553325Y-151901643D01*
X169518964Y-151916935D01*
X169500601Y-151922637D01*
X169494591Y-151915315D01*
X169479668Y-151887435D01*
X169457625Y-151841469D01*
X169429690Y-151780335D01*
X169397090Y-151706949D01*
X169361049Y-151624229D01*
X169322796Y-151535091D01*
X169283556Y-151442453D01*
X169244556Y-151349231D01*
X169207022Y-151258344D01*
X169172182Y-151172708D01*
X169141261Y-151095239D01*
X169115487Y-151028856D01*
X169096084Y-150976476D01*
X169084281Y-150941015D01*
X169081304Y-150925390D01*
X169081505Y-150924933D01*
X169095374Y-150910489D01*
X169124384Y-150887868D01*
X169162545Y-150861758D01*
X169174590Y-150853786D01*
X169266242Y-150778150D01*
X169342096Y-150688063D01*
X169400354Y-150587275D01*
X169439221Y-150479534D01*
X169456901Y-150368591D01*
X169451599Y-150258197D01*
X169430120Y-150160009D01*
X169391555Y-150060860D01*
X169335335Y-149972406D01*
X169258183Y-149888381D01*
X169227868Y-149861539D01*
X169129867Y-149795404D01*
X169024000Y-149750864D01*
X168913334Y-149727519D01*
X168800937Y-149724972D01*
X168689878Y-149742823D01*
X168583224Y-149780674D01*
X168484043Y-149838126D01*
X168395404Y-149914781D01*
X168320373Y-150010239D01*
X168305948Y-150033879D01*
X168256916Y-150141928D01*
X168230876Y-150254442D01*
X168227145Y-150368508D01*
X168245041Y-150481212D01*
X168283882Y-150589639D01*
X168342987Y-150690876D01*
X168421673Y-150782008D01*
X168519258Y-150860122D01*
X168522427Y-150862227D01*
X168560184Y-150888834D01*
X168588482Y-150911455D01*
X168601407Y-150925390D01*
X168599776Y-150936315D01*
X168589637Y-150968125D01*
X168571657Y-151017428D01*
X168547065Y-151081307D01*
X168517084Y-151156842D01*
X168482943Y-151241117D01*
X168445865Y-151331214D01*
X168407079Y-151424215D01*
X168367809Y-151517202D01*
X168329282Y-151607258D01*
X168292723Y-151691465D01*
X168259359Y-151766904D01*
X168230416Y-151830659D01*
X168207119Y-151879811D01*
X168190696Y-151911443D01*
X168182371Y-151922637D01*
X168175447Y-151921121D01*
X168148250Y-151910225D01*
X168108053Y-151891122D01*
X168060782Y-151866544D01*
X167957021Y-151810441D01*
X167833412Y-151894049D01*
X167796893Y-151918807D01*
X167728967Y-151965065D01*
X167661248Y-152011397D01*
X167604064Y-152050746D01*
X167572505Y-152072191D01*
X167531487Y-152098833D01*
X167501074Y-152117072D01*
X167486219Y-152123835D01*
X167479838Y-152120964D01*
X167456769Y-152103379D01*
X167421206Y-152072417D01*
X167376244Y-152031125D01*
X167324979Y-151982547D01*
X167270506Y-151929729D01*
X167215921Y-151875717D01*
X167164320Y-151823555D01*
X167118797Y-151776290D01*
X167082448Y-151736966D01*
X167058368Y-151708630D01*
X167049654Y-151694326D01*
X167050156Y-151691605D01*
X167060528Y-151669454D01*
X167082685Y-151631129D01*
X167114485Y-151580094D01*
X167153789Y-151519808D01*
X167198454Y-151453736D01*
X167210980Y-151435511D01*
X167254966Y-151371379D01*
X167293710Y-151314683D01*
X167324955Y-151268738D01*
X167346442Y-151236864D01*
X167355913Y-151222377D01*
X167356146Y-151221756D01*
X167353351Y-151204033D01*
X167342676Y-151168129D01*
X167325854Y-151118556D01*
X167304616Y-151059826D01*
X167280694Y-150996450D01*
X167255819Y-150932940D01*
X167231723Y-150873807D01*
X167210138Y-150823563D01*
X167192796Y-150786720D01*
X167181428Y-150767788D01*
X167180289Y-150766613D01*
X167172149Y-150760667D01*
X167158402Y-150754670D01*
X167136310Y-150748008D01*
X167103136Y-150740067D01*
X167056143Y-150730231D01*
X166992593Y-150717885D01*
X166909749Y-150702414D01*
X166804873Y-150683204D01*
X166783121Y-150679161D01*
X166720809Y-150666663D01*
X166668392Y-150654821D01*
X166630839Y-150644811D01*
X166613116Y-150637810D01*
X166610151Y-150631969D01*
X166605208Y-150603910D01*
X166601291Y-150557394D01*
X166598402Y-150496780D01*
X166596546Y-150426426D01*
X166595725Y-150350690D01*
X166595941Y-150273931D01*
X166597199Y-150200506D01*
X166599501Y-150134774D01*
X166602849Y-150081094D01*
X166607247Y-150043824D01*
X166612699Y-150027321D01*
X166618264Y-150024883D01*
X166645951Y-150017199D01*
X166692752Y-150006330D01*
X166754930Y-149993086D01*
X166828752Y-149978278D01*
X166910483Y-149962717D01*
X166955109Y-149954403D01*
X167031597Y-149939986D01*
X167097433Y-149927361D01*
X167149096Y-149917215D01*
X167183066Y-149910235D01*
X167195821Y-149907106D01*
X167196301Y-149906462D01*
X167204424Y-149890075D01*
X167219910Y-149855746D01*
X167240823Y-149808030D01*
X167265228Y-149751480D01*
X167291189Y-149690652D01*
X167316770Y-149630100D01*
X167340035Y-149574379D01*
X167359050Y-149528044D01*
X167371878Y-149495649D01*
X167376585Y-149481749D01*
X167374509Y-149476859D01*
X167360693Y-149453586D01*
X167335633Y-149414413D01*
X167301341Y-149362414D01*
X167259832Y-149300662D01*
X167213119Y-149232230D01*
X167187491Y-149194754D01*
X167143263Y-149129050D01*
X167105343Y-149071386D01*
X167075753Y-149024908D01*
X167056516Y-148992759D01*
X167049654Y-148978084D01*
X167054422Y-148970124D01*
X167074366Y-148946340D01*
X167107086Y-148910345D01*
X167149578Y-148865189D01*
X167198838Y-148813922D01*
X167251864Y-148759595D01*
X167305650Y-148705258D01*
X167357194Y-148653961D01*
X167403493Y-148608753D01*
X167441542Y-148572686D01*
X167468338Y-148548808D01*
X167480878Y-148540172D01*
X167487839Y-148543530D01*
X167513400Y-148559104D01*
X167554647Y-148585609D01*
X167608610Y-148621104D01*
X167672315Y-148663644D01*
X167742789Y-148711289D01*
X167994435Y-148882406D01*
X168413961Y-148709464D01*
X168470809Y-148407912D01*
X168527658Y-148106360D01*
X169155313Y-148106360D01*
X169212162Y-148407912D01*
G36*
X169212162Y-148407912D02*
G01*
X169269010Y-148709464D01*
X169478774Y-148795935D01*
X169688537Y-148882406D01*
X169940183Y-148711289D01*
X169989989Y-148677555D01*
X170056017Y-148633275D01*
X170113183Y-148595455D01*
X170158517Y-148566036D01*
X170189053Y-148546961D01*
X170201819Y-148540172D01*
X170209660Y-148545000D01*
X170233098Y-148565233D01*
X170268567Y-148598437D01*
X170313062Y-148641564D01*
X170363578Y-148691564D01*
X170417109Y-148745389D01*
X170470650Y-148799989D01*
X170521196Y-148852317D01*
X170565741Y-148899322D01*
X170601280Y-148937957D01*
X170624807Y-148965172D01*
X170633317Y-148977918D01*
X170631338Y-148983394D01*
X170617630Y-149007821D01*
X170592598Y-149048023D01*
X170558272Y-149100846D01*
X170516680Y-149163141D01*
X170469852Y-149231756D01*
X170444153Y-149269177D01*
X170399946Y-149334326D01*
X170362045Y-149391183D01*
X170332471Y-149436664D01*
X170313245Y-149467687D01*
X170306387Y-149481168D01*
X170306499Y-149481915D01*
X170312549Y-149499004D01*
X170326427Y-149533900D01*
X170346200Y-149582045D01*
X170369933Y-149638880D01*
X170395691Y-149699847D01*
X170421539Y-149760386D01*
X170445544Y-149815941D01*
X170465771Y-149861951D01*
X170480284Y-149893859D01*
X170487150Y-149907106D01*
X170491212Y-149908281D01*
X170515894Y-149913581D01*
X170559884Y-149922361D01*
X170619660Y-149933934D01*
X170691702Y-149947615D01*
X170772489Y-149962717D01*
X170815067Y-149970724D01*
X170893218Y-149986001D01*
X170961548Y-150000109D01*
X171016324Y-150012239D01*
X171053810Y-150021580D01*
X171070273Y-150027321D01*
X171073230Y-150033013D01*
X171078135Y-150060824D01*
X171081989Y-150107144D01*
X171084794Y-150167614D01*
X171086554Y-150237877D01*
X171087272Y-150313574D01*
X171086950Y-150390347D01*
X171085592Y-150463838D01*
X171083201Y-150529688D01*
X171079779Y-150583539D01*
X171075329Y-150621032D01*
X171069855Y-150637810D01*
X171066533Y-150639703D01*
X171041760Y-150647820D01*
X170998784Y-150658560D01*
X170942575Y-150670747D01*
X170878098Y-150683204D01*
X170856343Y-150687171D01*
X170755866Y-150705623D01*
X170676899Y-150720453D01*
X170616707Y-150732274D01*
X170572551Y-150741703D01*
X170541693Y-150749354D01*
X170521398Y-150755842D01*
X170508927Y-150761782D01*
X170501544Y-150767788D01*
X170500686Y-150768796D01*
X170488611Y-150789813D01*
X170470744Y-150828270D01*
X170448815Y-150879655D01*
X170424557Y-150939457D01*
X170399700Y-151003164D01*
X170375978Y-151066265D01*
X170355120Y-151124249D01*
X170338860Y-151172603D01*
X170328929Y-151206816D01*
X170327058Y-151222377D01*
X170328309Y-151224396D01*
X170341259Y-151243922D01*
X170365613Y-151279936D01*
X170399113Y-151329122D01*
X170439500Y-151388161D01*
X170484518Y-151453736D01*
X170496873Y-151471778D01*
X170540318Y-151536493D01*
X170577864Y-151594370D01*
X170607367Y-151641976D01*
X170626687Y-151675879D01*
X170633678Y-151692646D01*
X170632171Y-151697055D01*
X170616468Y-151718776D01*
X170585487Y-151754248D01*
X170541446Y-151801082D01*
X170486563Y-151856890D01*
X170423059Y-151919286D01*
X170386761Y-151954211D01*
X170329368Y-152008605D01*
X170279134Y-152055196D01*
X170238757Y-152091530D01*
X170210934Y-152115155D01*
X170198363Y-152123618D01*
X170189725Y-152120481D01*
X170163133Y-152105641D01*
X170124514Y-152081371D01*
X170078907Y-152050746D01*
X170046480Y-152028397D01*
X169981743Y-151984016D01*
X169912659Y-151936881D01*
X169849560Y-151894049D01*
X169725951Y-151810441D01*
X169622190Y-151866544D01*
X169597757Y-151879493D01*
X169553325Y-151901643D01*
X169518964Y-151916935D01*
X169500601Y-151922637D01*
X169494591Y-151915315D01*
X169479668Y-151887435D01*
X169457625Y-151841469D01*
X169429690Y-151780335D01*
X169397090Y-151706949D01*
X169361049Y-151624229D01*
X169322796Y-151535091D01*
X169283556Y-151442453D01*
X169244556Y-151349231D01*
X169207022Y-151258344D01*
X169172182Y-151172708D01*
X169141261Y-151095239D01*
X169115487Y-151028856D01*
X169096084Y-150976476D01*
X169084281Y-150941015D01*
X169081304Y-150925390D01*
X169081505Y-150924933D01*
X169095374Y-150910489D01*
X169124384Y-150887868D01*
X169162545Y-150861758D01*
X169174590Y-150853786D01*
X169266242Y-150778150D01*
X169342096Y-150688063D01*
X169400354Y-150587275D01*
X169439221Y-150479534D01*
X169456901Y-150368591D01*
X169451599Y-150258197D01*
X169430120Y-150160009D01*
X169391555Y-150060860D01*
X169335335Y-149972406D01*
X169258183Y-149888381D01*
X169227868Y-149861539D01*
X169129867Y-149795404D01*
X169024000Y-149750864D01*
X168913334Y-149727519D01*
X168800937Y-149724972D01*
X168689878Y-149742823D01*
X168583224Y-149780674D01*
X168484043Y-149838126D01*
X168395404Y-149914781D01*
X168320373Y-150010239D01*
X168305948Y-150033879D01*
X168256916Y-150141928D01*
X168230876Y-150254442D01*
X168227145Y-150368508D01*
X168245041Y-150481212D01*
X168283882Y-150589639D01*
X168342987Y-150690876D01*
X168421673Y-150782008D01*
X168519258Y-150860122D01*
X168522427Y-150862227D01*
X168560184Y-150888834D01*
X168588482Y-150911455D01*
X168601407Y-150925390D01*
X168599776Y-150936315D01*
X168589637Y-150968125D01*
X168571657Y-151017428D01*
X168547065Y-151081307D01*
X168517084Y-151156842D01*
X168482943Y-151241117D01*
X168445865Y-151331214D01*
X168407079Y-151424215D01*
X168367809Y-151517202D01*
X168329282Y-151607258D01*
X168292723Y-151691465D01*
X168259359Y-151766904D01*
X168230416Y-151830659D01*
X168207119Y-151879811D01*
X168190696Y-151911443D01*
X168182371Y-151922637D01*
X168175447Y-151921121D01*
X168148250Y-151910225D01*
X168108053Y-151891122D01*
X168060782Y-151866544D01*
X167957021Y-151810441D01*
X167833412Y-151894049D01*
X167796893Y-151918807D01*
X167728967Y-151965065D01*
X167661248Y-152011397D01*
X167604064Y-152050746D01*
X167572505Y-152072191D01*
X167531487Y-152098833D01*
X167501074Y-152117072D01*
X167486219Y-152123835D01*
X167479838Y-152120964D01*
X167456769Y-152103379D01*
X167421206Y-152072417D01*
X167376244Y-152031125D01*
X167324979Y-151982547D01*
X167270506Y-151929729D01*
X167215921Y-151875717D01*
X167164320Y-151823555D01*
X167118797Y-151776290D01*
X167082448Y-151736966D01*
X167058368Y-151708630D01*
X167049654Y-151694326D01*
X167050156Y-151691605D01*
X167060528Y-151669454D01*
X167082685Y-151631129D01*
X167114485Y-151580094D01*
X167153789Y-151519808D01*
X167198454Y-151453736D01*
X167210980Y-151435511D01*
X167254966Y-151371379D01*
X167293710Y-151314683D01*
X167324955Y-151268738D01*
X167346442Y-151236864D01*
X167355913Y-151222377D01*
X167356146Y-151221756D01*
X167353351Y-151204033D01*
X167342676Y-151168129D01*
X167325854Y-151118556D01*
X167304616Y-151059826D01*
X167280694Y-150996450D01*
X167255819Y-150932940D01*
X167231723Y-150873807D01*
X167210138Y-150823563D01*
X167192796Y-150786720D01*
X167181428Y-150767788D01*
X167180289Y-150766613D01*
X167172149Y-150760667D01*
X167158402Y-150754670D01*
X167136310Y-150748008D01*
X167103136Y-150740067D01*
X167056143Y-150730231D01*
X166992593Y-150717885D01*
X166909749Y-150702414D01*
X166804873Y-150683204D01*
X166783121Y-150679161D01*
X166720809Y-150666663D01*
X166668392Y-150654821D01*
X166630839Y-150644811D01*
X166613116Y-150637810D01*
X166610151Y-150631969D01*
X166605208Y-150603910D01*
X166601291Y-150557394D01*
X166598402Y-150496780D01*
X166596546Y-150426426D01*
X166595725Y-150350690D01*
X166595941Y-150273931D01*
X166597199Y-150200506D01*
X166599501Y-150134774D01*
X166602849Y-150081094D01*
X166607247Y-150043824D01*
X166612699Y-150027321D01*
X166618264Y-150024883D01*
X166645951Y-150017199D01*
X166692752Y-150006330D01*
X166754930Y-149993086D01*
X166828752Y-149978278D01*
X166910483Y-149962717D01*
X166955109Y-149954403D01*
X167031597Y-149939986D01*
X167097433Y-149927361D01*
X167149096Y-149917215D01*
X167183066Y-149910235D01*
X167195821Y-149907106D01*
X167196301Y-149906462D01*
X167204424Y-149890075D01*
X167219910Y-149855746D01*
X167240823Y-149808030D01*
X167265228Y-149751480D01*
X167291189Y-149690652D01*
X167316770Y-149630100D01*
X167340035Y-149574379D01*
X167359050Y-149528044D01*
X167371878Y-149495649D01*
X167376585Y-149481749D01*
X167374509Y-149476859D01*
X167360693Y-149453586D01*
X167335633Y-149414413D01*
X167301341Y-149362414D01*
X167259832Y-149300662D01*
X167213119Y-149232230D01*
X167187491Y-149194754D01*
X167143263Y-149129050D01*
X167105343Y-149071386D01*
X167075753Y-149024908D01*
X167056516Y-148992759D01*
X167049654Y-148978084D01*
X167054422Y-148970124D01*
X167074366Y-148946340D01*
X167107086Y-148910345D01*
X167149578Y-148865189D01*
X167198838Y-148813922D01*
X167251864Y-148759595D01*
X167305650Y-148705258D01*
X167357194Y-148653961D01*
X167403493Y-148608753D01*
X167441542Y-148572686D01*
X167468338Y-148548808D01*
X167480878Y-148540172D01*
X167487839Y-148543530D01*
X167513400Y-148559104D01*
X167554647Y-148585609D01*
X167608610Y-148621104D01*
X167672315Y-148663644D01*
X167742789Y-148711289D01*
X167994435Y-148882406D01*
X168413961Y-148709464D01*
X168470809Y-148407912D01*
X168527658Y-148106360D01*
X169155313Y-148106360D01*
X169212162Y-148407912D01*
G37*
%TD*%
M02*
