%TF.GenerationSoftware,KiCad,Pcbnew,9.0.8+dfsg-1*%
%TF.CreationDate,2026-06-23T21:25:09+05:30*%
%TF.ProjectId,base_node,62617365-5f6e-46f6-9465-2e6b69636164,rev?*%
%TF.SameCoordinates,Original*%
%TF.FileFunction,Legend,Top*%
%TF.FilePolarity,Positive*%
%FSLAX46Y46*%
G04 Gerber Fmt 4.6, Leading zero omitted, Abs format (unit mm)*
G04 Created by KiCad (PCBNEW 9.0.8+dfsg-1) date 2026-06-23 21:25:09*
%MOMM*%
%LPD*%
G01*
G04 APERTURE LIST*
%ADD10C,0.125000*%
%ADD11C,0.150000*%
%ADD12C,0.100000*%
%ADD13C,0.300000*%
%ADD14C,0.500000*%
%ADD15C,0.120000*%
%ADD16C,0.180000*%
%ADD17C,0.250000*%
%ADD18C,0.158000*%
%ADD19C,0.376497*%
%ADD20C,0.200000*%
%ADD21C,0.092426*%
%ADD22C,0.000000*%
G04 APERTURE END LIST*
D10*
X194821531Y-102075427D02*
X194265947Y-101822889D01*
X194265947Y-101822889D02*
X194518485Y-102378473D01*
X195503384Y-102454234D02*
X195478130Y-102378473D01*
X195478130Y-102378473D02*
X195402369Y-102302711D01*
X195402369Y-102302711D02*
X195301353Y-102252204D01*
X195301353Y-102252204D02*
X195200338Y-102252204D01*
X195200338Y-102252204D02*
X195124577Y-102277458D01*
X195124577Y-102277458D02*
X194998307Y-102353219D01*
X194998307Y-102353219D02*
X194922546Y-102428980D01*
X194922546Y-102428980D02*
X194846785Y-102555249D01*
X194846785Y-102555249D02*
X194821531Y-102631011D01*
X194821531Y-102631011D02*
X194821531Y-102732026D01*
X194821531Y-102732026D02*
X194872038Y-102833041D01*
X194872038Y-102833041D02*
X194922546Y-102883549D01*
X194922546Y-102883549D02*
X195023561Y-102934057D01*
X195023561Y-102934057D02*
X195074069Y-102934057D01*
X195074069Y-102934057D02*
X195250846Y-102757280D01*
X195250846Y-102757280D02*
X195149830Y-102656265D01*
X195250846Y-103211849D02*
X195781176Y-102681519D01*
X195781176Y-102681519D02*
X195553891Y-103514894D01*
X195553891Y-103514894D02*
X196084221Y-102984564D01*
X195806429Y-103767432D02*
X196336759Y-103237102D01*
X196336759Y-103237102D02*
X196463028Y-103363371D01*
X196463028Y-103363371D02*
X196513536Y-103464387D01*
X196513536Y-103464387D02*
X196513536Y-103565402D01*
X196513536Y-103565402D02*
X196488282Y-103641163D01*
X196488282Y-103641163D02*
X196412521Y-103767432D01*
X196412521Y-103767432D02*
X196336759Y-103843194D01*
X196336759Y-103843194D02*
X196210490Y-103918955D01*
X196210490Y-103918955D02*
X196134729Y-103944209D01*
X196134729Y-103944209D02*
X196033714Y-103944209D01*
X196033714Y-103944209D02*
X195932698Y-103893701D01*
X195932698Y-103893701D02*
X195806429Y-103767432D01*
X202348976Y-100367764D02*
X202491833Y-100748716D01*
X202491833Y-100748716D02*
X202634690Y-100367764D01*
X202206119Y-99867763D02*
X202182309Y-99915382D01*
X202182309Y-99915382D02*
X202182309Y-99986811D01*
X202182309Y-99986811D02*
X202206119Y-100058239D01*
X202206119Y-100058239D02*
X202253738Y-100105858D01*
X202253738Y-100105858D02*
X202301357Y-100129668D01*
X202301357Y-100129668D02*
X202396595Y-100153477D01*
X202396595Y-100153477D02*
X202468023Y-100153477D01*
X202468023Y-100153477D02*
X202563261Y-100129668D01*
X202563261Y-100129668D02*
X202610880Y-100105858D01*
X202610880Y-100105858D02*
X202658500Y-100058239D01*
X202658500Y-100058239D02*
X202682309Y-99986811D01*
X202682309Y-99986811D02*
X202682309Y-99939192D01*
X202682309Y-99939192D02*
X202658500Y-99867763D01*
X202658500Y-99867763D02*
X202634690Y-99843954D01*
X202634690Y-99843954D02*
X202468023Y-99843954D01*
X202468023Y-99843954D02*
X202468023Y-99939192D01*
X202682309Y-99629668D02*
X202182309Y-99629668D01*
X202182309Y-99629668D02*
X202682309Y-99343954D01*
X202682309Y-99343954D02*
X202182309Y-99343954D01*
X202682309Y-99105858D02*
X202182309Y-99105858D01*
X202182309Y-99105858D02*
X202182309Y-98986810D01*
X202182309Y-98986810D02*
X202206119Y-98915382D01*
X202206119Y-98915382D02*
X202253738Y-98867763D01*
X202253738Y-98867763D02*
X202301357Y-98843953D01*
X202301357Y-98843953D02*
X202396595Y-98820144D01*
X202396595Y-98820144D02*
X202468023Y-98820144D01*
X202468023Y-98820144D02*
X202563261Y-98843953D01*
X202563261Y-98843953D02*
X202610880Y-98867763D01*
X202610880Y-98867763D02*
X202658500Y-98915382D01*
X202658500Y-98915382D02*
X202682309Y-98986810D01*
X202682309Y-98986810D02*
X202682309Y-99105858D01*
D11*
X161814286Y-133089164D02*
X161814286Y-132339164D01*
X161814286Y-132339164D02*
X162064286Y-132874878D01*
X162064286Y-132874878D02*
X162314286Y-132339164D01*
X162314286Y-132339164D02*
X162314286Y-133089164D01*
X162671429Y-133089164D02*
X162671429Y-132339164D01*
X162671429Y-132339164D02*
X162957143Y-132339164D01*
X162957143Y-132339164D02*
X163028572Y-132374878D01*
X163028572Y-132374878D02*
X163064286Y-132410592D01*
X163064286Y-132410592D02*
X163100000Y-132482021D01*
X163100000Y-132482021D02*
X163100000Y-132589164D01*
X163100000Y-132589164D02*
X163064286Y-132660592D01*
X163064286Y-132660592D02*
X163028572Y-132696307D01*
X163028572Y-132696307D02*
X162957143Y-132732021D01*
X162957143Y-132732021D02*
X162671429Y-132732021D01*
X163814286Y-133089164D02*
X163385715Y-133089164D01*
X163600000Y-133089164D02*
X163600000Y-132339164D01*
X163600000Y-132339164D02*
X163528572Y-132446307D01*
X163528572Y-132446307D02*
X163457143Y-132517735D01*
X163457143Y-132517735D02*
X163385715Y-132553450D01*
X164492858Y-132339164D02*
X164135715Y-132339164D01*
X164135715Y-132339164D02*
X164100001Y-132696307D01*
X164100001Y-132696307D02*
X164135715Y-132660592D01*
X164135715Y-132660592D02*
X164207144Y-132624878D01*
X164207144Y-132624878D02*
X164385715Y-132624878D01*
X164385715Y-132624878D02*
X164457144Y-132660592D01*
X164457144Y-132660592D02*
X164492858Y-132696307D01*
X164492858Y-132696307D02*
X164528572Y-132767735D01*
X164528572Y-132767735D02*
X164528572Y-132946307D01*
X164528572Y-132946307D02*
X164492858Y-133017735D01*
X164492858Y-133017735D02*
X164457144Y-133053450D01*
X164457144Y-133053450D02*
X164385715Y-133089164D01*
X164385715Y-133089164D02*
X164207144Y-133089164D01*
X164207144Y-133089164D02*
X164135715Y-133053450D01*
X164135715Y-133053450D02*
X164100001Y-133017735D01*
X164957144Y-132660592D02*
X164885715Y-132624878D01*
X164885715Y-132624878D02*
X164850001Y-132589164D01*
X164850001Y-132589164D02*
X164814287Y-132517735D01*
X164814287Y-132517735D02*
X164814287Y-132482021D01*
X164814287Y-132482021D02*
X164850001Y-132410592D01*
X164850001Y-132410592D02*
X164885715Y-132374878D01*
X164885715Y-132374878D02*
X164957144Y-132339164D01*
X164957144Y-132339164D02*
X165100001Y-132339164D01*
X165100001Y-132339164D02*
X165171430Y-132374878D01*
X165171430Y-132374878D02*
X165207144Y-132410592D01*
X165207144Y-132410592D02*
X165242858Y-132482021D01*
X165242858Y-132482021D02*
X165242858Y-132517735D01*
X165242858Y-132517735D02*
X165207144Y-132589164D01*
X165207144Y-132589164D02*
X165171430Y-132624878D01*
X165171430Y-132624878D02*
X165100001Y-132660592D01*
X165100001Y-132660592D02*
X164957144Y-132660592D01*
X164957144Y-132660592D02*
X164885715Y-132696307D01*
X164885715Y-132696307D02*
X164850001Y-132732021D01*
X164850001Y-132732021D02*
X164814287Y-132803450D01*
X164814287Y-132803450D02*
X164814287Y-132946307D01*
X164814287Y-132946307D02*
X164850001Y-133017735D01*
X164850001Y-133017735D02*
X164885715Y-133053450D01*
X164885715Y-133053450D02*
X164957144Y-133089164D01*
X164957144Y-133089164D02*
X165100001Y-133089164D01*
X165100001Y-133089164D02*
X165171430Y-133053450D01*
X165171430Y-133053450D02*
X165207144Y-133017735D01*
X165207144Y-133017735D02*
X165242858Y-132946307D01*
X165242858Y-132946307D02*
X165242858Y-132803450D01*
X165242858Y-132803450D02*
X165207144Y-132732021D01*
X165207144Y-132732021D02*
X165171430Y-132696307D01*
X165171430Y-132696307D02*
X165100001Y-132660592D01*
X165885716Y-132589164D02*
X165885716Y-133089164D01*
X165707144Y-132303450D02*
X165528573Y-132839164D01*
X165528573Y-132839164D02*
X165992858Y-132839164D01*
X166278573Y-132696307D02*
X166528573Y-132696307D01*
X166635716Y-133089164D02*
X166278573Y-133089164D01*
X166278573Y-133089164D02*
X166278573Y-132339164D01*
X166278573Y-132339164D02*
X166635716Y-132339164D01*
X166957144Y-133089164D02*
X166957144Y-132339164D01*
X166957144Y-132339164D02*
X167385715Y-133089164D01*
X167385715Y-133089164D02*
X167385715Y-132339164D01*
X167564287Y-133160592D02*
X168135715Y-133160592D01*
X168314287Y-133089164D02*
X168314287Y-132339164D01*
X168314287Y-132339164D02*
X168564287Y-132874878D01*
X168564287Y-132874878D02*
X168814287Y-132339164D01*
X168814287Y-132339164D02*
X168814287Y-133089164D01*
X169278573Y-133089164D02*
X169207144Y-133053450D01*
X169207144Y-133053450D02*
X169171430Y-133017735D01*
X169171430Y-133017735D02*
X169135716Y-132946307D01*
X169135716Y-132946307D02*
X169135716Y-132732021D01*
X169135716Y-132732021D02*
X169171430Y-132660592D01*
X169171430Y-132660592D02*
X169207144Y-132624878D01*
X169207144Y-132624878D02*
X169278573Y-132589164D01*
X169278573Y-132589164D02*
X169385716Y-132589164D01*
X169385716Y-132589164D02*
X169457144Y-132624878D01*
X169457144Y-132624878D02*
X169492859Y-132660592D01*
X169492859Y-132660592D02*
X169528573Y-132732021D01*
X169528573Y-132732021D02*
X169528573Y-132946307D01*
X169528573Y-132946307D02*
X169492859Y-133017735D01*
X169492859Y-133017735D02*
X169457144Y-133053450D01*
X169457144Y-133053450D02*
X169385716Y-133089164D01*
X169385716Y-133089164D02*
X169278573Y-133089164D01*
X170171430Y-133089164D02*
X170171430Y-132339164D01*
X170171430Y-133053450D02*
X170100001Y-133089164D01*
X170100001Y-133089164D02*
X169957144Y-133089164D01*
X169957144Y-133089164D02*
X169885715Y-133053450D01*
X169885715Y-133053450D02*
X169850001Y-133017735D01*
X169850001Y-133017735D02*
X169814287Y-132946307D01*
X169814287Y-132946307D02*
X169814287Y-132732021D01*
X169814287Y-132732021D02*
X169850001Y-132660592D01*
X169850001Y-132660592D02*
X169885715Y-132624878D01*
X169885715Y-132624878D02*
X169957144Y-132589164D01*
X169957144Y-132589164D02*
X170100001Y-132589164D01*
X170100001Y-132589164D02*
X170171430Y-132624878D01*
X170850001Y-132589164D02*
X170850001Y-133089164D01*
X170528572Y-132589164D02*
X170528572Y-132982021D01*
X170528572Y-132982021D02*
X170564286Y-133053450D01*
X170564286Y-133053450D02*
X170635715Y-133089164D01*
X170635715Y-133089164D02*
X170742858Y-133089164D01*
X170742858Y-133089164D02*
X170814286Y-133053450D01*
X170814286Y-133053450D02*
X170850001Y-133017735D01*
X171314286Y-133089164D02*
X171242857Y-133053450D01*
X171242857Y-133053450D02*
X171207143Y-132982021D01*
X171207143Y-132982021D02*
X171207143Y-132339164D01*
X171885714Y-133053450D02*
X171814286Y-133089164D01*
X171814286Y-133089164D02*
X171671429Y-133089164D01*
X171671429Y-133089164D02*
X171600000Y-133053450D01*
X171600000Y-133053450D02*
X171564286Y-132982021D01*
X171564286Y-132982021D02*
X171564286Y-132696307D01*
X171564286Y-132696307D02*
X171600000Y-132624878D01*
X171600000Y-132624878D02*
X171671429Y-132589164D01*
X171671429Y-132589164D02*
X171814286Y-132589164D01*
X171814286Y-132589164D02*
X171885714Y-132624878D01*
X171885714Y-132624878D02*
X171921429Y-132696307D01*
X171921429Y-132696307D02*
X171921429Y-132767735D01*
X171921429Y-132767735D02*
X171564286Y-132839164D01*
D12*
X159996115Y-131508533D02*
X159234211Y-131508533D01*
X159894247Y-143208646D02*
X159227580Y-143446741D01*
X159227580Y-143446741D02*
X159894247Y-143684836D01*
X159227580Y-144065789D02*
X159894247Y-144065789D01*
X160227580Y-144065789D02*
X160179961Y-144018170D01*
X160179961Y-144018170D02*
X160132342Y-144065789D01*
X160132342Y-144065789D02*
X160179961Y-144113408D01*
X160179961Y-144113408D02*
X160227580Y-144065789D01*
X160227580Y-144065789D02*
X160132342Y-144065789D01*
X159894247Y-144541979D02*
X159227580Y-144541979D01*
X159799009Y-144541979D02*
X159846628Y-144589598D01*
X159846628Y-144589598D02*
X159894247Y-144684836D01*
X159894247Y-144684836D02*
X159894247Y-144827693D01*
X159894247Y-144827693D02*
X159846628Y-144922931D01*
X159846628Y-144922931D02*
X159751390Y-144970550D01*
X159751390Y-144970550D02*
X159227580Y-144970550D01*
X174196115Y-145108533D02*
X173434211Y-145108533D01*
X173815163Y-144727580D02*
X173815163Y-145489485D01*
X173796115Y-131308533D02*
X173034211Y-131308533D01*
D13*
G36*
X171609274Y-145505813D02*
G01*
X169838847Y-145505813D01*
X169838847Y-144591336D01*
X170005514Y-144591336D01*
X170005514Y-144649864D01*
X170027912Y-144703936D01*
X170069296Y-144745320D01*
X170123368Y-144767718D01*
X170152632Y-144770600D01*
X170574060Y-144770600D01*
X170574060Y-145192028D01*
X170576942Y-145221292D01*
X170599340Y-145275364D01*
X170640724Y-145316748D01*
X170694796Y-145339146D01*
X170753324Y-145339146D01*
X170807396Y-145316748D01*
X170848780Y-145275364D01*
X170871178Y-145221292D01*
X170874060Y-145192028D01*
X170874060Y-144770600D01*
X171295489Y-144770600D01*
X171324753Y-144767718D01*
X171378825Y-144745320D01*
X171420209Y-144703936D01*
X171442607Y-144649864D01*
X171442607Y-144591336D01*
X171420209Y-144537264D01*
X171378825Y-144495880D01*
X171324753Y-144473482D01*
X171295489Y-144470600D01*
X170874060Y-144470600D01*
X170874060Y-144049171D01*
X170871178Y-144019907D01*
X170848780Y-143965835D01*
X170807396Y-143924451D01*
X170753324Y-143902053D01*
X170694796Y-143902053D01*
X170640724Y-143924451D01*
X170599340Y-143965835D01*
X170576942Y-144019907D01*
X170574060Y-144049171D01*
X170574060Y-144470600D01*
X170152632Y-144470600D01*
X170123368Y-144473482D01*
X170069296Y-144495880D01*
X170027912Y-144537264D01*
X170005514Y-144591336D01*
X169838847Y-144591336D01*
X169838847Y-143735386D01*
X171609274Y-143735386D01*
X171609274Y-145505813D01*
G37*
D11*
X179953571Y-107239164D02*
X179953571Y-107846307D01*
X179953571Y-107846307D02*
X179989285Y-107917735D01*
X179989285Y-107917735D02*
X180025000Y-107953450D01*
X180025000Y-107953450D02*
X180096428Y-107989164D01*
X180096428Y-107989164D02*
X180239285Y-107989164D01*
X180239285Y-107989164D02*
X180310714Y-107953450D01*
X180310714Y-107953450D02*
X180346428Y-107917735D01*
X180346428Y-107917735D02*
X180382142Y-107846307D01*
X180382142Y-107846307D02*
X180382142Y-107239164D01*
X180703571Y-107310592D02*
X180739285Y-107274878D01*
X180739285Y-107274878D02*
X180810714Y-107239164D01*
X180810714Y-107239164D02*
X180989285Y-107239164D01*
X180989285Y-107239164D02*
X181060714Y-107274878D01*
X181060714Y-107274878D02*
X181096428Y-107310592D01*
X181096428Y-107310592D02*
X181132142Y-107382021D01*
X181132142Y-107382021D02*
X181132142Y-107453450D01*
X181132142Y-107453450D02*
X181096428Y-107560592D01*
X181096428Y-107560592D02*
X180667856Y-107989164D01*
X180667856Y-107989164D02*
X181132142Y-107989164D01*
X168639164Y-152053571D02*
X167889164Y-152053571D01*
X167889164Y-152053571D02*
X167889164Y-151875000D01*
X167889164Y-151875000D02*
X167924878Y-151767857D01*
X167924878Y-151767857D02*
X167996307Y-151696428D01*
X167996307Y-151696428D02*
X168067735Y-151660714D01*
X168067735Y-151660714D02*
X168210592Y-151625000D01*
X168210592Y-151625000D02*
X168317735Y-151625000D01*
X168317735Y-151625000D02*
X168460592Y-151660714D01*
X168460592Y-151660714D02*
X168532021Y-151696428D01*
X168532021Y-151696428D02*
X168603450Y-151767857D01*
X168603450Y-151767857D02*
X168639164Y-151875000D01*
X168639164Y-151875000D02*
X168639164Y-152053571D01*
X168139164Y-150982143D02*
X168639164Y-150982143D01*
X167853450Y-151160714D02*
X168389164Y-151339285D01*
X168389164Y-151339285D02*
X168389164Y-150875000D01*
X207523810Y-139654819D02*
X207523810Y-138654819D01*
X207952381Y-138750057D02*
X208000000Y-138702438D01*
X208000000Y-138702438D02*
X208095238Y-138654819D01*
X208095238Y-138654819D02*
X208333333Y-138654819D01*
X208333333Y-138654819D02*
X208428571Y-138702438D01*
X208428571Y-138702438D02*
X208476190Y-138750057D01*
X208476190Y-138750057D02*
X208523809Y-138845295D01*
X208523809Y-138845295D02*
X208523809Y-138940533D01*
X208523809Y-138940533D02*
X208476190Y-139083390D01*
X208476190Y-139083390D02*
X207904762Y-139654819D01*
X207904762Y-139654819D02*
X208523809Y-139654819D01*
X209523809Y-139559580D02*
X209476190Y-139607200D01*
X209476190Y-139607200D02*
X209333333Y-139654819D01*
X209333333Y-139654819D02*
X209238095Y-139654819D01*
X209238095Y-139654819D02*
X209095238Y-139607200D01*
X209095238Y-139607200D02*
X209000000Y-139511961D01*
X209000000Y-139511961D02*
X208952381Y-139416723D01*
X208952381Y-139416723D02*
X208904762Y-139226247D01*
X208904762Y-139226247D02*
X208904762Y-139083390D01*
X208904762Y-139083390D02*
X208952381Y-138892914D01*
X208952381Y-138892914D02*
X209000000Y-138797676D01*
X209000000Y-138797676D02*
X209095238Y-138702438D01*
X209095238Y-138702438D02*
X209238095Y-138654819D01*
X209238095Y-138654819D02*
X209333333Y-138654819D01*
X209333333Y-138654819D02*
X209476190Y-138702438D01*
X209476190Y-138702438D02*
X209523809Y-138750057D01*
X161910592Y-152942856D02*
X161874878Y-152907142D01*
X161874878Y-152907142D02*
X161839164Y-152835714D01*
X161839164Y-152835714D02*
X161839164Y-152657142D01*
X161839164Y-152657142D02*
X161874878Y-152585714D01*
X161874878Y-152585714D02*
X161910592Y-152549999D01*
X161910592Y-152549999D02*
X161982021Y-152514285D01*
X161982021Y-152514285D02*
X162053450Y-152514285D01*
X162053450Y-152514285D02*
X162160592Y-152549999D01*
X162160592Y-152549999D02*
X162589164Y-152978571D01*
X162589164Y-152978571D02*
X162589164Y-152514285D01*
X162089164Y-151871428D02*
X162589164Y-151871428D01*
X161803450Y-152049999D02*
X162339164Y-152228570D01*
X162339164Y-152228570D02*
X162339164Y-151764285D01*
X161839164Y-151585713D02*
X162589164Y-151335713D01*
X162589164Y-151335713D02*
X161839164Y-151085713D01*
X162589164Y-150835713D02*
X161839164Y-150835713D01*
X161839164Y-150835713D02*
X161839164Y-150657142D01*
X161839164Y-150657142D02*
X161874878Y-150549999D01*
X161874878Y-150549999D02*
X161946307Y-150478570D01*
X161946307Y-150478570D02*
X162017735Y-150442856D01*
X162017735Y-150442856D02*
X162160592Y-150407142D01*
X162160592Y-150407142D02*
X162267735Y-150407142D01*
X162267735Y-150407142D02*
X162410592Y-150442856D01*
X162410592Y-150442856D02*
X162482021Y-150478570D01*
X162482021Y-150478570D02*
X162553450Y-150549999D01*
X162553450Y-150549999D02*
X162589164Y-150657142D01*
X162589164Y-150657142D02*
X162589164Y-150835713D01*
X162517735Y-149657142D02*
X162553450Y-149692856D01*
X162553450Y-149692856D02*
X162589164Y-149799999D01*
X162589164Y-149799999D02*
X162589164Y-149871427D01*
X162589164Y-149871427D02*
X162553450Y-149978570D01*
X162553450Y-149978570D02*
X162482021Y-150049999D01*
X162482021Y-150049999D02*
X162410592Y-150085713D01*
X162410592Y-150085713D02*
X162267735Y-150121427D01*
X162267735Y-150121427D02*
X162160592Y-150121427D01*
X162160592Y-150121427D02*
X162017735Y-150085713D01*
X162017735Y-150085713D02*
X161946307Y-150049999D01*
X161946307Y-150049999D02*
X161874878Y-149978570D01*
X161874878Y-149978570D02*
X161839164Y-149871427D01*
X161839164Y-149871427D02*
X161839164Y-149799999D01*
X161839164Y-149799999D02*
X161874878Y-149692856D01*
X161874878Y-149692856D02*
X161910592Y-149657142D01*
D10*
X169224809Y-119419047D02*
X168724809Y-119419047D01*
X168724809Y-119419047D02*
X168724809Y-119299999D01*
X168724809Y-119299999D02*
X168748619Y-119228571D01*
X168748619Y-119228571D02*
X168796238Y-119180952D01*
X168796238Y-119180952D02*
X168843857Y-119157142D01*
X168843857Y-119157142D02*
X168939095Y-119133333D01*
X168939095Y-119133333D02*
X169010523Y-119133333D01*
X169010523Y-119133333D02*
X169105761Y-119157142D01*
X169105761Y-119157142D02*
X169153380Y-119180952D01*
X169153380Y-119180952D02*
X169201000Y-119228571D01*
X169201000Y-119228571D02*
X169224809Y-119299999D01*
X169224809Y-119299999D02*
X169224809Y-119419047D01*
X169224809Y-118657142D02*
X169224809Y-118942856D01*
X169224809Y-118799999D02*
X168724809Y-118799999D01*
X168724809Y-118799999D02*
X168796238Y-118847618D01*
X168796238Y-118847618D02*
X168843857Y-118895237D01*
X168843857Y-118895237D02*
X168867666Y-118942856D01*
X184416666Y-142477190D02*
X184392857Y-142501000D01*
X184392857Y-142501000D02*
X184321428Y-142524809D01*
X184321428Y-142524809D02*
X184273809Y-142524809D01*
X184273809Y-142524809D02*
X184202381Y-142501000D01*
X184202381Y-142501000D02*
X184154762Y-142453380D01*
X184154762Y-142453380D02*
X184130952Y-142405761D01*
X184130952Y-142405761D02*
X184107143Y-142310523D01*
X184107143Y-142310523D02*
X184107143Y-142239095D01*
X184107143Y-142239095D02*
X184130952Y-142143857D01*
X184130952Y-142143857D02*
X184154762Y-142096238D01*
X184154762Y-142096238D02*
X184202381Y-142048619D01*
X184202381Y-142048619D02*
X184273809Y-142024809D01*
X184273809Y-142024809D02*
X184321428Y-142024809D01*
X184321428Y-142024809D02*
X184392857Y-142048619D01*
X184392857Y-142048619D02*
X184416666Y-142072428D01*
X184869047Y-142024809D02*
X184630952Y-142024809D01*
X184630952Y-142024809D02*
X184607143Y-142262904D01*
X184607143Y-142262904D02*
X184630952Y-142239095D01*
X184630952Y-142239095D02*
X184678571Y-142215285D01*
X184678571Y-142215285D02*
X184797619Y-142215285D01*
X184797619Y-142215285D02*
X184845238Y-142239095D01*
X184845238Y-142239095D02*
X184869047Y-142262904D01*
X184869047Y-142262904D02*
X184892857Y-142310523D01*
X184892857Y-142310523D02*
X184892857Y-142429571D01*
X184892857Y-142429571D02*
X184869047Y-142477190D01*
X184869047Y-142477190D02*
X184845238Y-142501000D01*
X184845238Y-142501000D02*
X184797619Y-142524809D01*
X184797619Y-142524809D02*
X184678571Y-142524809D01*
X184678571Y-142524809D02*
X184630952Y-142501000D01*
X184630952Y-142501000D02*
X184607143Y-142477190D01*
X185265782Y-131966367D02*
X185232110Y-131966367D01*
X185232110Y-131966367D02*
X185164766Y-131932695D01*
X185164766Y-131932695D02*
X185131095Y-131899023D01*
X185131095Y-131899023D02*
X185097423Y-131831680D01*
X185097423Y-131831680D02*
X185097423Y-131764336D01*
X185097423Y-131764336D02*
X185114259Y-131713829D01*
X185114259Y-131713829D02*
X185164766Y-131629649D01*
X185164766Y-131629649D02*
X185215274Y-131579142D01*
X185215274Y-131579142D02*
X185299453Y-131528634D01*
X185299453Y-131528634D02*
X185349961Y-131511798D01*
X185349961Y-131511798D02*
X185417304Y-131511798D01*
X185417304Y-131511798D02*
X185484648Y-131545470D01*
X185484648Y-131545470D02*
X185518320Y-131579142D01*
X185518320Y-131579142D02*
X185551991Y-131646485D01*
X185551991Y-131646485D02*
X185551991Y-131680157D01*
X185568827Y-132336756D02*
X185366797Y-132134725D01*
X185467812Y-132235741D02*
X185821365Y-131882187D01*
X185821365Y-131882187D02*
X185737186Y-131899023D01*
X185737186Y-131899023D02*
X185669843Y-131899023D01*
X185669843Y-131899023D02*
X185619335Y-131882187D01*
D11*
X183878571Y-153939164D02*
X183878571Y-154546307D01*
X183878571Y-154546307D02*
X183914285Y-154617735D01*
X183914285Y-154617735D02*
X183950000Y-154653450D01*
X183950000Y-154653450D02*
X184021428Y-154689164D01*
X184021428Y-154689164D02*
X184164285Y-154689164D01*
X184164285Y-154689164D02*
X184235714Y-154653450D01*
X184235714Y-154653450D02*
X184271428Y-154617735D01*
X184271428Y-154617735D02*
X184307142Y-154546307D01*
X184307142Y-154546307D02*
X184307142Y-153939164D01*
X184592856Y-153939164D02*
X185057142Y-153939164D01*
X185057142Y-153939164D02*
X184807142Y-154224878D01*
X184807142Y-154224878D02*
X184914285Y-154224878D01*
X184914285Y-154224878D02*
X184985714Y-154260592D01*
X184985714Y-154260592D02*
X185021428Y-154296307D01*
X185021428Y-154296307D02*
X185057142Y-154367735D01*
X185057142Y-154367735D02*
X185057142Y-154546307D01*
X185057142Y-154546307D02*
X185021428Y-154617735D01*
X185021428Y-154617735D02*
X184985714Y-154653450D01*
X184985714Y-154653450D02*
X184914285Y-154689164D01*
X184914285Y-154689164D02*
X184699999Y-154689164D01*
X184699999Y-154689164D02*
X184628571Y-154653450D01*
X184628571Y-154653450D02*
X184592856Y-154617735D01*
X170154761Y-128881009D02*
X170488094Y-128881009D01*
X170630951Y-129404819D02*
X170154761Y-129404819D01*
X170154761Y-129404819D02*
X170154761Y-128404819D01*
X170154761Y-128404819D02*
X170630951Y-128404819D01*
X171059523Y-128738152D02*
X171059523Y-129404819D01*
X171059523Y-128833390D02*
X171107142Y-128785771D01*
X171107142Y-128785771D02*
X171202380Y-128738152D01*
X171202380Y-128738152D02*
X171345237Y-128738152D01*
X171345237Y-128738152D02*
X171440475Y-128785771D01*
X171440475Y-128785771D02*
X171488094Y-128881009D01*
X171488094Y-128881009D02*
X171488094Y-129404819D01*
X172392856Y-129357200D02*
X172297618Y-129404819D01*
X172297618Y-129404819D02*
X172107142Y-129404819D01*
X172107142Y-129404819D02*
X172011904Y-129357200D01*
X172011904Y-129357200D02*
X171964285Y-129309580D01*
X171964285Y-129309580D02*
X171916666Y-129214342D01*
X171916666Y-129214342D02*
X171916666Y-128928628D01*
X171916666Y-128928628D02*
X171964285Y-128833390D01*
X171964285Y-128833390D02*
X172011904Y-128785771D01*
X172011904Y-128785771D02*
X172107142Y-128738152D01*
X172107142Y-128738152D02*
X172297618Y-128738152D01*
X172297618Y-128738152D02*
X172392856Y-128785771D01*
X172964285Y-129404819D02*
X172869047Y-129357200D01*
X172869047Y-129357200D02*
X172821428Y-129309580D01*
X172821428Y-129309580D02*
X172773809Y-129214342D01*
X172773809Y-129214342D02*
X172773809Y-128928628D01*
X172773809Y-128928628D02*
X172821428Y-128833390D01*
X172821428Y-128833390D02*
X172869047Y-128785771D01*
X172869047Y-128785771D02*
X172964285Y-128738152D01*
X172964285Y-128738152D02*
X173107142Y-128738152D01*
X173107142Y-128738152D02*
X173202380Y-128785771D01*
X173202380Y-128785771D02*
X173249999Y-128833390D01*
X173249999Y-128833390D02*
X173297618Y-128928628D01*
X173297618Y-128928628D02*
X173297618Y-129214342D01*
X173297618Y-129214342D02*
X173249999Y-129309580D01*
X173249999Y-129309580D02*
X173202380Y-129357200D01*
X173202380Y-129357200D02*
X173107142Y-129404819D01*
X173107142Y-129404819D02*
X172964285Y-129404819D01*
X174154761Y-129404819D02*
X174154761Y-128404819D01*
X174154761Y-129357200D02*
X174059523Y-129404819D01*
X174059523Y-129404819D02*
X173869047Y-129404819D01*
X173869047Y-129404819D02*
X173773809Y-129357200D01*
X173773809Y-129357200D02*
X173726190Y-129309580D01*
X173726190Y-129309580D02*
X173678571Y-129214342D01*
X173678571Y-129214342D02*
X173678571Y-128928628D01*
X173678571Y-128928628D02*
X173726190Y-128833390D01*
X173726190Y-128833390D02*
X173773809Y-128785771D01*
X173773809Y-128785771D02*
X173869047Y-128738152D01*
X173869047Y-128738152D02*
X174059523Y-128738152D01*
X174059523Y-128738152D02*
X174154761Y-128785771D01*
X175011904Y-129357200D02*
X174916666Y-129404819D01*
X174916666Y-129404819D02*
X174726190Y-129404819D01*
X174726190Y-129404819D02*
X174630952Y-129357200D01*
X174630952Y-129357200D02*
X174583333Y-129261961D01*
X174583333Y-129261961D02*
X174583333Y-128881009D01*
X174583333Y-128881009D02*
X174630952Y-128785771D01*
X174630952Y-128785771D02*
X174726190Y-128738152D01*
X174726190Y-128738152D02*
X174916666Y-128738152D01*
X174916666Y-128738152D02*
X175011904Y-128785771D01*
X175011904Y-128785771D02*
X175059523Y-128881009D01*
X175059523Y-128881009D02*
X175059523Y-128976247D01*
X175059523Y-128976247D02*
X174583333Y-129071485D01*
X175488095Y-129404819D02*
X175488095Y-128738152D01*
X175488095Y-128928628D02*
X175535714Y-128833390D01*
X175535714Y-128833390D02*
X175583333Y-128785771D01*
X175583333Y-128785771D02*
X175678571Y-128738152D01*
X175678571Y-128738152D02*
X175773809Y-128738152D01*
X177392857Y-129404819D02*
X176821429Y-129404819D01*
X177107143Y-129404819D02*
X177107143Y-128404819D01*
X177107143Y-128404819D02*
X177011905Y-128547676D01*
X177011905Y-128547676D02*
X176916667Y-128642914D01*
X176916667Y-128642914D02*
X176821429Y-128690533D01*
D10*
X180156666Y-119077190D02*
X180132857Y-119101000D01*
X180132857Y-119101000D02*
X180061428Y-119124809D01*
X180061428Y-119124809D02*
X180013809Y-119124809D01*
X180013809Y-119124809D02*
X179942381Y-119101000D01*
X179942381Y-119101000D02*
X179894762Y-119053380D01*
X179894762Y-119053380D02*
X179870952Y-119005761D01*
X179870952Y-119005761D02*
X179847143Y-118910523D01*
X179847143Y-118910523D02*
X179847143Y-118839095D01*
X179847143Y-118839095D02*
X179870952Y-118743857D01*
X179870952Y-118743857D02*
X179894762Y-118696238D01*
X179894762Y-118696238D02*
X179942381Y-118648619D01*
X179942381Y-118648619D02*
X180013809Y-118624809D01*
X180013809Y-118624809D02*
X180061428Y-118624809D01*
X180061428Y-118624809D02*
X180132857Y-118648619D01*
X180132857Y-118648619D02*
X180156666Y-118672428D01*
X180323333Y-118624809D02*
X180632857Y-118624809D01*
X180632857Y-118624809D02*
X180466190Y-118815285D01*
X180466190Y-118815285D02*
X180537619Y-118815285D01*
X180537619Y-118815285D02*
X180585238Y-118839095D01*
X180585238Y-118839095D02*
X180609047Y-118862904D01*
X180609047Y-118862904D02*
X180632857Y-118910523D01*
X180632857Y-118910523D02*
X180632857Y-119029571D01*
X180632857Y-119029571D02*
X180609047Y-119077190D01*
X180609047Y-119077190D02*
X180585238Y-119101000D01*
X180585238Y-119101000D02*
X180537619Y-119124809D01*
X180537619Y-119124809D02*
X180394762Y-119124809D01*
X180394762Y-119124809D02*
X180347143Y-119101000D01*
X180347143Y-119101000D02*
X180323333Y-119077190D01*
X181329166Y-123874809D02*
X181162500Y-123636714D01*
X181043452Y-123874809D02*
X181043452Y-123374809D01*
X181043452Y-123374809D02*
X181233928Y-123374809D01*
X181233928Y-123374809D02*
X181281547Y-123398619D01*
X181281547Y-123398619D02*
X181305357Y-123422428D01*
X181305357Y-123422428D02*
X181329166Y-123470047D01*
X181329166Y-123470047D02*
X181329166Y-123541476D01*
X181329166Y-123541476D02*
X181305357Y-123589095D01*
X181305357Y-123589095D02*
X181281547Y-123612904D01*
X181281547Y-123612904D02*
X181233928Y-123636714D01*
X181233928Y-123636714D02*
X181043452Y-123636714D01*
X181757738Y-123541476D02*
X181757738Y-123874809D01*
X181638690Y-123351000D02*
X181519643Y-123708142D01*
X181519643Y-123708142D02*
X181829166Y-123708142D01*
D11*
X190925750Y-127003246D02*
X191498170Y-127575666D01*
X191498170Y-127575666D02*
X191599185Y-127609338D01*
X191599185Y-127609338D02*
X191666529Y-127609338D01*
X191666529Y-127609338D02*
X191767544Y-127575666D01*
X191767544Y-127575666D02*
X191902231Y-127440979D01*
X191902231Y-127440979D02*
X191935903Y-127339964D01*
X191935903Y-127339964D02*
X191935903Y-127272620D01*
X191935903Y-127272620D02*
X191902231Y-127171605D01*
X191902231Y-127171605D02*
X191329811Y-126599185D01*
X192744025Y-126599185D02*
X192339964Y-127003246D01*
X192541994Y-126801216D02*
X191834888Y-126094109D01*
X191834888Y-126094109D02*
X191868559Y-126262468D01*
X191868559Y-126262468D02*
X191868559Y-126397155D01*
X191868559Y-126397155D02*
X191834888Y-126498170D01*
D10*
X195616666Y-120624809D02*
X195450000Y-120386714D01*
X195330952Y-120624809D02*
X195330952Y-120124809D01*
X195330952Y-120124809D02*
X195521428Y-120124809D01*
X195521428Y-120124809D02*
X195569047Y-120148619D01*
X195569047Y-120148619D02*
X195592857Y-120172428D01*
X195592857Y-120172428D02*
X195616666Y-120220047D01*
X195616666Y-120220047D02*
X195616666Y-120291476D01*
X195616666Y-120291476D02*
X195592857Y-120339095D01*
X195592857Y-120339095D02*
X195569047Y-120362904D01*
X195569047Y-120362904D02*
X195521428Y-120386714D01*
X195521428Y-120386714D02*
X195330952Y-120386714D01*
X196092857Y-120624809D02*
X195807143Y-120624809D01*
X195950000Y-120624809D02*
X195950000Y-120124809D01*
X195950000Y-120124809D02*
X195902381Y-120196238D01*
X195902381Y-120196238D02*
X195854762Y-120243857D01*
X195854762Y-120243857D02*
X195807143Y-120267666D01*
X174174809Y-109069047D02*
X173674809Y-109069047D01*
X173674809Y-109069047D02*
X173674809Y-108949999D01*
X173674809Y-108949999D02*
X173698619Y-108878571D01*
X173698619Y-108878571D02*
X173746238Y-108830952D01*
X173746238Y-108830952D02*
X173793857Y-108807142D01*
X173793857Y-108807142D02*
X173889095Y-108783333D01*
X173889095Y-108783333D02*
X173960523Y-108783333D01*
X173960523Y-108783333D02*
X174055761Y-108807142D01*
X174055761Y-108807142D02*
X174103380Y-108830952D01*
X174103380Y-108830952D02*
X174151000Y-108878571D01*
X174151000Y-108878571D02*
X174174809Y-108949999D01*
X174174809Y-108949999D02*
X174174809Y-109069047D01*
X173674809Y-108616666D02*
X173674809Y-108307142D01*
X173674809Y-108307142D02*
X173865285Y-108473809D01*
X173865285Y-108473809D02*
X173865285Y-108402380D01*
X173865285Y-108402380D02*
X173889095Y-108354761D01*
X173889095Y-108354761D02*
X173912904Y-108330952D01*
X173912904Y-108330952D02*
X173960523Y-108307142D01*
X173960523Y-108307142D02*
X174079571Y-108307142D01*
X174079571Y-108307142D02*
X174127190Y-108330952D01*
X174127190Y-108330952D02*
X174151000Y-108354761D01*
X174151000Y-108354761D02*
X174174809Y-108402380D01*
X174174809Y-108402380D02*
X174174809Y-108545237D01*
X174174809Y-108545237D02*
X174151000Y-108592856D01*
X174151000Y-108592856D02*
X174127190Y-108616666D01*
D11*
X187904761Y-139631009D02*
X188238094Y-139631009D01*
X188380951Y-140154819D02*
X187904761Y-140154819D01*
X187904761Y-140154819D02*
X187904761Y-139154819D01*
X187904761Y-139154819D02*
X188380951Y-139154819D01*
X188809523Y-139488152D02*
X188809523Y-140154819D01*
X188809523Y-139583390D02*
X188857142Y-139535771D01*
X188857142Y-139535771D02*
X188952380Y-139488152D01*
X188952380Y-139488152D02*
X189095237Y-139488152D01*
X189095237Y-139488152D02*
X189190475Y-139535771D01*
X189190475Y-139535771D02*
X189238094Y-139631009D01*
X189238094Y-139631009D02*
X189238094Y-140154819D01*
X190142856Y-140107200D02*
X190047618Y-140154819D01*
X190047618Y-140154819D02*
X189857142Y-140154819D01*
X189857142Y-140154819D02*
X189761904Y-140107200D01*
X189761904Y-140107200D02*
X189714285Y-140059580D01*
X189714285Y-140059580D02*
X189666666Y-139964342D01*
X189666666Y-139964342D02*
X189666666Y-139678628D01*
X189666666Y-139678628D02*
X189714285Y-139583390D01*
X189714285Y-139583390D02*
X189761904Y-139535771D01*
X189761904Y-139535771D02*
X189857142Y-139488152D01*
X189857142Y-139488152D02*
X190047618Y-139488152D01*
X190047618Y-139488152D02*
X190142856Y-139535771D01*
X190714285Y-140154819D02*
X190619047Y-140107200D01*
X190619047Y-140107200D02*
X190571428Y-140059580D01*
X190571428Y-140059580D02*
X190523809Y-139964342D01*
X190523809Y-139964342D02*
X190523809Y-139678628D01*
X190523809Y-139678628D02*
X190571428Y-139583390D01*
X190571428Y-139583390D02*
X190619047Y-139535771D01*
X190619047Y-139535771D02*
X190714285Y-139488152D01*
X190714285Y-139488152D02*
X190857142Y-139488152D01*
X190857142Y-139488152D02*
X190952380Y-139535771D01*
X190952380Y-139535771D02*
X190999999Y-139583390D01*
X190999999Y-139583390D02*
X191047618Y-139678628D01*
X191047618Y-139678628D02*
X191047618Y-139964342D01*
X191047618Y-139964342D02*
X190999999Y-140059580D01*
X190999999Y-140059580D02*
X190952380Y-140107200D01*
X190952380Y-140107200D02*
X190857142Y-140154819D01*
X190857142Y-140154819D02*
X190714285Y-140154819D01*
X191904761Y-140154819D02*
X191904761Y-139154819D01*
X191904761Y-140107200D02*
X191809523Y-140154819D01*
X191809523Y-140154819D02*
X191619047Y-140154819D01*
X191619047Y-140154819D02*
X191523809Y-140107200D01*
X191523809Y-140107200D02*
X191476190Y-140059580D01*
X191476190Y-140059580D02*
X191428571Y-139964342D01*
X191428571Y-139964342D02*
X191428571Y-139678628D01*
X191428571Y-139678628D02*
X191476190Y-139583390D01*
X191476190Y-139583390D02*
X191523809Y-139535771D01*
X191523809Y-139535771D02*
X191619047Y-139488152D01*
X191619047Y-139488152D02*
X191809523Y-139488152D01*
X191809523Y-139488152D02*
X191904761Y-139535771D01*
X192761904Y-140107200D02*
X192666666Y-140154819D01*
X192666666Y-140154819D02*
X192476190Y-140154819D01*
X192476190Y-140154819D02*
X192380952Y-140107200D01*
X192380952Y-140107200D02*
X192333333Y-140011961D01*
X192333333Y-140011961D02*
X192333333Y-139631009D01*
X192333333Y-139631009D02*
X192380952Y-139535771D01*
X192380952Y-139535771D02*
X192476190Y-139488152D01*
X192476190Y-139488152D02*
X192666666Y-139488152D01*
X192666666Y-139488152D02*
X192761904Y-139535771D01*
X192761904Y-139535771D02*
X192809523Y-139631009D01*
X192809523Y-139631009D02*
X192809523Y-139726247D01*
X192809523Y-139726247D02*
X192333333Y-139821485D01*
X193238095Y-140154819D02*
X193238095Y-139488152D01*
X193238095Y-139678628D02*
X193285714Y-139583390D01*
X193285714Y-139583390D02*
X193333333Y-139535771D01*
X193333333Y-139535771D02*
X193428571Y-139488152D01*
X193428571Y-139488152D02*
X193523809Y-139488152D01*
X194571429Y-139250057D02*
X194619048Y-139202438D01*
X194619048Y-139202438D02*
X194714286Y-139154819D01*
X194714286Y-139154819D02*
X194952381Y-139154819D01*
X194952381Y-139154819D02*
X195047619Y-139202438D01*
X195047619Y-139202438D02*
X195095238Y-139250057D01*
X195095238Y-139250057D02*
X195142857Y-139345295D01*
X195142857Y-139345295D02*
X195142857Y-139440533D01*
X195142857Y-139440533D02*
X195095238Y-139583390D01*
X195095238Y-139583390D02*
X194523810Y-140154819D01*
X194523810Y-140154819D02*
X195142857Y-140154819D01*
D10*
X186815782Y-130366367D02*
X186782110Y-130366367D01*
X186782110Y-130366367D02*
X186714766Y-130332695D01*
X186714766Y-130332695D02*
X186681095Y-130299023D01*
X186681095Y-130299023D02*
X186647423Y-130231680D01*
X186647423Y-130231680D02*
X186647423Y-130164336D01*
X186647423Y-130164336D02*
X186664259Y-130113829D01*
X186664259Y-130113829D02*
X186714766Y-130029649D01*
X186714766Y-130029649D02*
X186765274Y-129979142D01*
X186765274Y-129979142D02*
X186849453Y-129928634D01*
X186849453Y-129928634D02*
X186899961Y-129911798D01*
X186899961Y-129911798D02*
X186967304Y-129911798D01*
X186967304Y-129911798D02*
X187034648Y-129945470D01*
X187034648Y-129945470D02*
X187068320Y-129979142D01*
X187068320Y-129979142D02*
X187101991Y-130046485D01*
X187101991Y-130046485D02*
X187101991Y-130080157D01*
X187236678Y-130214844D02*
X187270350Y-130214844D01*
X187270350Y-130214844D02*
X187320858Y-130231680D01*
X187320858Y-130231680D02*
X187405037Y-130315859D01*
X187405037Y-130315859D02*
X187421873Y-130366367D01*
X187421873Y-130366367D02*
X187421873Y-130400038D01*
X187421873Y-130400038D02*
X187405037Y-130450546D01*
X187405037Y-130450546D02*
X187371365Y-130484218D01*
X187371365Y-130484218D02*
X187304022Y-130517890D01*
X187304022Y-130517890D02*
X186899961Y-130517890D01*
X186899961Y-130517890D02*
X187118827Y-130736756D01*
D14*
%TO.C,U4*%
X171775639Y-144600000D02*
G75*
G02*
X169624361Y-144600000I-1075639J0D01*
G01*
X169624361Y-144600000D02*
G75*
G02*
X171775639Y-144600000I1075639J0D01*
G01*
D12*
X165500000Y-140200000D02*
X160900000Y-140200000D01*
X160900000Y-136800000D01*
X165500000Y-136800000D01*
X165500000Y-140200000D01*
X173900000Y-139600000D02*
X167500000Y-139600000D01*
X167500000Y-133800000D01*
X173900000Y-133800000D01*
X173900000Y-139600000D01*
X177700000Y-147000000D02*
X155602000Y-147000000D01*
X155602000Y-130236000D01*
X177700000Y-130236000D01*
X177700000Y-147000000D01*
X161500000Y-135200000D02*
X161500000Y-136800000D01*
X161500000Y-141800000D02*
X161500000Y-140200000D01*
X162700000Y-135200000D02*
X162700000Y-136800000D01*
X162700000Y-141800000D02*
X162700000Y-140200000D01*
X163900000Y-135200000D02*
X163900000Y-136800000D01*
X163900000Y-141800000D02*
X163900000Y-140200000D01*
X165300000Y-135200000D02*
X165300000Y-136800000D01*
X165300000Y-141800000D02*
X165300000Y-140200000D01*
%TO.C,J1*%
D15*
X171690000Y-97190000D02*
X193810000Y-97190000D01*
X193810000Y-101910000D01*
X171690000Y-101910000D01*
X171690000Y-97190000D01*
X193810000Y-99800000D02*
X193200000Y-99800000D01*
X193810000Y-98500000D02*
X193200000Y-98500000D01*
X193200000Y-101300000D02*
X193200000Y-97800000D01*
X193200000Y-97800000D02*
X191250000Y-97800000D01*
X191250000Y-97800000D02*
X191250000Y-97190000D01*
X190850000Y-100800000D02*
X190850000Y-101300000D01*
X190750000Y-101300000D02*
X190750000Y-100800000D01*
X190650000Y-101300000D02*
X190650000Y-100800000D01*
X190650000Y-100800000D02*
X190850000Y-100800000D01*
X188850000Y-100800000D02*
X188850000Y-101300000D01*
X188750000Y-101300000D02*
X188750000Y-100800000D01*
X188650000Y-101300000D02*
X188650000Y-100800000D01*
X188650000Y-100800000D02*
X188850000Y-100800000D01*
X186850000Y-100800000D02*
X186850000Y-101300000D01*
X186750000Y-101300000D02*
X186750000Y-100800000D01*
X186650000Y-101300000D02*
X186650000Y-100800000D01*
X186650000Y-100800000D02*
X186850000Y-100800000D01*
X184850000Y-100800000D02*
X184850000Y-101300000D01*
X184750000Y-101300000D02*
X184750000Y-100800000D01*
X184650000Y-101300000D02*
X184650000Y-100800000D01*
X184650000Y-100800000D02*
X184850000Y-100800000D01*
X182850000Y-100800000D02*
X182850000Y-101300000D01*
X182750000Y-101300000D02*
X182750000Y-100800000D01*
X182650000Y-101300000D02*
X182650000Y-100800000D01*
X182650000Y-100800000D02*
X182850000Y-100800000D01*
X180850000Y-100800000D02*
X180850000Y-101300000D01*
X180750000Y-101300000D02*
X180750000Y-100800000D01*
X180650000Y-101300000D02*
X180650000Y-100800000D01*
X180650000Y-100800000D02*
X180850000Y-100800000D01*
X178850000Y-100800000D02*
X178850000Y-101300000D01*
X178750000Y-101300000D02*
X178750000Y-100800000D01*
X178650000Y-101300000D02*
X178650000Y-100800000D01*
X178650000Y-100800000D02*
X178850000Y-100800000D01*
X176850000Y-100800000D02*
X176850000Y-101300000D01*
X176750000Y-101300000D02*
X176750000Y-100800000D01*
X176650000Y-101300000D02*
X176650000Y-100800000D01*
X176650000Y-100800000D02*
X176850000Y-100800000D01*
X174850000Y-100800000D02*
X174850000Y-101300000D01*
X174750000Y-101300000D02*
X174750000Y-100800000D01*
X174650000Y-101300000D02*
X174650000Y-100800000D01*
X174650000Y-100800000D02*
X174850000Y-100800000D01*
X174250000Y-97800000D02*
X172300000Y-97800000D01*
X174250000Y-97190000D02*
X174250000Y-97800000D01*
X173450000Y-97190000D02*
X173450000Y-96990000D01*
X173450000Y-97090000D02*
X173150000Y-97090000D01*
X173450000Y-96990000D02*
X173150000Y-96990000D01*
X173150000Y-96990000D02*
X173150000Y-97190000D01*
X172640000Y-96890000D02*
X171390000Y-96890000D01*
X172300000Y-101300000D02*
X193200000Y-101300000D01*
X172300000Y-97800000D02*
X172300000Y-101300000D01*
X171690000Y-99800000D02*
X172300000Y-99800000D01*
X171690000Y-98500000D02*
X172300000Y-98500000D01*
X171390000Y-96890000D02*
X171390000Y-98140000D01*
D13*
%TO.C,Lg1*%
X187322500Y-114290000D02*
X187322500Y-117713036D01*
X187322500Y-117720415D02*
X196097500Y-117713521D01*
X187330000Y-111510000D02*
X191744121Y-107713036D01*
X187330000Y-113453036D02*
X187330000Y-111510000D01*
D16*
X188768249Y-112150000D02*
X189591752Y-112150000D01*
X189591752Y-112150000D02*
X190331752Y-113850000D01*
X190331752Y-113850000D02*
X188521752Y-115570000D01*
X190560000Y-111600000D02*
X190560000Y-110810000D01*
D17*
X190630000Y-113860000D02*
X186700000Y-113870000D01*
D16*
X191710000Y-112060000D02*
X190560000Y-111600000D01*
X191710000Y-114918046D02*
X191710000Y-116070000D01*
D17*
X191720000Y-109890000D02*
X191720000Y-112790000D01*
D13*
X191744121Y-107713036D02*
X196110000Y-111510000D01*
D17*
X192790000Y-113870000D02*
X196710000Y-113870000D01*
D16*
X193100000Y-113860000D02*
X193980000Y-115520000D01*
X193350000Y-110410000D02*
X191710000Y-112060000D01*
X193980000Y-115520000D02*
X195140000Y-115520000D01*
X194950000Y-112120000D02*
X193100000Y-113860000D01*
D13*
X196097500Y-114290000D02*
X196097500Y-117713036D01*
X196110000Y-111510000D02*
X196105000Y-113453036D01*
D18*
X190927817Y-109051375D02*
G75*
G02*
X192532186Y-109051378I802183J-796198D01*
G01*
X191203938Y-109312031D02*
G75*
G02*
X192258617Y-109314552I526062J-535544D01*
G01*
X191480000Y-109575179D02*
G75*
G02*
X191975921Y-109571492I249999J-272394D01*
G01*
D19*
X188630000Y-112150000D02*
G75*
G02*
X188253504Y-112150000I-188248J0D01*
G01*
X188253504Y-112150000D02*
G75*
G02*
X188630000Y-112150000I188248J0D01*
G01*
X188710000Y-115570000D02*
G75*
G02*
X188333504Y-115570000I-188248J0D01*
G01*
X188333504Y-115570000D02*
G75*
G02*
X188710000Y-115570000I188248J0D01*
G01*
X190748248Y-110810000D02*
G75*
G02*
X190371752Y-110810000I-188248J0D01*
G01*
X190371752Y-110810000D02*
G75*
G02*
X190748248Y-110810000I188248J0D01*
G01*
D20*
X192758046Y-113870000D02*
G75*
G02*
X190661954Y-113870000I-1048046J0D01*
G01*
X190661954Y-113870000D02*
G75*
G02*
X192758046Y-113870000I1048046J0D01*
G01*
D21*
X191776213Y-109890000D02*
G75*
G02*
X191683787Y-109890000I-46213J0D01*
G01*
X191683787Y-109890000D02*
G75*
G02*
X191776213Y-109890000I46213J0D01*
G01*
D19*
X193538248Y-110410000D02*
G75*
G02*
X193161752Y-110410000I-188248J0D01*
G01*
X193161752Y-110410000D02*
G75*
G02*
X193538248Y-110410000I188248J0D01*
G01*
X195138248Y-112120000D02*
G75*
G02*
X194761752Y-112120000I-188248J0D01*
G01*
X194761752Y-112120000D02*
G75*
G02*
X195138248Y-112120000I188248J0D01*
G01*
X195328248Y-115520000D02*
G75*
G02*
X194951752Y-115520000I-188248J0D01*
G01*
X194951752Y-115520000D02*
G75*
G02*
X195328248Y-115520000I188248J0D01*
G01*
D22*
G36*
X191398575Y-116645153D02*
G01*
X191731209Y-116837198D01*
X191731209Y-116927177D01*
X191258960Y-116654551D01*
X191258960Y-116564550D01*
X191398575Y-116645153D01*
G37*
G36*
X191731209Y-116420553D02*
G01*
X191731209Y-116510554D01*
X191591573Y-116429930D01*
X191258960Y-116237906D01*
X191258960Y-116147926D01*
X191731209Y-116420553D01*
G37*
G36*
X191398575Y-116367404D02*
G01*
X191731209Y-116559449D01*
X191731209Y-116649407D01*
X191563675Y-116552697D01*
X191258960Y-116376780D01*
X191258960Y-116286801D01*
X191398575Y-116367404D01*
G37*
G36*
X191426494Y-116522386D02*
G01*
X191731209Y-116698302D01*
X191731209Y-116788303D01*
X191591573Y-116707700D01*
X191258960Y-116515655D01*
X191258960Y-116425676D01*
X191426494Y-116522386D01*
G37*
G36*
X192182419Y-116139844D02*
G01*
X192184454Y-116141563D01*
X192186380Y-116143381D01*
X192188197Y-116145293D01*
X192189901Y-116147293D01*
X192191489Y-116149377D01*
X192192959Y-116151540D01*
X192194308Y-116153776D01*
X192195533Y-116156079D01*
X192196633Y-116158446D01*
X192197605Y-116160869D01*
X192198445Y-116163346D01*
X192199151Y-116165869D01*
X192199721Y-116168434D01*
X192200153Y-116171035D01*
X192200442Y-116173669D01*
X192200588Y-116176328D01*
X192200588Y-117071922D01*
X192200580Y-117072567D01*
X192200557Y-117073213D01*
X192200520Y-117073857D01*
X192200469Y-117074501D01*
X192200403Y-117075143D01*
X192200323Y-117075783D01*
X192200229Y-117076422D01*
X192200120Y-117077058D01*
X191864340Y-117270886D01*
X191864340Y-116394857D01*
X191864116Y-116389380D01*
X191863562Y-116383962D01*
X191862686Y-116378618D01*
X191861493Y-116373361D01*
X191859991Y-116368202D01*
X191858187Y-116363155D01*
X191856088Y-116358233D01*
X191853701Y-116353450D01*
X191851033Y-116348817D01*
X191848090Y-116344348D01*
X191844880Y-116340056D01*
X191841410Y-116335954D01*
X191837687Y-116332055D01*
X191833717Y-116328372D01*
X191829507Y-116324917D01*
X191825066Y-116321705D01*
X191207424Y-115965137D01*
X191543654Y-115771030D01*
X192182419Y-116139844D01*
G37*
G36*
X191803899Y-116358374D02*
G01*
X191805927Y-116360096D01*
X191807848Y-116361916D01*
X191809659Y-116363830D01*
X191811357Y-116365833D01*
X191812940Y-116367918D01*
X191814405Y-116370081D01*
X191815750Y-116372317D01*
X191816971Y-116374621D01*
X191818067Y-116376987D01*
X191819035Y-116379410D01*
X191819872Y-116381884D01*
X191820576Y-116384406D01*
X191821144Y-116386969D01*
X191821574Y-116389569D01*
X191821862Y-116392200D01*
X191822007Y-116394857D01*
X191822007Y-117290493D01*
X191822003Y-117290904D01*
X191821994Y-117291301D01*
X191821980Y-117291687D01*
X191821965Y-117292063D01*
X191614265Y-117172153D01*
X191731199Y-117172153D01*
X191731211Y-117172860D01*
X191731246Y-117173564D01*
X191731304Y-117174263D01*
X191731385Y-117174957D01*
X191731489Y-117175646D01*
X191731614Y-117176329D01*
X191731762Y-117177006D01*
X191731932Y-117177676D01*
X191732123Y-117178339D01*
X191732335Y-117178994D01*
X191732567Y-117179641D01*
X191732821Y-117180280D01*
X191733095Y-117180909D01*
X191733388Y-117181528D01*
X191733702Y-117182138D01*
X191734035Y-117182737D01*
X191734387Y-117183324D01*
X191734758Y-117183901D01*
X191735148Y-117184465D01*
X191735556Y-117185017D01*
X191735982Y-117185555D01*
X191736426Y-117186080D01*
X191736887Y-117186592D01*
X191737366Y-117187088D01*
X191737861Y-117187570D01*
X191738374Y-117188037D01*
X191738902Y-117188487D01*
X191739447Y-117188921D01*
X191740008Y-117189338D01*
X191740584Y-117189738D01*
X191741176Y-117190120D01*
X191741782Y-117190484D01*
X191743027Y-117191149D01*
X191744303Y-117191725D01*
X191745606Y-117192212D01*
X191746932Y-117192611D01*
X191748274Y-117192921D01*
X191749631Y-117193143D01*
X191750996Y-117193276D01*
X191752366Y-117193320D01*
X191753735Y-117193276D01*
X191755101Y-117193143D01*
X191756457Y-117192921D01*
X191757800Y-117192611D01*
X191759125Y-117192212D01*
X191760428Y-117191725D01*
X191761704Y-117191149D01*
X191762949Y-117190484D01*
X191764147Y-117189738D01*
X191765284Y-117188921D01*
X191766358Y-117188037D01*
X191767365Y-117187088D01*
X191768306Y-117186080D01*
X191769176Y-117185017D01*
X191769973Y-117183901D01*
X191770697Y-117182737D01*
X191771343Y-117181528D01*
X191771910Y-117180280D01*
X191772397Y-117178994D01*
X191772800Y-117177676D01*
X191773117Y-117176329D01*
X191773346Y-117174957D01*
X191773485Y-117173564D01*
X191773532Y-117172153D01*
X191773532Y-117068015D01*
X191773521Y-117067308D01*
X191773485Y-117066605D01*
X191773427Y-117065906D01*
X191773346Y-117065212D01*
X191773243Y-117064523D01*
X191773117Y-117063839D01*
X191772969Y-117063163D01*
X191772800Y-117062493D01*
X191772609Y-117061830D01*
X191772397Y-117061174D01*
X191772164Y-117060527D01*
X191771910Y-117059889D01*
X191771637Y-117059260D01*
X191771343Y-117058640D01*
X191771029Y-117058031D01*
X191770697Y-117057432D01*
X191770344Y-117056844D01*
X191769973Y-117056268D01*
X191769584Y-117055704D01*
X191769176Y-117055152D01*
X191768749Y-117054613D01*
X191768306Y-117054088D01*
X191767844Y-117053577D01*
X191767365Y-117053080D01*
X191766870Y-117052599D01*
X191766358Y-117052132D01*
X191765829Y-117051682D01*
X191765284Y-117051247D01*
X191764723Y-117050830D01*
X191764147Y-117050430D01*
X191763556Y-117050048D01*
X191762949Y-117049684D01*
X191761704Y-117049020D01*
X191760428Y-117048444D01*
X191759125Y-117047956D01*
X191757800Y-117047558D01*
X191756457Y-117047247D01*
X191755101Y-117047026D01*
X191753735Y-117046893D01*
X191752366Y-117046849D01*
X191750996Y-117046893D01*
X191749631Y-117047026D01*
X191748274Y-117047247D01*
X191746932Y-117047558D01*
X191745606Y-117047956D01*
X191744303Y-117048444D01*
X191743027Y-117049020D01*
X191741782Y-117049684D01*
X191740584Y-117050430D01*
X191739447Y-117051247D01*
X191738374Y-117052132D01*
X191737366Y-117053080D01*
X191736426Y-117054088D01*
X191735556Y-117055152D01*
X191734758Y-117056268D01*
X191734035Y-117057432D01*
X191733388Y-117058640D01*
X191732821Y-117059889D01*
X191732335Y-117061174D01*
X191731932Y-117062493D01*
X191731614Y-117063839D01*
X191731385Y-117065212D01*
X191731246Y-117066605D01*
X191731199Y-117068015D01*
X191731199Y-117172153D01*
X191614265Y-117172153D01*
X191523466Y-117119733D01*
X191640394Y-117119733D01*
X191640406Y-117120440D01*
X191640441Y-117121143D01*
X191640499Y-117121842D01*
X191640580Y-117122536D01*
X191640684Y-117123225D01*
X191640809Y-117123909D01*
X191640957Y-117124585D01*
X191641127Y-117125256D01*
X191641318Y-117125918D01*
X191641530Y-117126574D01*
X191641762Y-117127221D01*
X191642016Y-117127859D01*
X191642290Y-117128488D01*
X191642583Y-117129108D01*
X191642897Y-117129717D01*
X191643230Y-117130316D01*
X191643582Y-117130904D01*
X191643953Y-117131480D01*
X191644343Y-117132044D01*
X191644751Y-117132596D01*
X191645177Y-117133135D01*
X191645621Y-117133660D01*
X191646082Y-117134171D01*
X191646561Y-117134668D01*
X191647056Y-117135150D01*
X191647569Y-117135616D01*
X191648097Y-117136066D01*
X191648642Y-117136501D01*
X191649203Y-117136918D01*
X191649779Y-117137318D01*
X191650371Y-117137700D01*
X191650977Y-117138064D01*
X191652222Y-117138728D01*
X191653498Y-117139304D01*
X191654801Y-117139792D01*
X191656126Y-117140190D01*
X191657469Y-117140501D01*
X191658826Y-117140722D01*
X191660191Y-117140855D01*
X191661561Y-117140899D01*
X191662930Y-117140855D01*
X191664295Y-117140722D01*
X191665652Y-117140501D01*
X191666995Y-117140190D01*
X191668320Y-117139792D01*
X191669623Y-117139304D01*
X191670899Y-117138728D01*
X191672144Y-117138064D01*
X191673342Y-117137318D01*
X191674479Y-117136501D01*
X191675553Y-117135616D01*
X191676560Y-117134668D01*
X191677501Y-117133660D01*
X191678371Y-117132596D01*
X191679168Y-117131480D01*
X191679892Y-117130316D01*
X191680538Y-117129108D01*
X191681105Y-117127859D01*
X191681592Y-117126574D01*
X191681995Y-117125256D01*
X191682312Y-117123909D01*
X191682541Y-117122536D01*
X191682680Y-117121143D01*
X191682727Y-117119733D01*
X191682727Y-117068015D01*
X191682727Y-117015574D01*
X191682716Y-117014867D01*
X191682680Y-117014163D01*
X191682622Y-117013464D01*
X191682541Y-117012770D01*
X191682438Y-117012081D01*
X191682312Y-117011398D01*
X191682164Y-117010721D01*
X191681995Y-117010051D01*
X191681804Y-117009388D01*
X191681592Y-117008733D01*
X191681359Y-117008086D01*
X191681105Y-117007448D01*
X191680832Y-117006818D01*
X191680538Y-117006199D01*
X191680224Y-117005589D01*
X191679892Y-117004990D01*
X191679539Y-117004403D01*
X191679168Y-117003826D01*
X191678779Y-117003262D01*
X191678371Y-117002711D01*
X191677944Y-117002172D01*
X191677501Y-117001647D01*
X191677039Y-117001136D01*
X191676560Y-117000639D01*
X191676065Y-117000157D01*
X191675553Y-116999691D01*
X191675024Y-116999240D01*
X191674479Y-116998806D01*
X191673918Y-116998389D01*
X191673342Y-116997989D01*
X191672751Y-116997607D01*
X191672144Y-116997243D01*
X191670899Y-116996578D01*
X191669623Y-116996002D01*
X191668320Y-116995515D01*
X191666995Y-116995116D01*
X191665652Y-116994806D01*
X191664295Y-116994584D01*
X191662930Y-116994451D01*
X191661561Y-116994407D01*
X191660191Y-116994451D01*
X191658826Y-116994584D01*
X191657469Y-116994806D01*
X191656126Y-116995116D01*
X191654801Y-116995515D01*
X191653498Y-116996002D01*
X191652222Y-116996578D01*
X191650977Y-116997243D01*
X191649779Y-116997989D01*
X191648642Y-116998806D01*
X191647569Y-116999691D01*
X191646561Y-117000639D01*
X191645621Y-117001647D01*
X191644751Y-117002711D01*
X191643953Y-117003826D01*
X191643230Y-117004990D01*
X191642583Y-117006199D01*
X191642016Y-117007448D01*
X191641530Y-117008733D01*
X191641127Y-117010051D01*
X191640809Y-117011398D01*
X191640580Y-117012770D01*
X191640441Y-117014163D01*
X191640394Y-117015574D01*
X191640394Y-117119733D01*
X191523466Y-117119733D01*
X191343048Y-117015574D01*
X191186262Y-116925057D01*
X191184234Y-116923333D01*
X191182314Y-116921511D01*
X191180504Y-116919595D01*
X191178806Y-116917591D01*
X191177223Y-116915504D01*
X191175759Y-116913339D01*
X191174414Y-116911102D01*
X191173193Y-116908797D01*
X191172097Y-116906430D01*
X191171129Y-116904006D01*
X191170292Y-116901530D01*
X191169588Y-116899007D01*
X191169020Y-116896443D01*
X191168590Y-116893843D01*
X191168300Y-116891211D01*
X191168155Y-116888553D01*
X191168155Y-116819445D01*
X191216507Y-116819445D01*
X191216626Y-116822986D01*
X191217206Y-116830327D01*
X191218220Y-116837571D01*
X191219658Y-116844704D01*
X191221512Y-116851708D01*
X191223771Y-116858566D01*
X191226425Y-116865262D01*
X191229466Y-116871778D01*
X191232882Y-116878099D01*
X191236666Y-116884208D01*
X191240806Y-116890088D01*
X191245294Y-116895722D01*
X191250119Y-116901093D01*
X191255272Y-116906186D01*
X191260743Y-116910982D01*
X191266523Y-116915466D01*
X191272602Y-116919621D01*
X191274377Y-116920656D01*
X191276182Y-116921631D01*
X191278015Y-116922545D01*
X191279874Y-116923397D01*
X191281757Y-116924187D01*
X191283664Y-116924914D01*
X191285593Y-116925579D01*
X191287542Y-116926180D01*
X191289510Y-116926718D01*
X191291494Y-116927191D01*
X191293494Y-116927599D01*
X191295508Y-116927943D01*
X191297534Y-116928220D01*
X191299571Y-116928431D01*
X191301617Y-116928576D01*
X191303670Y-116928654D01*
X191305136Y-116928643D01*
X191306598Y-116928584D01*
X191308055Y-116928476D01*
X191309505Y-116928320D01*
X191310948Y-116928117D01*
X191312382Y-116927867D01*
X191313807Y-116927569D01*
X191315220Y-116927225D01*
X191316622Y-116926834D01*
X191318010Y-116926397D01*
X191319383Y-116925915D01*
X191320741Y-116925387D01*
X191322083Y-116924813D01*
X191323406Y-116924195D01*
X191324710Y-116923532D01*
X191325994Y-116922825D01*
X191328903Y-116920802D01*
X191331646Y-116918605D01*
X191334218Y-116916246D01*
X191336614Y-116913734D01*
X191338829Y-116911079D01*
X191340858Y-116908293D01*
X191342695Y-116905384D01*
X191344336Y-116902364D01*
X191345775Y-116899243D01*
X191347007Y-116896031D01*
X191348027Y-116892738D01*
X191348830Y-116889375D01*
X191349410Y-116885953D01*
X191349763Y-116882480D01*
X191349882Y-116878968D01*
X191349764Y-116875427D01*
X191349184Y-116868086D01*
X191348169Y-116860841D01*
X191346730Y-116853708D01*
X191344875Y-116846704D01*
X191342615Y-116839845D01*
X191339959Y-116833149D01*
X191336918Y-116826632D01*
X191333500Y-116820311D01*
X191329715Y-116814202D01*
X191325573Y-116808323D01*
X191321084Y-116802689D01*
X191316257Y-116797318D01*
X191311103Y-116792226D01*
X191305630Y-116787430D01*
X191299848Y-116782946D01*
X191293768Y-116778793D01*
X191290738Y-116776898D01*
X191287613Y-116775227D01*
X191284405Y-116773778D01*
X191281125Y-116772554D01*
X191277785Y-116771554D01*
X191274396Y-116770780D01*
X191270970Y-116770232D01*
X191267519Y-116769911D01*
X191264054Y-116769817D01*
X191260588Y-116769951D01*
X191257131Y-116770314D01*
X191253695Y-116770907D01*
X191250292Y-116771730D01*
X191246933Y-116772784D01*
X191243631Y-116774070D01*
X191240397Y-116775588D01*
X191237487Y-116777611D01*
X191234744Y-116779807D01*
X191232171Y-116782166D01*
X191229775Y-116784678D01*
X191227559Y-116787332D01*
X191225530Y-116790119D01*
X191223692Y-116793028D01*
X191222052Y-116796048D01*
X191220613Y-116799169D01*
X191219381Y-116802381D01*
X191218361Y-116805674D01*
X191217558Y-116809037D01*
X191216979Y-116812460D01*
X191216627Y-116815933D01*
X191216507Y-116819445D01*
X191168155Y-116819445D01*
X191168155Y-116666758D01*
X191168155Y-116111257D01*
X191216626Y-116111257D01*
X191216626Y-116666758D01*
X191216638Y-116667465D01*
X191216673Y-116668169D01*
X191216731Y-116668868D01*
X191216812Y-116669562D01*
X191216915Y-116670251D01*
X191217041Y-116670935D01*
X191217189Y-116671612D01*
X191217358Y-116672282D01*
X191217549Y-116672945D01*
X191217761Y-116673601D01*
X191217993Y-116674248D01*
X191218247Y-116674886D01*
X191218521Y-116675516D01*
X191218814Y-116676135D01*
X191219128Y-116676745D01*
X191219461Y-116677344D01*
X191219813Y-116677932D01*
X191220184Y-116678508D01*
X191220574Y-116679073D01*
X191220982Y-116679624D01*
X191221408Y-116680163D01*
X191221852Y-116680688D01*
X191222313Y-116681200D01*
X191222792Y-116681696D01*
X191223288Y-116682178D01*
X191223800Y-116682645D01*
X191224329Y-116683095D01*
X191224874Y-116683530D01*
X191225435Y-116683947D01*
X191226011Y-116684347D01*
X191226603Y-116684729D01*
X191227210Y-116685093D01*
X191741787Y-116982193D01*
X191743032Y-116982857D01*
X191744309Y-116983432D01*
X191745612Y-116983919D01*
X191746937Y-116984317D01*
X191748280Y-116984626D01*
X191749636Y-116984847D01*
X191751002Y-116984979D01*
X191752371Y-116985023D01*
X191753741Y-116984978D01*
X191755106Y-116984844D01*
X191756462Y-116984622D01*
X191757805Y-116984311D01*
X191759129Y-116983912D01*
X191760432Y-116983424D01*
X191761708Y-116982848D01*
X191762953Y-116982183D01*
X191764150Y-116981437D01*
X191765287Y-116980619D01*
X191766360Y-116979734D01*
X191767368Y-116978786D01*
X191768307Y-116977778D01*
X191769177Y-116976714D01*
X191769975Y-116975598D01*
X191770698Y-116974434D01*
X191771344Y-116973226D01*
X191771911Y-116971978D01*
X191772397Y-116970693D01*
X191772800Y-116969375D01*
X191773117Y-116968029D01*
X191773346Y-116966658D01*
X191773485Y-116965266D01*
X191773532Y-116963856D01*
X191773532Y-116547220D01*
X191773534Y-116408334D01*
X191773522Y-116407627D01*
X191773487Y-116406924D01*
X191773429Y-116406224D01*
X191773348Y-116405530D01*
X191773245Y-116404841D01*
X191773119Y-116404158D01*
X191772972Y-116403481D01*
X191772802Y-116402810D01*
X191772611Y-116402147D01*
X191772399Y-116401492D01*
X191772167Y-116400845D01*
X191771913Y-116400206D01*
X191771640Y-116399577D01*
X191771346Y-116398957D01*
X191771032Y-116398348D01*
X191770699Y-116397749D01*
X191770347Y-116397161D01*
X191769976Y-116396584D01*
X191769586Y-116396020D01*
X191769178Y-116395468D01*
X191768752Y-116394929D01*
X191768308Y-116394404D01*
X191767847Y-116393893D01*
X191767368Y-116393396D01*
X191766872Y-116392914D01*
X191766360Y-116392448D01*
X191765831Y-116391997D01*
X191765286Y-116391563D01*
X191764725Y-116391146D01*
X191764149Y-116390746D01*
X191763557Y-116390363D01*
X191762950Y-116390000D01*
X191248380Y-116092924D01*
X191247135Y-116092259D01*
X191245859Y-116091683D01*
X191244556Y-116091195D01*
X191243230Y-116090796D01*
X191241887Y-116090486D01*
X191240531Y-116090264D01*
X191239166Y-116090131D01*
X191237796Y-116090087D01*
X191236426Y-116090131D01*
X191235061Y-116090263D01*
X191233704Y-116090485D01*
X191232361Y-116090795D01*
X191231036Y-116091194D01*
X191229733Y-116091681D01*
X191228457Y-116092257D01*
X191227211Y-116092921D01*
X191226013Y-116093667D01*
X191224876Y-116094484D01*
X191223802Y-116095369D01*
X191222794Y-116096317D01*
X191221854Y-116097325D01*
X191220984Y-116098389D01*
X191220186Y-116099505D01*
X191219463Y-116100670D01*
X191218816Y-116101878D01*
X191218248Y-116103127D01*
X191217762Y-116104413D01*
X191217359Y-116105732D01*
X191217042Y-116107079D01*
X191216813Y-116108452D01*
X191216673Y-116109846D01*
X191216626Y-116111257D01*
X191168155Y-116111257D01*
X191168155Y-115992918D01*
X191168158Y-115992507D01*
X191168168Y-115992112D01*
X191168181Y-115991732D01*
X191168197Y-115991368D01*
X191803899Y-116358374D01*
G37*
D15*
%TO.C,U2*%
X178465000Y-108505000D02*
X182585000Y-108505000D01*
X178465000Y-108570000D02*
X178465000Y-108505000D01*
X178465000Y-117375000D02*
X178465000Y-117310000D01*
X182585000Y-108505000D02*
X182585000Y-108570000D01*
X182585000Y-117310000D02*
X182585000Y-117375000D01*
X182585000Y-117375000D02*
X178465000Y-117375000D01*
X177925000Y-108570000D02*
X177685000Y-108240000D01*
X178165000Y-108240000D01*
X177925000Y-108570000D01*
G36*
X177925000Y-108570000D02*
G01*
X177685000Y-108240000D01*
X178165000Y-108240000D01*
X177925000Y-108570000D01*
G37*
%TO.C,D4*%
X163350000Y-155194821D02*
X167650000Y-155194821D01*
X163350000Y-155194821D02*
X163350000Y-149384821D01*
X167650000Y-155194821D02*
X167650000Y-149384821D01*
%TO.C,RN2*%
X173740000Y-103690000D02*
X173740000Y-106310000D01*
X171120000Y-103690000D02*
X194140000Y-103690000D01*
X194140000Y-106310000D01*
X171120000Y-106310000D01*
X171120000Y-103690000D01*
%TO.C,J4*%
X203140000Y-133390000D02*
X203140000Y-134640000D01*
X203440000Y-135000000D02*
X204050000Y-135000000D01*
X203440000Y-136300000D02*
X204050000Y-136300000D01*
X204050000Y-134300000D02*
X204050000Y-137800000D01*
X204050000Y-137800000D02*
X212950000Y-137800000D01*
X204390000Y-133390000D02*
X203140000Y-133390000D01*
X204900000Y-133490000D02*
X204900000Y-133690000D01*
X205200000Y-133490000D02*
X204900000Y-133490000D01*
X205200000Y-133590000D02*
X204900000Y-133590000D01*
X205200000Y-133690000D02*
X205200000Y-133490000D01*
X206000000Y-133690000D02*
X206000000Y-134300000D01*
X206000000Y-134300000D02*
X204050000Y-134300000D01*
X206400000Y-137300000D02*
X206600000Y-137300000D01*
X206400000Y-137800000D02*
X206400000Y-137300000D01*
X206500000Y-137800000D02*
X206500000Y-137300000D01*
X206600000Y-137300000D02*
X206600000Y-137800000D01*
X208400000Y-137300000D02*
X208600000Y-137300000D01*
X208400000Y-137800000D02*
X208400000Y-137300000D01*
X208500000Y-137800000D02*
X208500000Y-137300000D01*
X208600000Y-137300000D02*
X208600000Y-137800000D01*
X210400000Y-137300000D02*
X210600000Y-137300000D01*
X210400000Y-137800000D02*
X210400000Y-137300000D01*
X210500000Y-137800000D02*
X210500000Y-137300000D01*
X210600000Y-137300000D02*
X210600000Y-137800000D01*
X211000000Y-134300000D02*
X211000000Y-133690000D01*
X212950000Y-134300000D02*
X211000000Y-134300000D01*
X212950000Y-137800000D02*
X212950000Y-134300000D01*
X213560000Y-135000000D02*
X212950000Y-135000000D01*
X213560000Y-136300000D02*
X212950000Y-136300000D01*
X203440000Y-133690000D02*
X213560000Y-133690000D01*
X213560000Y-138410000D01*
X203440000Y-138410000D01*
X203440000Y-133690000D01*
%TO.C,SW1*%
X190490000Y-153840000D02*
X191800000Y-153840000D01*
X190490000Y-153840000D02*
X190490000Y-152457000D01*
X190730000Y-153600000D02*
X191800000Y-153600000D01*
X190730000Y-153600000D02*
X190730000Y-146780000D01*
X193880000Y-153600000D02*
X194420000Y-153600000D01*
X196340000Y-153600000D02*
X196960000Y-153600000D01*
X198880000Y-153600000D02*
X199500000Y-153600000D01*
X201420000Y-153600000D02*
X202040000Y-153600000D01*
X203960000Y-153600000D02*
X204580000Y-153600000D01*
X206500000Y-153600000D02*
X207120000Y-153600000D01*
X209040000Y-153600000D02*
X209660000Y-153600000D01*
X211580000Y-153600000D02*
X212730000Y-153600000D01*
X212730000Y-153600000D02*
X212730000Y-146780000D01*
X192205000Y-150793333D02*
X193475000Y-150793333D01*
X194745000Y-150793333D02*
X196015000Y-150793333D01*
X197285000Y-150793333D02*
X198555000Y-150793333D01*
X199825000Y-150793333D02*
X201095000Y-150793333D01*
X202365000Y-150793333D02*
X203635000Y-150793333D01*
X204905000Y-150793333D02*
X206175000Y-150793333D01*
X207445000Y-150793333D02*
X208715000Y-150793333D01*
X209985000Y-150793333D02*
X211255000Y-150793333D01*
X190730000Y-146780000D02*
X191880000Y-146780000D01*
X193800000Y-146780000D02*
X194420000Y-146780000D01*
X196340000Y-146780000D02*
X196960000Y-146780000D01*
X198880000Y-146780000D02*
X199500000Y-146780000D01*
X201420000Y-146780000D02*
X202040000Y-146780000D01*
X203960000Y-146780000D02*
X204580000Y-146780000D01*
X206500000Y-146780000D02*
X207120000Y-146780000D01*
X209040000Y-146780000D02*
X209660000Y-146780000D01*
X211580000Y-146780000D02*
X212730000Y-146780000D01*
X192205000Y-152000000D02*
X193475000Y-152000000D01*
X193475000Y-150793333D01*
X192205000Y-150793333D01*
X192205000Y-152000000D01*
G36*
X192205000Y-152000000D02*
G01*
X193475000Y-152000000D01*
X193475000Y-150793333D01*
X192205000Y-150793333D01*
X192205000Y-152000000D01*
G37*
X192205000Y-152000000D02*
X193475000Y-152000000D01*
X193475000Y-148380000D01*
X192205000Y-148380000D01*
X192205000Y-152000000D01*
X194745000Y-152000000D02*
X196015000Y-152000000D01*
X196015000Y-150793333D01*
X194745000Y-150793333D01*
X194745000Y-152000000D01*
G36*
X194745000Y-152000000D02*
G01*
X196015000Y-152000000D01*
X196015000Y-150793333D01*
X194745000Y-150793333D01*
X194745000Y-152000000D01*
G37*
X194745000Y-152000000D02*
X196015000Y-152000000D01*
X196015000Y-148380000D01*
X194745000Y-148380000D01*
X194745000Y-152000000D01*
X197285000Y-152000000D02*
X198555000Y-152000000D01*
X198555000Y-150793333D01*
X197285000Y-150793333D01*
X197285000Y-152000000D01*
G36*
X197285000Y-152000000D02*
G01*
X198555000Y-152000000D01*
X198555000Y-150793333D01*
X197285000Y-150793333D01*
X197285000Y-152000000D01*
G37*
X197285000Y-152000000D02*
X198555000Y-152000000D01*
X198555000Y-148380000D01*
X197285000Y-148380000D01*
X197285000Y-152000000D01*
X199825000Y-152000000D02*
X201095000Y-152000000D01*
X201095000Y-150793333D01*
X199825000Y-150793333D01*
X199825000Y-152000000D01*
G36*
X199825000Y-152000000D02*
G01*
X201095000Y-152000000D01*
X201095000Y-150793333D01*
X199825000Y-150793333D01*
X199825000Y-152000000D01*
G37*
X199825000Y-152000000D02*
X201095000Y-152000000D01*
X201095000Y-148380000D01*
X199825000Y-148380000D01*
X199825000Y-152000000D01*
X202365000Y-152000000D02*
X203635000Y-152000000D01*
X203635000Y-150793333D01*
X202365000Y-150793333D01*
X202365000Y-152000000D01*
G36*
X202365000Y-152000000D02*
G01*
X203635000Y-152000000D01*
X203635000Y-150793333D01*
X202365000Y-150793333D01*
X202365000Y-152000000D01*
G37*
X202365000Y-152000000D02*
X203635000Y-152000000D01*
X203635000Y-148380000D01*
X202365000Y-148380000D01*
X202365000Y-152000000D01*
X204905000Y-152000000D02*
X206175000Y-152000000D01*
X206175000Y-150793333D01*
X204905000Y-150793333D01*
X204905000Y-152000000D01*
G36*
X204905000Y-152000000D02*
G01*
X206175000Y-152000000D01*
X206175000Y-150793333D01*
X204905000Y-150793333D01*
X204905000Y-152000000D01*
G37*
X204905000Y-152000000D02*
X206175000Y-152000000D01*
X206175000Y-148380000D01*
X204905000Y-148380000D01*
X204905000Y-152000000D01*
X207445000Y-152000000D02*
X208715000Y-152000000D01*
X208715000Y-150793333D01*
X207445000Y-150793333D01*
X207445000Y-152000000D01*
G36*
X207445000Y-152000000D02*
G01*
X208715000Y-152000000D01*
X208715000Y-150793333D01*
X207445000Y-150793333D01*
X207445000Y-152000000D01*
G37*
X207445000Y-152000000D02*
X208715000Y-152000000D01*
X208715000Y-148380000D01*
X207445000Y-148380000D01*
X207445000Y-152000000D01*
X209985000Y-152000000D02*
X211255000Y-152000000D01*
X211255000Y-150793333D01*
X209985000Y-150793333D01*
X209985000Y-152000000D01*
G36*
X209985000Y-152000000D02*
G01*
X211255000Y-152000000D01*
X211255000Y-150793333D01*
X209985000Y-150793333D01*
X209985000Y-152000000D01*
G37*
X209985000Y-152000000D02*
X211255000Y-152000000D01*
X211255000Y-148380000D01*
X209985000Y-148380000D01*
X209985000Y-152000000D01*
D11*
%TO.C,D2*%
X191285736Y-114859949D02*
X191710000Y-115284214D01*
X191710000Y-115284214D02*
X192063553Y-114930660D01*
X191992843Y-114294264D02*
X192063553Y-114082132D01*
X192063553Y-114082132D02*
X192204975Y-114223553D01*
X192204975Y-114223553D02*
X191992843Y-114294264D01*
X192841371Y-113870000D02*
X191710000Y-115001371D01*
X190578629Y-113870000D01*
X191710000Y-112738629D01*
X192841371Y-113870000D01*
D15*
%TO.C,RN1*%
X210730000Y-143810000D02*
X210730000Y-141190000D01*
X213350000Y-143810000D02*
X190330000Y-143810000D01*
X190330000Y-141190000D01*
X213350000Y-141190000D01*
X213350000Y-143810000D01*
%TO.C,J5*%
X161615000Y-147370000D02*
X160365000Y-147370000D01*
X159065000Y-147670000D02*
X159065000Y-148420000D01*
X159065000Y-148420000D02*
X156115000Y-148420000D01*
X156115000Y-148420000D02*
X156115000Y-151470000D01*
X161615000Y-148620000D02*
X161615000Y-147370000D01*
X159065000Y-154520000D02*
X156115000Y-154520000D01*
X156115000Y-154520000D02*
X156115000Y-151470000D01*
X159065000Y-155270000D02*
X159065000Y-154520000D01*
X161325000Y-147660000D02*
X155355000Y-147660000D01*
X155355000Y-155280000D01*
X161325000Y-155280000D01*
X161325000Y-147660000D01*
X161315000Y-147670000D02*
X160565000Y-147670000D01*
X160565000Y-149470000D01*
X161315000Y-149470000D01*
X161315000Y-147670000D01*
X161315000Y-150970000D02*
X160565000Y-150970000D01*
X160565000Y-151970000D01*
X161315000Y-151970000D01*
X161315000Y-150970000D01*
X161315000Y-153470000D02*
X160565000Y-153470000D01*
X160565000Y-155270000D01*
X161315000Y-155270000D01*
X161315000Y-153470000D01*
%TO.C,D1*%
X171072500Y-119510000D02*
X169552500Y-119510000D01*
X171072500Y-119460000D02*
X171072500Y-119510000D01*
X171072500Y-117560000D02*
X171072500Y-118340000D01*
X171072500Y-116390000D02*
X171072500Y-116440000D01*
X169552500Y-119510000D02*
X169552500Y-118510000D01*
X169552500Y-117390000D02*
X169552500Y-116390000D01*
X169552500Y-116390000D02*
X171072500Y-116390000D01*
X171612500Y-118330000D02*
X171372500Y-118000000D01*
X171852500Y-118000000D01*
X171612500Y-118330000D01*
G36*
X171612500Y-118330000D02*
G01*
X171372500Y-118000000D01*
X171852500Y-118000000D01*
X171612500Y-118330000D01*
G37*
%TO.C,C5*%
X184359420Y-140740000D02*
X184640580Y-140740000D01*
X184359420Y-141760000D02*
X184640580Y-141760000D01*
%TO.C,R6*%
X173265000Y-118227064D02*
X173265000Y-117772936D01*
X174735000Y-118227064D02*
X174735000Y-117772936D01*
%TO.C,C1*%
X183918781Y-130985030D02*
X183719970Y-130786219D01*
X184640030Y-130263781D02*
X184441219Y-130064970D01*
%TO.C,J2*%
X165310000Y-97610000D02*
X155890000Y-97610000D01*
X165310000Y-97610000D02*
X165310000Y-99210000D01*
X159200000Y-97610000D02*
X159200000Y-128310000D01*
X155890000Y-97610000D02*
X155890000Y-128310000D01*
X166600000Y-99960000D02*
X166600000Y-100560000D01*
X166000000Y-100260000D02*
X166600000Y-99960000D01*
X166600000Y-100560000D02*
X166000000Y-100260000D01*
X165310000Y-101310000D02*
X165310000Y-104290000D01*
X165310000Y-106390000D02*
X165310000Y-109370000D01*
X165310000Y-111470000D02*
X165310000Y-114450000D01*
X165310000Y-116550000D02*
X165310000Y-119530000D01*
X165310000Y-121630000D02*
X165310000Y-124610000D01*
X165310000Y-128310000D02*
X165310000Y-126710000D01*
X155890000Y-128310000D02*
X165310000Y-128310000D01*
%TO.C,U3*%
X182415000Y-143615000D02*
X186535000Y-143615000D01*
X182415000Y-143670000D02*
X182415000Y-143615000D01*
X182415000Y-153735000D02*
X182415000Y-153680000D01*
X186535000Y-143615000D02*
X186535000Y-143670000D01*
X186535000Y-153680000D02*
X186535000Y-153735000D01*
X186535000Y-153735000D02*
X182415000Y-153735000D01*
X181875000Y-143665000D02*
X181635000Y-143335000D01*
X182115000Y-143335000D01*
X181875000Y-143665000D01*
G36*
X181875000Y-143665000D02*
G01*
X181635000Y-143335000D01*
X182115000Y-143335000D01*
X181875000Y-143665000D01*
G37*
%TO.C,J6*%
X168390000Y-122840000D02*
X168390000Y-124090000D01*
X168690000Y-124450000D02*
X169300000Y-124450000D01*
X168690000Y-125750000D02*
X169300000Y-125750000D01*
X169300000Y-123750000D02*
X169300000Y-127250000D01*
X169300000Y-127250000D02*
X178200000Y-127250000D01*
X169640000Y-122840000D02*
X168390000Y-122840000D01*
X170150000Y-122940000D02*
X170150000Y-123140000D01*
X170450000Y-122940000D02*
X170150000Y-122940000D01*
X170450000Y-123040000D02*
X170150000Y-123040000D01*
X170450000Y-123140000D02*
X170450000Y-122940000D01*
X171250000Y-123140000D02*
X171250000Y-123750000D01*
X171250000Y-123750000D02*
X169300000Y-123750000D01*
X171650000Y-126750000D02*
X171850000Y-126750000D01*
X171650000Y-127250000D02*
X171650000Y-126750000D01*
X171750000Y-127250000D02*
X171750000Y-126750000D01*
X171850000Y-126750000D02*
X171850000Y-127250000D01*
X173650000Y-126750000D02*
X173850000Y-126750000D01*
X173650000Y-127250000D02*
X173650000Y-126750000D01*
X173750000Y-127250000D02*
X173750000Y-126750000D01*
X173850000Y-126750000D02*
X173850000Y-127250000D01*
X175650000Y-126750000D02*
X175850000Y-126750000D01*
X175650000Y-127250000D02*
X175650000Y-126750000D01*
X175750000Y-127250000D02*
X175750000Y-126750000D01*
X175850000Y-126750000D02*
X175850000Y-127250000D01*
X176250000Y-123750000D02*
X176250000Y-123140000D01*
X178200000Y-123750000D02*
X176250000Y-123750000D01*
X178200000Y-127250000D02*
X178200000Y-123750000D01*
X178810000Y-124450000D02*
X178200000Y-124450000D01*
X178810000Y-125750000D02*
X178200000Y-125750000D01*
X168690000Y-123140000D02*
X178810000Y-123140000D01*
X178810000Y-127860000D01*
X168690000Y-127860000D01*
X168690000Y-123140000D01*
%TO.C,R7*%
X200610436Y-136765000D02*
X201064564Y-136765000D01*
X200610436Y-138235000D02*
X201064564Y-138235000D01*
%TO.C,C3*%
X180109420Y-119490000D02*
X180390580Y-119490000D01*
X180109420Y-120510000D02*
X180390580Y-120510000D01*
%TO.C,R4*%
X181175242Y-124227500D02*
X181649758Y-124227500D01*
X181175242Y-125272500D02*
X181649758Y-125272500D01*
%TO.C,J3*%
X197610000Y-101640000D02*
X197610000Y-102640000D01*
X197610000Y-102640000D02*
X198610000Y-102140000D01*
X198610000Y-102140000D02*
X197610000Y-101640000D01*
X204230000Y-96930000D02*
X213350000Y-96930000D01*
X204230000Y-111520000D02*
X213350000Y-111520000D01*
X204230000Y-115620000D02*
X213350000Y-115620000D01*
X204230000Y-130210000D02*
X204230000Y-96930000D01*
X213350000Y-96930000D02*
X213350000Y-130210000D01*
X213350000Y-130210000D02*
X204230000Y-130210000D01*
%TO.C,U1*%
X184822627Y-122922960D02*
X188089460Y-119656127D01*
X192876573Y-124443240D02*
X189609740Y-127710073D01*
X183963492Y-124764973D02*
X183624081Y-124425562D01*
X184027132Y-124361923D01*
X183963492Y-124764973D01*
G36*
X183963492Y-124764973D02*
G01*
X183624081Y-124425562D01*
X184027132Y-124361923D01*
X183963492Y-124764973D01*
G37*
%TO.C,R1*%
X195937258Y-119912500D02*
X195462742Y-119912500D01*
X195937258Y-118867500D02*
X195462742Y-118867500D01*
%TO.C,D3*%
X171802500Y-108190000D02*
X173322500Y-108190000D01*
X171802500Y-108240000D02*
X171802500Y-108190000D01*
X171802500Y-110140000D02*
X171802500Y-109360000D01*
X171802500Y-111310000D02*
X171802500Y-111260000D01*
X173322500Y-108190000D02*
X173322500Y-109190000D01*
X173322500Y-110310000D02*
X173322500Y-111310000D01*
X173322500Y-111310000D02*
X171802500Y-111310000D01*
X171502500Y-109700000D02*
X171022500Y-109700000D01*
X171262500Y-109370000D01*
X171502500Y-109700000D01*
G36*
X171502500Y-109700000D02*
G01*
X171022500Y-109700000D01*
X171262500Y-109370000D01*
X171502500Y-109700000D01*
G37*
%TO.C,R8*%
X200610436Y-133765000D02*
X201064564Y-133765000D01*
X200610436Y-135235000D02*
X201064564Y-135235000D01*
%TO.C,J7*%
X186140000Y-133590000D02*
X186140000Y-134840000D01*
X186440000Y-135200000D02*
X187050000Y-135200000D01*
X186440000Y-136500000D02*
X187050000Y-136500000D01*
X187050000Y-134500000D02*
X187050000Y-138000000D01*
X187050000Y-138000000D02*
X195950000Y-138000000D01*
X187390000Y-133590000D02*
X186140000Y-133590000D01*
X187900000Y-133690000D02*
X187900000Y-133890000D01*
X188200000Y-133690000D02*
X187900000Y-133690000D01*
X188200000Y-133790000D02*
X187900000Y-133790000D01*
X188200000Y-133890000D02*
X188200000Y-133690000D01*
X189000000Y-133890000D02*
X189000000Y-134500000D01*
X189000000Y-134500000D02*
X187050000Y-134500000D01*
X189400000Y-137500000D02*
X189600000Y-137500000D01*
X189400000Y-138000000D02*
X189400000Y-137500000D01*
X189500000Y-138000000D02*
X189500000Y-137500000D01*
X189600000Y-137500000D02*
X189600000Y-138000000D01*
X191400000Y-137500000D02*
X191600000Y-137500000D01*
X191400000Y-138000000D02*
X191400000Y-137500000D01*
X191500000Y-138000000D02*
X191500000Y-137500000D01*
X191600000Y-137500000D02*
X191600000Y-138000000D01*
X193400000Y-137500000D02*
X193600000Y-137500000D01*
X193400000Y-138000000D02*
X193400000Y-137500000D01*
X193500000Y-138000000D02*
X193500000Y-137500000D01*
X193600000Y-137500000D02*
X193600000Y-138000000D01*
X194000000Y-134500000D02*
X194000000Y-133890000D01*
X195950000Y-134500000D02*
X194000000Y-134500000D01*
X195950000Y-138000000D02*
X195950000Y-134500000D01*
X196560000Y-135200000D02*
X195950000Y-135200000D01*
X196560000Y-136500000D02*
X195950000Y-136500000D01*
X186440000Y-133890000D02*
X196560000Y-133890000D01*
X196560000Y-138610000D01*
X186440000Y-138610000D01*
X186440000Y-133890000D01*
%TO.C,R5*%
X169985000Y-109522936D02*
X169985000Y-109977064D01*
X168515000Y-109522936D02*
X168515000Y-109977064D01*
%TO.C,C2*%
X185418781Y-129460030D02*
X185219970Y-129261219D01*
X186140030Y-128738781D02*
X185941219Y-128539970D01*
%TD*%
M02*
