%TF.GenerationSoftware,KiCad,Pcbnew,9.0.8+dfsg-1*%
%TF.CreationDate,2026-06-23T21:25:10+05:30*%
%TF.ProjectId,base_node,62617365-5f6e-46f6-9465-2e6b69636164,rev?*%
%TF.SameCoordinates,Original*%
%TF.FileFunction,Soldermask,Bot*%
%TF.FilePolarity,Negative*%
%FSLAX46Y46*%
G04 Gerber Fmt 4.6, Leading zero omitted, Abs format (unit mm)*
G04 Created by KiCad (PCBNEW 9.0.8+dfsg-1) date 2026-06-23 21:25:10*
%MOMM*%
%LPD*%
G01*
G04 APERTURE LIST*
G04 Aperture macros list*
%AMRoundRect*
0 Rectangle with rounded corners*
0 $1 Rounding radius*
0 $2 $3 $4 $5 $6 $7 $8 $9 X,Y pos of 4 corners*
0 Add a 4 corners polygon primitive as box body*
4,1,4,$2,$3,$4,$5,$6,$7,$8,$9,$2,$3,0*
0 Add four circle primitives for the rounded corners*
1,1,$1+$1,$2,$3*
1,1,$1+$1,$4,$5*
1,1,$1+$1,$6,$7*
1,1,$1+$1,$8,$9*
0 Add four rect primitives between the rounded corners*
20,1,$1+$1,$2,$3,$4,$5,0*
20,1,$1+$1,$4,$5,$6,$7,0*
20,1,$1+$1,$6,$7,$8,$9,0*
20,1,$1+$1,$8,$9,$2,$3,0*%
G04 Aperture macros list end*
%ADD10O,1.200000X1.750000*%
%ADD11RoundRect,0.250000X-0.350000X-0.625000X0.350000X-0.625000X0.350000X0.625000X-0.350000X0.625000X0*%
%ADD12C,2.200000*%
%ADD13R,1.600000X1.600000*%
%ADD14C,1.600000*%
%ADD15RoundRect,0.250000X0.550000X-0.550000X0.550000X0.550000X-0.550000X0.550000X-0.550000X-0.550000X0*%
%ADD16RoundRect,0.250000X-0.750000X0.600000X-0.750000X-0.600000X0.750000X-0.600000X0.750000X0.600000X0*%
%ADD17O,2.000000X1.700000*%
%ADD18RoundRect,0.250000X-1.550000X0.650000X-1.550000X-0.650000X1.550000X-0.650000X1.550000X0.650000X0*%
%ADD19O,3.600000X1.800000*%
%ADD20RoundRect,0.250000X-0.600000X-0.600000X0.600000X-0.600000X0.600000X0.600000X-0.600000X0.600000X0*%
%ADD21C,1.700000*%
G04 APERTURE END LIST*
D10*
%TO.C,J1*%
X191750000Y-99000000D03*
X189750000Y-99000000D03*
X187750000Y-99000000D03*
X185750000Y-99000000D03*
X183750000Y-99000000D03*
X181750000Y-99000000D03*
X179750000Y-99000000D03*
X177750000Y-99000000D03*
X175750000Y-99000000D03*
D11*
X173750000Y-99000000D03*
%TD*%
D12*
%TO.C,REF\u002A\u002A*%
X181250000Y-137300000D03*
%TD*%
D13*
%TO.C,RN2*%
X172470000Y-105000000D03*
D14*
X175010000Y-105000000D03*
X177550000Y-105000000D03*
X180090000Y-105000000D03*
X182630000Y-105000000D03*
X185170000Y-105000000D03*
X187710000Y-105000000D03*
X190250000Y-105000000D03*
X192790000Y-105000000D03*
%TD*%
D11*
%TO.C,J4*%
X205500000Y-135500000D03*
D10*
X207500000Y-135500000D03*
X209500000Y-135500000D03*
X211500000Y-135500000D03*
%TD*%
D15*
%TO.C,SW1*%
X192840000Y-154000000D03*
D14*
X195380000Y-154000000D03*
X197920000Y-154000000D03*
X200460000Y-154000000D03*
X203000000Y-154000000D03*
X205540000Y-154000000D03*
X208080000Y-154000000D03*
X210620000Y-154000000D03*
X210620000Y-146380000D03*
X208080000Y-146380000D03*
X205540000Y-146380000D03*
X203000000Y-146380000D03*
X200460000Y-146380000D03*
X197920000Y-146380000D03*
X195380000Y-146380000D03*
X192840000Y-146380000D03*
%TD*%
D13*
%TO.C,RN1*%
X212000000Y-142500000D03*
D14*
X209460000Y-142500000D03*
X206920000Y-142500000D03*
X204380000Y-142500000D03*
X201840000Y-142500000D03*
X199300000Y-142500000D03*
X196760000Y-142500000D03*
X194220000Y-142500000D03*
X191680000Y-142500000D03*
%TD*%
D16*
%TO.C,J5*%
X158865000Y-150220000D03*
D17*
X158865000Y-152720000D03*
%TD*%
D18*
%TO.C,J2*%
X164000000Y-100260000D03*
D19*
X164000000Y-105340000D03*
X164000000Y-110420000D03*
X164000000Y-115500000D03*
X164000000Y-120580000D03*
X164000000Y-125660000D03*
%TD*%
D11*
%TO.C,J6*%
X170750000Y-124950000D03*
D10*
X172750000Y-124950000D03*
X174750000Y-124950000D03*
X176750000Y-124950000D03*
%TD*%
D20*
%TO.C,J3*%
X199960000Y-102140000D03*
D21*
X202500000Y-102140000D03*
X199960000Y-104680000D03*
X202500000Y-104680000D03*
X199960000Y-107220000D03*
X202500000Y-107220000D03*
X199960000Y-109760000D03*
X202500000Y-109760000D03*
X199960000Y-112300000D03*
X202500000Y-112300000D03*
X199960000Y-114840000D03*
X202500000Y-114840000D03*
X199960000Y-117380000D03*
X202500000Y-117380000D03*
X199960000Y-119920000D03*
X202500000Y-119920000D03*
X199960000Y-122460000D03*
X202500000Y-122460000D03*
X199960000Y-125000000D03*
X202500000Y-125000000D03*
%TD*%
D11*
%TO.C,J7*%
X188500000Y-135700000D03*
D10*
X190500000Y-135700000D03*
X192500000Y-135700000D03*
X194500000Y-135700000D03*
%TD*%
D12*
%TO.C,*%
X197000000Y-98950000D03*
%TD*%
%TO.C,*%
X169350000Y-99000000D03*
%TD*%
M02*
